<svg xmlns="http://www.w3.org/2000/svg" width="130" height="106" viewBox="0 0 130 106"><g transform="translate(6275 -2755)"><g transform="translate(-6247 2774)"><rect width="29.817" height="61.031" transform="translate(21.819 6.678)" fill="none" stroke="#e86d21" stroke-linecap="round" stroke-linejoin="round" stroke-width="2"/><rect width="19.153" height="6.678" transform="translate(27.151 0)" fill="none" stroke="#e86d21" stroke-linecap="round" stroke-linejoin="round" stroke-width="2"/><rect width="15.633" height="13.563" transform="translate(28.911 54.146)" fill="none" stroke="#e86d21" stroke-linecap="round" stroke-linejoin="round" stroke-width="2"/><line x2="19.826" transform="translate(26.814 12.89)" fill="none" stroke="#e86d21" stroke-linecap="round" stroke-linejoin="round" stroke-width="2"/><line x2="19.826" transform="translate(26.814 18.739)" fill="none" stroke="#e86d21" stroke-linecap="round" stroke-linejoin="round" stroke-width="2"/><line x2="19.826" transform="translate(26.814 24.537)" fill="none" stroke="#e86d21" stroke-linecap="round" stroke-linejoin="round" stroke-width="2"/><line x2="19.826" transform="translate(26.814 30.548)" fill="none" stroke="#e86d21" stroke-linecap="round" stroke-linejoin="round" stroke-width="2"/><line x2="19.826" transform="translate(26.814 36.495)" fill="none" stroke="#e86d21" stroke-linecap="round" stroke-linejoin="round" stroke-width="2"/><line x2="19.826" transform="translate(26.814 42.719)" fill="none" stroke="#e86d21" stroke-linecap="round" stroke-linejoin="round" stroke-width="2"/><line x2="19.826" transform="translate(26.814 48.504)" fill="none" stroke="#e86d21" stroke-linecap="round" stroke-linejoin="round" stroke-width="2"/><line x2="19.826" transform="translate(26.814 54.146)" fill="none" stroke="#e86d21" stroke-linecap="round" stroke-linejoin="round" stroke-width="2"/><line y2="8.93" transform="translate(36.686 58.78)" fill="none" stroke="#e86d21" stroke-linecap="round" stroke-linejoin="round" stroke-width="2"/><g transform="translate(51.636 16.389)"><path d="M3325.279,2951.766l18.014,8.458v42.862" transform="translate(-3325.279 -2951.766)" fill="none" stroke="#e86d21" stroke-linecap="round" stroke-linejoin="round" stroke-width="2"/><rect width="1.242" height="1.242" transform="translate(5.122 13.537)" fill="none" stroke="#e86d21" stroke-linecap="round" stroke-linejoin="round" stroke-width="2"/><rect width="1.242" height="1.242" transform="translate(10.957 13.537)" fill="none" stroke="#e86d21" stroke-linecap="round" stroke-linejoin="round" stroke-width="2"/><rect width="1.242" height="1.242" transform="translate(5.122 19.648)" fill="none" stroke="#e86d21" stroke-linecap="round" stroke-linejoin="round" stroke-width="2"/><rect width="1.242" height="1.242" transform="translate(10.957 19.648)" fill="none" stroke="#e86d21" stroke-linecap="round" stroke-linejoin="round" stroke-width="2"/><rect width="1.242" height="1.242" transform="translate(5.122 25.709)" fill="none" stroke="#e86d21" stroke-linecap="round" stroke-linejoin="round" stroke-width="2"/><rect width="1.242" height="1.242" transform="translate(10.957 25.709)" fill="none" stroke="#e86d21" stroke-linecap="round" stroke-linejoin="round" stroke-width="2"/><rect width="1.242" height="1.242" transform="translate(5.122 31.819)" fill="none" stroke="#e86d21" stroke-linecap="round" stroke-linejoin="round" stroke-width="2"/><rect width="1.242" height="1.242" transform="translate(10.957 31.819)" fill="none" stroke="#e86d21" stroke-linecap="round" stroke-linejoin="round" stroke-width="2"/><rect width="1.242" height="1.242" transform="translate(5.122 37.527)" fill="none" stroke="#e86d21" stroke-linecap="round" stroke-linejoin="round" stroke-width="2"/><rect width="1.242" height="1.242" transform="translate(10.957 37.527)" fill="none" stroke="#e86d21" stroke-linecap="round" stroke-linejoin="round" stroke-width="2"/><rect width="1.242" height="1.242" transform="translate(5.122 43.638)" fill="none" stroke="#e86d21" stroke-linecap="round" stroke-linejoin="round" stroke-width="2"/><rect width="1.242" height="1.242" transform="translate(10.957 43.638)" fill="none" stroke="#e86d21" stroke-linecap="round" stroke-linejoin="round" stroke-width="2"/></g><g transform="translate(3.763 16.389)"><path d="M3296.533,2951.766l-18.014,8.458v42.862" transform="translate(-3278.519 -2951.766)" fill="none" stroke="#e86d21" stroke-linecap="round" stroke-linejoin="round" stroke-width="2"/><rect width="1.242" height="1.242" transform="translate(12.893 14.78) rotate(-180)" fill="none" stroke="#e86d21" stroke-linecap="round" stroke-linejoin="round" stroke-width="2"/><rect width="1.242" height="1.242" transform="translate(7.058 14.78) rotate(-180)" fill="none" stroke="#e86d21" stroke-linecap="round" stroke-linejoin="round" stroke-width="2"/><rect width="1.242" height="1.242" transform="translate(12.893 20.89) rotate(-180)" fill="none" stroke="#e86d21" stroke-linecap="round" stroke-linejoin="round" stroke-width="2"/><rect width="1.242" height="1.242" transform="translate(7.058 20.89) rotate(-180)" fill="none" stroke="#e86d21" stroke-linecap="round" stroke-linejoin="round" stroke-width="2"/><rect width="1.242" height="1.242" transform="translate(12.893 26.951) rotate(-180)" fill="none" stroke="#e86d21" stroke-linecap="round" stroke-linejoin="round" stroke-width="2"/><rect width="1.242" height="1.242" transform="translate(7.058 26.951) rotate(-180)" fill="none" stroke="#e86d21" stroke-linecap="round" stroke-linejoin="round" stroke-width="2"/><rect width="1.242" height="1.242" transform="translate(12.893 33.062) rotate(-180)" fill="none" stroke="#e86d21" stroke-linecap="round" stroke-linejoin="round" stroke-width="2"/><rect width="1.242" height="1.242" transform="translate(7.058 33.062) rotate(-180)" fill="none" stroke="#e86d21" stroke-linecap="round" stroke-linejoin="round" stroke-width="2"/><rect width="1.242" height="1.242" transform="translate(12.893 38.769) rotate(-180)" fill="none" stroke="#e86d21" stroke-linecap="round" stroke-linejoin="round" stroke-width="2"/><rect width="1.242" height="1.242" transform="translate(7.058 38.769) rotate(-180)" fill="none" stroke="#e86d21" stroke-linecap="round" stroke-linejoin="round" stroke-width="2"/><rect width="1.242" height="1.242" transform="translate(12.893 44.88) rotate(-180)" fill="none" stroke="#e86d21" stroke-linecap="round" stroke-linejoin="round" stroke-width="2"/><rect width="1.242" height="1.242" transform="translate(7.058 44.88) rotate(-180)" fill="none" stroke="#e86d21" stroke-linecap="round" stroke-linejoin="round" stroke-width="2"/></g><line x2="73.455" transform="translate(0 67.709)" fill="none" stroke="#e86d21" stroke-linecap="round" stroke-linejoin="round" stroke-width="2"/></g><rect width="130" height="106" transform="translate(-6275 2755)" fill="none"/></g></svg>