<svg xmlns="http://www.w3.org/2000/svg" width="86" height="70" viewBox="0 0 86 70"><g transform="translate(6554 -3215)"><g transform="translate(-6535 3219)"><rect width="47.91" height="61.189" rx="2.695" fill="none" stroke="#e86d21" stroke-linecap="round" stroke-linejoin="round" stroke-width="2"/><rect width="34.63" height="8.045" transform="translate(6.487 5.919)" fill="none" stroke="#e86d21" stroke-linecap="round" stroke-linejoin="round" stroke-width="2"/><line x2="47.91" transform="translate(0 19.358)" fill="none" stroke="#e86d21" stroke-linecap="round" stroke-linejoin="round" stroke-width="2"/><rect width="6.282" height="6.282" transform="translate(6.487 26.176)" fill="none" stroke="#e86d21" stroke-linecap="round" stroke-linejoin="round" stroke-width="2"/><rect width="6.282" height="6.282" transform="translate(15.834 26.176)" fill="none" stroke="#e86d21" stroke-linecap="round" stroke-linejoin="round" stroke-width="2"/><rect width="6.282" height="6.282" transform="translate(25.212 26.176)" fill="none" stroke="#e86d21" stroke-linecap="round" stroke-linejoin="round" stroke-width="2"/><rect width="6.282" height="6.282" transform="translate(34.911 26.176)" fill="none" stroke="#e86d21" stroke-linecap="round" stroke-linejoin="round" stroke-width="2"/><rect width="6.282" height="6.282" transform="translate(6.487 37.132)" fill="none" stroke="#e86d21" stroke-linecap="round" stroke-linejoin="round" stroke-width="2"/><rect width="6.282" height="6.282" transform="translate(15.834 37.132)" fill="none" stroke="#e86d21" stroke-linecap="round" stroke-linejoin="round" stroke-width="2"/><rect width="6.282" height="6.282" transform="translate(25.212 37.132)" fill="none" stroke="#e86d21" stroke-linecap="round" stroke-linejoin="round" stroke-width="2"/><rect width="6.282" height="6.282" transform="translate(6.487 47.705)" fill="none" stroke="#e86d21" stroke-linecap="round" stroke-linejoin="round" stroke-width="2"/><rect width="6.282" height="6.282" transform="translate(15.834 47.705)" fill="none" stroke="#e86d21" stroke-linecap="round" stroke-linejoin="round" stroke-width="2"/><rect width="6.282" height="6.282" transform="translate(25.212 47.705)" fill="none" stroke="#e86d21" stroke-linecap="round" stroke-linejoin="round" stroke-width="2"/><rect width="6.282" height="16.549" transform="translate(34.911 37.132)" fill="none" stroke="#e86d21" stroke-linecap="round" stroke-linejoin="round" stroke-width="2"/></g><rect width="86" height="70" transform="translate(-6554 3215)" fill="none"/></g></svg>