<svg xmlns="http://www.w3.org/2000/svg" width="32" height="32" viewBox="0 0 32 32"><g transform="translate(0.191)"><g transform="translate(0)"><g transform="translate(-0.191)" fill="none" stroke="#e86d21" stroke-width="1"><rect width="9" height="9" stroke="none"/><rect x="0.5" y="0.5" width="8" height="8" fill="none"/></g><g transform="translate(11.809)" fill="none" stroke="#e86d21" stroke-width="1"><rect width="8" height="9" stroke="none"/><rect x="0.5" y="0.5" width="7" height="8" fill="none"/></g><g transform="translate(22.809)" fill="none" stroke="#e86d21" stroke-width="1"><rect width="9" height="9" stroke="none"/><rect x="0.5" y="0.5" width="8" height="8" fill="none"/></g></g><g transform="translate(0 11.459)"><g transform="translate(-0.191 -0.459)" fill="none" stroke="#e86d21" stroke-width="1"><rect width="9" height="9" stroke="none"/><rect x="0.5" y="0.5" width="8" height="8" fill="none"/></g><g transform="translate(11.809 -0.459)" fill="none" stroke="#e86d21" stroke-width="1"><rect width="8" height="9" stroke="none"/><rect x="0.5" y="0.5" width="7" height="8" fill="none"/></g><g transform="translate(22.809 -0.459)" fill="none" stroke="#e86d21" stroke-width="1"><rect width="9" height="9" stroke="none"/><rect x="0.5" y="0.5" width="8" height="8" fill="none"/></g></g><g transform="translate(0 22.919)"><g transform="translate(-0.191 0.081)" fill="none" stroke="#e86d21" stroke-width="1"><rect width="9" height="9" stroke="none"/><rect x="0.5" y="0.5" width="8" height="8" fill="none"/></g><g transform="translate(11.809 0.081)" fill="none" stroke="#e86d21" stroke-width="1"><rect width="8" height="9" stroke="none"/><rect x="0.5" y="0.5" width="7" height="8" fill="none"/></g><g transform="translate(22.809 0.081)" fill="none" stroke="#e86d21" stroke-width="1"><rect width="9" height="9" stroke="none"/><rect x="0.5" y="0.5" width="8" height="8" fill="none"/></g></g></g></svg>