<svg width="120" height="102" viewBox="0 0 120 102" fill="none" xmlns="http://www.w3.org/2000/svg">
<path d="M12.75 59.7449C21.773 54.5652 29.6137 51.2829 45.046 52.7302C61.9717 54.3174 66.0163 64.7401 81.9464 66.234C97.8765 67.7279 105.857 62.9526 113.247 59.1259" stroke="#E86D21" stroke-width="2" stroke-linecap="round"/>
<path d="M44.7188 48.4355L37 54.2213L54.8125 61.9355L75 66.4355V61.9355L44.7188 48.4355Z" fill="white"/>
<path d="M90.164 32.7654L66.2013 18.831C64.6468 17.9271 62.654 18.4545 61.75 20.0089L50.3648 39.5878C49.4609 41.1423 49.9883 43.1352 51.5427 44.0391L75.5055 57.9735C77.0599 58.8774 79.0528 58.35 79.9567 56.7956L91.3419 37.2167C92.2458 35.6622 91.7185 33.6693 90.164 32.7654Z" stroke="#E86D21" stroke-width="2.00123" stroke-linecap="round" stroke-linejoin="round"/>
<path d="M88.6406 24.5925L74.0436 16.1043C72.9948 15.4944 71.6501 15.8502 71.0402 16.8991L60.1753 35.5833C59.5654 36.6321 59.9212 37.9768 60.97 38.5867L75.567 47.0749C76.6158 47.6848 77.9605 47.329 78.5704 46.2801L89.4353 27.5959C90.0452 26.5471 89.6894 25.2024 88.6406 24.5925Z" fill="white" stroke="#E86D21" stroke-width="2.00123" stroke-linecap="round" stroke-linejoin="round"/>
<path d="M56.4511 67.8305L43.0257 90.9259C42.6646 91.1898 42.2328 91.3396 41.7858 91.3557C41.3388 91.3718 40.8971 91.2535 40.518 91.0162C40.124 90.8041 39.8026 90.479 39.5951 90.0825C39.3877 89.6861 39.3037 89.2366 39.3541 88.792L52.7813 65.6963L56.4511 67.8305Z" stroke="#E86D21" stroke-width="2" stroke-linecap="round" stroke-linejoin="round"/>
<path d="M72.718 56.3311L72.5961 83.0782L85.5978 82.9216C86.5217 82.9388 87.0664 83.8493 86.8119 84.9537C86.7157 85.4679 86.456 85.9372 86.0714 86.2918C85.6869 86.6465 85.198 86.8674 84.6777 86.9216H69.0234L69.5276 61.8121L72.718 56.3311Z" stroke="#E86D21" stroke-width="2" stroke-linecap="round" stroke-linejoin="round"/>
<path d="M54.3325 45.6416L10.525 71.3092C9.73071 71.7817 9.70766 72.8459 10.475 73.6767C10.8134 74.076 11.2718 74.3553 11.7817 74.4732C12.2917 74.591 12.826 74.541 13.3053 74.3306L51.1448 51.1245L54.3325 45.6416Z" stroke="#E86D21" stroke-width="2" stroke-linecap="round" stroke-linejoin="round"/>
<path d="M74.5622 36.7924C77.5198 36.7924 79.9174 34.3948 79.9174 31.4372C79.9174 28.4796 77.5198 26.082 74.5622 26.082C71.6046 26.082 69.207 28.4796 69.207 31.4372C69.207 34.3948 71.6046 36.7924 74.5622 36.7924Z" stroke="#E86D21" stroke-width="2" stroke-linecap="round" stroke-linejoin="round"/>
<path d="M54.332 45.6416L72.7272 56.3384L64.6269 70.2683C64.3586 70.7297 63.918 71.0656 63.4021 71.2021C62.8862 71.3386 62.3371 71.2646 61.8757 70.9963L46.9598 62.3226C46.4984 62.0544 46.1625 61.6138 46.026 61.0978C45.8895 60.5819 45.9635 60.0329 46.2318 59.5715L54.332 45.6416Z" stroke="#E86D21" stroke-width="2.00123" stroke-linecap="round" stroke-linejoin="round"/>
<path d="M4.00256 64.4345C12.5082 59.4168 19.8584 56.2738 34.0595 57.9856C49.6348 59.863 53.0192 70.3429 67.6784 72.1099C82.3375 73.8768 89.8672 69.2451 96.8191 65.5505" stroke="#E86D21" stroke-width="2" stroke-linecap="round"/>
<path d="M49.0557 81.3948C54.6106 76.9142 59.5192 73.9179 69.7097 73.8413C80.8864 73.7572 84.2293 81.1302 94.7486 81.051C105.268 80.9719 110.168 76.8662 114.745 73.5024" stroke="#E86D21" stroke-width="2" stroke-linecap="round"/>
<path d="M101.499 42.4355L100.5 42.4808C100.522 42.9802 100.91 43.3861 101.408 43.4314C101.906 43.4767 102.361 43.1475 102.473 42.6604L101.499 42.4355ZM111.499 28.9353L110.932 29.7594L111.499 28.9353ZM109.999 37.436L110.478 38.3138L109.999 37.436ZM102.498 42.3903C102.256 37.0494 103.563 33.1466 105.337 30.9964C106.22 29.926 107.187 29.3233 108.111 29.1251C109.017 28.931 109.977 29.1025 110.932 29.7594L112.065 28.1113C110.693 27.1675 109.176 26.8513 107.692 27.1695C106.227 27.4837 104.892 28.3937 103.794 29.7235C101.608 32.3737 100.243 36.8217 100.5 42.4808L102.498 42.3903ZM110.932 29.7594C112.393 30.764 112.769 31.9741 112.534 33.0904C112.282 34.2843 111.28 35.5978 109.52 36.5582L110.478 38.3138C112.587 37.163 114.085 35.4299 114.491 33.5031C114.914 31.4988 114.105 29.5141 112.065 28.1113L110.932 29.7594ZM109.52 36.5582C108.805 36.9483 107.983 37.2719 107.1 37.5902C106.244 37.8989 105.294 38.2145 104.445 38.5603C102.798 39.2311 100.985 40.2156 100.524 42.2107L102.473 42.6604C102.685 41.7423 103.55 41.0844 105.2 40.4125C105.999 40.0869 106.852 39.8059 107.779 39.4716C108.679 39.1469 109.621 38.7811 110.478 38.3138L109.52 36.5582Z" fill="#E86D21"/>
<path d="M102.018 48.9589L101.192 48.3959C100.91 48.809 100.977 49.3665 101.348 49.7013C101.719 50.0362 102.281 50.0456 102.663 49.7233L102.018 48.9589ZM113.889 45.4175L112.941 45.7369L113.889 45.4175ZM109.244 49.7689L109.101 50.7586L109.244 49.7689ZM102.845 49.5219C105.041 46.2986 107.489 44.6273 109.404 44.1635C110.355 43.933 111.13 44.0084 111.696 44.2699C112.246 44.5232 112.689 44.99 112.941 45.7369L114.836 45.0981C114.423 43.8711 113.621 42.9549 112.534 42.4537C111.465 41.9606 110.211 41.91 108.933 42.2197C106.388 42.836 103.567 44.9093 101.192 48.3959L102.845 49.5219ZM112.941 45.7369C113.329 46.8884 113.031 47.6533 112.489 48.1291C111.886 48.6572 110.799 48.9836 109.387 48.7792L109.101 50.7586C110.905 51.0199 112.641 50.655 113.807 49.6332C115.032 48.5591 115.449 46.9154 114.836 45.0981L112.941 45.7369ZM109.387 48.7792C108.814 48.6962 108.202 48.5287 107.543 48.3268C106.911 48.1331 106.198 47.895 105.537 47.7218C104.269 47.3893 102.638 47.1275 101.374 48.1945L102.663 49.7233C103.083 49.369 103.759 49.3231 105.03 49.6564C105.639 49.816 106.253 50.0233 106.957 50.239C107.634 50.4465 108.368 50.6525 109.101 50.7586L109.387 48.7792Z" fill="#E86D21"/>
</svg>
