<svg xmlns="http://www.w3.org/2000/svg" width="86" height="70" viewBox="0 0 86 70"><g transform="translate(6345 -3701)"><g transform="translate(-6777.519 65.044)"><path d="M472.5,3575.064H464.52v-9.253h48.042v9.253h-7.456" transform="translate(-13.022 81.144)" fill="none" stroke="#e86d21" stroke-linecap="round" stroke-linejoin="round" stroke-width="1.5"/><path d="M506.961,3612.758H470.535l5.714-43.586H500.9Z" transform="translate(-12.831 82.503)" fill="none" stroke="#e86d21" stroke-linecap="round" stroke-linejoin="round" stroke-width="1.5"/><path d="M494.654,3571.4h3.361l.448,3.026" transform="translate(-13.103 84.549)" fill="none" stroke="#e86d21" stroke-linecap="round" stroke-linejoin="round" stroke-width="1.5"/><path d="M482.145,3571.4h-3.361l-.448,3.026" transform="translate(-11.862 84.549)" fill="none" stroke="#e86d21" stroke-linecap="round" stroke-linejoin="round" stroke-width="1.5"/><path d="M476.647,3609.121h-3.361l.478-3.026" transform="translate(-11.087 82.019)" fill="none" stroke="#e86d21" stroke-linecap="round" stroke-linejoin="round" stroke-width="1.5"/><path d="M473.285,3609.121h3.362l-.478-3.026" transform="translate(12.933 82.019)" fill="none" stroke="#e86d21" stroke-linecap="round" stroke-linejoin="round" stroke-width="1.5"/><g transform="translate(466.473 3665.368)"><path d="M497.867,3588.462c.585,3.951-3.62,7.568-9.469,7.568s-9.968-3.616-9.291-7.568c.6-3.484,4.8-6.018,9.45-6.018S497.351,3584.978,497.867,3588.462Z" transform="translate(-479.035 -3582.445)" fill="#e86d21"/><g transform="translate(4.841 3.409)"><path d="M483.791,3587.917h2.394l.083-1.683h.578l-.065,1.683h1.055l.034-1.683h.579l-.016,1.437,4.319-1.923.054.8-3.234,1.358c-.409.159-.683.247-1.082.381v.035c.349.135.712.26,1.128.423l3.436,1.532.062.938-4.695-2.307-.015,1.56h-.621l.037-1.823h-1.068l-.07,1.823h-.621l.089-1.823h-2.424Z" transform="translate(-483.726 -3585.748)" fill="#fff"/></g></g></g><rect width="86" height="70" transform="translate(-6345 3701)" fill="none"/></g></svg>