<svg xmlns="http://www.w3.org/2000/svg" xmlns:xlink="http://www.w3.org/1999/xlink" width="70" height="70" viewBox="0 0 70 70"><defs><clipPath id="a"><rect width="70" height="70" transform="translate(812 937)" fill="#fff" stroke="#4f4d4d" stroke-width="1"/></clipPath></defs><g transform="translate(-812 -937)" clip-path="url(#a)"><g transform="translate(826.654 947.523)"><path d="M3873.953,3432.8v36.875a3.462,3.462,0,0,0,3.463,3.463h31.6a3.463,3.463,0,0,0,3.463-3.463v-41.74a3.463,3.463,0,0,0-3.463-3.462h-26.666" transform="translate(-3873.953 -3424.475)" fill="none" stroke="#e86d21" stroke-linecap="round" stroke-linejoin="round" stroke-width="2"/><path d="M3882.349,3424.475l-8.4,8.328h8.26Z" transform="translate(-3873.953 -3424.475)" fill="none" stroke="#e86d21" stroke-linecap="round" stroke-linejoin="round" stroke-width="2"/><line x2="27.421" transform="translate(5.823 13.338)" fill="none" stroke="#e86d21" stroke-linecap="round" stroke-linejoin="round" stroke-width="2"/><line x2="27.421" transform="translate(5.823 20.108)" fill="none" stroke="#e86d21" stroke-linecap="round" stroke-linejoin="round" stroke-width="2"/><line x2="27.421" transform="translate(5.823 26.999)" fill="none" stroke="#e86d21" stroke-linecap="round" stroke-linejoin="round" stroke-width="2"/><line x2="12.999" transform="translate(5.823 33.514)" fill="none" stroke="#e86d21" stroke-linecap="round" stroke-linejoin="round" stroke-width="2"/><line x2="11.171" transform="translate(5.823 40.352)" fill="none" stroke="#e86d21" stroke-linecap="round" stroke-linejoin="round" stroke-width="2"/><path d="M3918.077,3474.681l-4.083-4.082a9.505,9.505,0,1,0-3.164,3.157l4.085,4.086a2.235,2.235,0,0,0,3.161-3.161Z" transform="translate(-3874.339 -3425.019)" fill="#fff" stroke="#e86d21" stroke-linecap="round" stroke-linejoin="round" stroke-width="2"/><g transform="translate(27.659 36.085)"><g transform="translate(-3902.095 -3461.19)" fill="#e86d21" stroke-linecap="round" stroke-linejoin="round"><path d="M3905.535,3471.054v-2.594h-2.648v-.645h2.648v-1.143h-2.648v-.645h2.271l-3.063-4.837h1.3l2.123,3.6c.242.444.376.74.578,1.17h.054c.2-.376.389-.766.631-1.21l2.217-3.561h1.3l-3.28,4.837h2.245v.645h-2.634v1.143h2.634v.645h-2.634v2.594Z" stroke="none"/><path d="M 3906.63671875 3471.05419921875 L 3905.53515625 3471.05419921875 L 3905.53515625 3468.460205078125 L 3902.88720703125 3468.460205078125 L 3902.88720703125 3467.815673828125 L 3905.53515625 3467.815673828125 L 3905.53515625 3466.6728515625 L 3902.88720703125 3466.6728515625 L 3902.88720703125 3466.02783203125 L 3905.15869140625 3466.02783203125 L 3902.09521484375 3461.1904296875 L 3903.3984375 3461.1904296875 L 3905.521484375 3464.79150390625 C 3905.76318359375 3465.23583984375 3905.89794921875 3465.531494140625 3906.09912109375 3465.961181640625 L 3906.153564453125 3465.961181640625 C 3906.354736328125 3465.584716796875 3906.542724609375 3465.195556640625 3906.784423828125 3464.751220703125 L 3909.001708984375 3461.1904296875 L 3910.305908203125 3461.1904296875 L 3907.02587890625 3466.02783203125 L 3909.27099609375 3466.02783203125 L 3909.27099609375 3466.6728515625 L 3906.63671875 3466.6728515625 L 3906.63671875 3467.815673828125 L 3909.27099609375 3467.815673828125 L 3909.27099609375 3468.460205078125 L 3906.63671875 3468.460205078125 L 3906.63671875 3471.05419921875 Z" stroke="none" fill="#e86d21"/></g></g></g></g></svg>