<svg xmlns="http://www.w3.org/2000/svg" xmlns:xlink="http://www.w3.org/1999/xlink" width="70" height="70" viewBox="0 0 70 70"><defs><clipPath id="a"><rect width="70" height="70" transform="translate(812 937)" fill="#fff" stroke="#4f4d4d" stroke-width="1"/></clipPath></defs><g transform="translate(-812 -937)" clip-path="url(#a)"><g transform="translate(816.353 945.712)"><path d="M3914.84,3377.981a26.286,26.286,0,1,1,8.393-22.943" transform="translate(-3870.885 -3332.227)" fill="none" stroke="#e86d21" stroke-linecap="round" stroke-linejoin="round" stroke-width="2"/><path d="M3923.148,3366.935v-8.672a1.2,1.2,0,0,0-1.2-1.2h-5.074a1.2,1.2,0,0,0-1.205,1.2v8.672h-3.588a1.2,1.2,0,0,0-1.021,1.844l7.221,11.515a1.2,1.2,0,0,0,2.034.012l7.408-11.515a1.2,1.2,0,0,0-1.012-1.857Z" transform="translate(-3866.621 -3329.579)" fill="none" stroke="#e86d21" stroke-linecap="round" stroke-linejoin="round" stroke-width="2"/><g transform="translate(16.795 16.212)"><path d="M3893.921,3369.412v-5.925h-6.047v-1.474h6.047V3359.4h-6.047v-1.474h5.188l-7-11.052h2.978l4.85,8.229c.553,1.013.86,1.688,1.32,2.671h.123c.46-.86.89-1.751,1.443-2.763l5.065-8.136h2.978l-7.491,11.052h5.127v1.474h-6.018v2.609h6.018v1.474h-6.018v5.925Z" transform="translate(-3886.061 -3346.877)" fill="#e86d21" stroke="#e86d21" stroke-linecap="round" stroke-linejoin="round" stroke-width="2"/></g></g></g></svg>