<svg xmlns="http://www.w3.org/2000/svg" width="38" height="38" viewBox="0 0 38 38"><g transform="translate(-1427 -655)"><rect width="38" height="38" rx="5" transform="translate(1427 655)" fill="#1d9bf0"/><path d="M104.984,26.083c.014.21.014.419.014.63A13.772,13.772,0,0,1,91.132,40.58v0a13.8,13.8,0,0,1-7.471-2.184,9.954,9.954,0,0,0,1.16.071,9.785,9.785,0,0,0,6.053-2.091,4.878,4.878,0,0,1-4.553-3.384,4.864,4.864,0,0,0,2.2-.084,4.874,4.874,0,0,1-3.909-4.777v-.062a4.843,4.843,0,0,0,2.212.61,4.88,4.88,0,0,1-1.508-6.507,13.832,13.832,0,0,0,10.044,5.092,4.878,4.878,0,0,1,8.3-4.445,9.775,9.775,0,0,0,3.095-1.183,4.89,4.89,0,0,1-2.142,2.7,9.709,9.709,0,0,0,2.8-.767,9.9,9.9,0,0,1-2.432,2.524" transform="translate(1350.461 643.896)" fill="#fff"/></g></svg>