<svg xmlns="http://www.w3.org/2000/svg" xmlns:xlink="http://www.w3.org/1999/xlink" width="60" height="65.323" viewBox="0 0 60 65.323"><defs><clipPath id="a"><rect width="60" height="65.323" fill="#3e3a39"/></clipPath></defs><g clip-path="url(#a)"><path d="M57.057,44.659a3.524,3.524,0,0,0-1.8.489,3.589,3.589,0,0,0-.7.539l-.02.02L41.151,58.222a4.68,4.68,0,0,1-4.6,3.86h-.2l-15.108-.668a.743.743,0,1,1,.071-1.485l15.108.667a3.191,3.191,0,0,0,3.3-2.792v-.777a3.194,3.194,0,0,0-2.893-2.787h-.02l-21.48-2.361a11.933,11.933,0,0,0-9.783,3.44L4.1,56.765,16.978,69.64l19.764.528A7.387,7.387,0,0,0,42.257,68L59.57,50.692a3.54,3.54,0,0,0-2.512-6.033" transform="translate(-0.601 -6.546)" fill="#3e3a39" fill-rule="evenodd"/><path d="M.82,65.639l7.668,7.668a2.8,2.8,0,0,0,3.171.553l3.116-1.465L2.439,60.059.82,61.68a2.8,2.8,0,0,0,0,3.959" transform="translate(0 -8.804)" fill="#3e3a39" fill-rule="evenodd"/><path d="M47.262,56.181,59.7,44.551a.431.431,0,0,1,.07-.061,3.519,3.519,0,0,0-3.849.768l-.02.02-9.634,9a4.633,4.633,0,0,1,1,1.9" transform="translate(-6.781 -6.482)" fill="#3e3a39" fill-rule="evenodd"/><path d="M43.3,17.072,40.61,1.274A1.529,1.529,0,0,0,39.1,0H19.411A1.528,1.528,0,0,0,17.9,1.274l-2.687,15.8-.133,19.84a.708.708,0,0,0,.684.665l5.08,1.237c.868,0,2.338.7,2.338,1.571v4.173l12.144,1.284V40.384c0-.868,1.468-1.571,2.337-1.571l5.08-1.237a.708.708,0,0,0,.684-.665ZM35.33,30.5H23.186V17.633h1.148l1,9.407a.764.764,0,0,0,.76.684h6.332a.767.767,0,0,0,.76-.684l1-9.406H35.33ZM29.258,14.111A2.961,2.961,0,1,1,26.3,17.072a2.961,2.961,0,0,1,2.961-2.961ZM36.1,8.149a.764.764,0,0,0-.766.762v7.153H34.182L33.039,6.527a.766.766,0,0,0-.76-.674H31.164v-1.4H27.358v1.4H26.095a.764.764,0,0,0-.76.685l-1,9.526H23.189V8.913a.765.765,0,0,0-.765-.765l-1.569.026.575-5.4a.918.918,0,0,1,.913-.821H36.178a.919.919,0,0,1,.912.82l.572,5.373Z" transform="translate(-2.211 0)" fill="#3e3a39"/></g></svg>