<svg xmlns="http://www.w3.org/2000/svg" xmlns:xlink="http://www.w3.org/1999/xlink" width="41" height="41" viewBox="0 0 41 41"><defs><clipPath id="a"><rect width="41" height="41" transform="translate(0 0)" fill="#3e3a39"/></clipPath></defs><g transform="translate(0 0)" clip-path="url(#a)"><path d="M27.826,19.115,26.317,10.24a.859.859,0,0,0-.847-.716H14.408a.859.859,0,0,0-.847.716l-1.509,8.875L11.977,30.26a.4.4,0,0,0,.384.373l2.854.695c.487,0,1.313.395,1.313.883v3.066h6.822V32.211c0-.487.825-.883,1.312-.883l2.854-.695a.4.4,0,0,0,.384-.373Zm-4.475,7.546H16.529V19.43h.645l.56,5.285a.43.43,0,0,0,.427.384h3.557a.431.431,0,0,0,.427-.384l.56-5.285h.645ZM19.94,17.452a1.663,1.663,0,1,1-1.663,1.663,1.663,1.663,0,0,1,1.663-1.663ZM23.781,14.1a.429.429,0,0,0-.43.428v4.018h-.645l-.642-5.357a.43.43,0,0,0-.427-.379h-.626v-.786H18.872v.786h-.709a.43.43,0,0,0-.427.385l-.561,5.351H16.53V14.532a.429.429,0,0,0-.429-.43l-.881.015.322-3.032a.515.515,0,0,1,.513-.461h7.772a.515.515,0,0,1,.512.46l.322,3.018Z" transform="translate(-2.305 -1.996)" fill="#3e3a39"/><path d="M17.452,34.9A17.452,17.452,0,1,1,34.9,17.452,17.472,17.472,0,0,1,17.452,34.9m0-32.528A15.075,15.075,0,1,0,32.527,17.452,15.092,15.092,0,0,0,17.452,2.377" transform="translate(0.182 -0.019)" fill="#3e3a39"/><path d="M40.233,41.026a.79.79,0,0,1-.56-.232L36.12,37.241a.792.792,0,0,1,1.12-1.12l3.553,3.553a.792.792,0,0,1-.56,1.353" transform="translate(-7.27 -7.47)" fill="#3e3a39"/><path d="M47.13,49.506a2.369,2.369,0,0,1-1.681-.7l-4.321-4.32a2.377,2.377,0,0,1,3.361-3.361l4.321,4.32a2.377,2.377,0,0,1-1.681,4.058" transform="translate(-8.213 -8.414)" fill="#3e3a39"/></g></svg>