<svg xmlns="http://www.w3.org/2000/svg" xmlns:xlink="http://www.w3.org/1999/xlink" width="56" height="56" viewBox="0 0 56 56"><defs><clipPath id="a"><rect width="54.742" height="55.142" fill="#fff"/></clipPath></defs><g transform="translate(23258 -3732)"><g transform="translate(-23257 3732)"><g transform="translate(0 0)" clip-path="url(#a)"><path d="M130.658,89.643h-4.229a21.084,21.084,0,0,0-2.088-4.986l3.015-3.015a1.788,1.788,0,0,0,.082-2.527c-.026-.028-.054-.056-.082-.082l-5.744-5.742a1.788,1.788,0,0,0-2.527-.082c-.029.026-.056.054-.082.082l-3.015,3.015A21.99,21.99,0,0,0,111,74.274V70.045a1.832,1.832,0,0,0-1.809-1.856h-8.107A1.832,1.832,0,0,0,99.232,70v4.276a20.1,20.1,0,0,0-4.986,2.088L91.23,73.408a1.788,1.788,0,0,0-2.527-.083c-.028.027-.056.054-.082.083l-5.742,5.74a1.789,1.789,0,0,0-.081,2.528q.039.042.081.081L85.9,84.772a25.154,25.154,0,0,0-2.088,4.987H79.63a1.906,1.906,0,0,0-1.855,1.855v8.118a1.819,1.819,0,0,0,1.841,1.8h4.243a22.162,22.162,0,0,0,2.088,4.986l-3.009,3.015a1.789,1.789,0,0,0-.081,2.528q.039.042.081.081l5.741,5.74a1.787,1.787,0,0,0,2.527.083c.028-.026.056-.054.082-.083l3.016-3.017a20.388,20.388,0,0,0,3.247,1.45v-9.855a13.278,13.278,0,1,1,15.307,0v9.915a21.377,21.377,0,0,0,3.306-1.511l2.9,2.9a1.788,1.788,0,0,0,2.527.082c.029-.026.056-.054.083-.082l5.741-5.741a1.788,1.788,0,0,0,.082-2.527c-.026-.029-.054-.056-.082-.082l-2.957-3.015a21.968,21.968,0,0,0,2.03-4.986h4.175a1.832,1.832,0,0,0,1.855-1.809.438.438,0,0,0,0-.046V91.441a1.781,1.781,0,0,0-1.763-1.8c-.031,0-.061,0-.092,0" transform="translate(-77.774 -68.19)" fill="#fff"/><path d="M117.927,100.85a7.806,7.806,0,0,0-3.363-6.436.84.84,0,0,0-1.154.282.854.854,0,0,0-.122.413v3.885a3.073,3.073,0,0,1-6.145,0V95.168a.84.84,0,0,0-1.276-.7,7.881,7.881,0,0,0-3.362,6.433,7.783,7.783,0,0,0,4.349,6.958v17.455a3.363,3.363,0,0,0,6.726,0V107.806a7.785,7.785,0,0,0,4.35-6.958" transform="translate(-82.843 -73.54)" fill="#fff"/></g></g><rect width="56" height="56" transform="translate(-23258 3732)" fill="none"/></g></svg>