<svg xmlns="http://www.w3.org/2000/svg" xmlns:xlink="http://www.w3.org/1999/xlink" width="56" height="56" viewBox="0 0 56 56"><defs><clipPath id="a"><rect width="56" height="56" transform="translate(0 0)" fill="#fff"/></clipPath></defs><g transform="translate(0 0)" clip-path="url(#a)"><path d="M33.4,22.485,31.357,10.492a1.161,1.161,0,0,0-1.145-.968H15.262a1.161,1.161,0,0,0-1.145.968l-2.04,11.993-.1,15.062a.538.538,0,0,0,.519.5l3.857.939c.659,0,1.774.533,1.774,1.193v4.143h9.22V40.184c0-.659,1.115-1.193,1.773-1.193l3.857-.939a.538.538,0,0,0,.519-.5Zm-6.047,10.2h-9.22V22.912H19l.757,7.142a.581.581,0,0,0,.577.519h4.807a.582.582,0,0,0,.577-.519l.757-7.142h.872Zm-4.61-12.445a2.248,2.248,0,1,1-2.248,2.248,2.247,2.247,0,0,1,2.248-2.248Zm5.19-4.526a.58.58,0,0,0-.581.578v5.43h-.872l-.867-7.24a.581.581,0,0,0-.577-.512h-.846V12.906H21.3v1.062h-.958a.581.581,0,0,0-.577.52L19,21.72H18.13V16.292a.58.58,0,0,0-.58-.581l-1.191.02.436-4.1a.7.7,0,0,1,.694-.623h10.5a.7.7,0,0,1,.692.622l.435,4.079Z" transform="translate(0.848 0.675)" fill="#fff"/><path d="M23.585,47.171A23.586,23.586,0,1,1,47.17,23.585,23.612,23.612,0,0,1,23.585,47.171m0-43.959A20.373,20.373,0,1,0,43.958,23.585,20.4,20.4,0,0,0,23.585,3.212" transform="translate(0 0)" fill="#fff"/><path d="M41.76,42.831A1.068,1.068,0,0,1,41,42.518l-4.8-4.8A1.071,1.071,0,0,1,37.716,36.2l4.8,4.8a1.071,1.071,0,0,1-.757,1.828" transform="translate(2.542 2.542)" fill="#fff"/><path d="M49.484,52.7a3.2,3.2,0,0,1-2.271-.941l-5.839-5.838a3.212,3.212,0,0,1,4.542-4.542l5.839,5.838A3.213,3.213,0,0,1,49.484,52.7" transform="translate(2.864 2.864)" fill="#fff"/></g></svg>