<svg xmlns="http://www.w3.org/2000/svg" xmlns:xlink="http://www.w3.org/1999/xlink" width="16" height="16" viewBox="0 0 16 16"><defs><clipPath id="a"><rect width="16" height="16" transform="translate(-2067 53)" fill="#fff" stroke="#4f4d4d" stroke-width="1"/></clipPath></defs><g transform="translate(2067 -53)" clip-path="url(#a)"><path d="M6.158,5.239A3.159,3.159,0,1,0,9.317,8.4,3.154,3.154,0,0,0,6.158,5.239Zm0,5.213A2.054,2.054,0,1,1,8.212,8.4,2.058,2.058,0,0,1,6.158,10.452ZM10.183,5.11a.737.737,0,1,1-.737-.737A.735.735,0,0,1,10.183,5.11Zm2.092.748a3.646,3.646,0,0,0-1-2.582,3.67,3.67,0,0,0-2.582-1c-1.017-.058-4.066-.058-5.084,0a3.665,3.665,0,0,0-2.582.993,3.658,3.658,0,0,0-1,2.582c-.058,1.017-.058,4.066,0,5.084a3.646,3.646,0,0,0,1,2.582,3.675,3.675,0,0,0,2.582,1c1.017.058,4.066.058,5.084,0a3.646,3.646,0,0,0,2.582-1,3.67,3.67,0,0,0,1-2.582c.058-1.017.058-4.064,0-5.081Zm-1.314,6.172A2.079,2.079,0,0,1,9.79,13.2a13.579,13.579,0,0,1-3.632.247A13.685,13.685,0,0,1,2.526,13.2a2.079,2.079,0,0,1-1.171-1.171A13.579,13.579,0,0,1,1.108,8.4a13.685,13.685,0,0,1,.247-3.632A2.079,2.079,0,0,1,2.526,3.6a13.579,13.579,0,0,1,3.632-.247A13.685,13.685,0,0,1,9.79,3.6a2.079,2.079,0,0,1,1.171,1.171A13.579,13.579,0,0,1,11.209,8.4,13.572,13.572,0,0,1,10.962,12.031Z" transform="translate(-2065.157 52.602)" fill="#fff"/></g></svg>