<svg xmlns="http://www.w3.org/2000/svg" xmlns:xlink="http://www.w3.org/1999/xlink" width="190" height="39" viewBox="0 0 190 39"><defs><clipPath id="a"><rect width="190" height="39" transform="translate(-23715 3801)" fill="none" stroke="#4f4d4d" stroke-width="1"/></clipPath><clipPath id="b"><rect width="188.991" height="36.579" fill="none"/></clipPath><clipPath id="c"><path d="M.27,1.064a1.468,1.468,0,0,0,1,1.816L5.393,4.047V25.714a1.491,1.491,0,0,0,1.232,1.459L23.265,29.93c.065,0,.16.032.227.032A1.5,1.5,0,0,0,24.983,28.5V13.259H28a1.47,1.47,0,0,0,1.394-1.006l.032-.13v7.557a1.46,1.46,0,1,0,2.919,0V2.978a1.353,1.353,0,0,0-1.167-1.459,1.46,1.46,0,0,0-1.621,1.006l-2.564,7.784H23.556a1.481,1.481,0,0,0-1.492,1.459v6.651l-6.779-1.1a1.477,1.477,0,0,0-.454,2.919L22.063,21.4v5.352L8.377,24.481V10.761L17.1,12.188c.065,0,.16.032.228.032a1.453,1.453,0,0,0,1.427-1.479v-.013a1.524,1.524,0,0,0-1.2-1.427L8.34,7.779V2.945A1.459,1.459,0,0,0,7.275,1.551L2.086.058A1.434,1.434,0,0,0,1.678,0,1.473,1.473,0,0,0,.27,1.064" transform="translate(-0.212)" fill="#fff"/></clipPath><clipPath id="d"><path d="M9.026,39.332a2.951,2.951,0,1,0,2.951-2.951,2.951,2.951,0,0,0-2.951,2.951" transform="translate(-9.026 -36.381)" fill="#fff"/></clipPath><clipPath id="e"><path d="M19.712,41.234a2.951,2.951,0,1,0,2.951-2.951,2.951,2.951,0,0,0-2.951,2.951" transform="translate(-19.712 -38.283)" fill="#fff"/></clipPath><clipPath id="f"><path d="M48.294,13.385a.687.687,0,0,0-.6.361h0l-3.146,5.482a.756.756,0,0,0-.032.649A.788.788,0,0,0,45,20.3l1.816.486a14.938,14.938,0,0,1-1.849,5.74,15.242,15.242,0,0,1-11.612,7.4l-.321.032a.755.755,0,0,0-.649.811l.129,1.522a.755.755,0,0,0,.811.649l.321-.032a18.094,18.094,0,0,0,13.721-8.626,17.682,17.682,0,0,0,2.368-7.427c0-.032.065-.616.065-.876l.032-.843a17.734,17.734,0,0,0-.811-5.222.854.854,0,0,0-.519-.486.119.119,0,0,0-.1-.032.8.8,0,0,0-.088,0h-.021" transform="translate(-32.382 -13.385)" fill="#fff"/></clipPath></defs><g transform="translate(23715 -3801)" clip-path="url(#a)"><g transform="translate(-23715.08 3811.421)" clip-path="url(#b)"><path d="M231.976,11.941a2.595,2.595,0,1,1,2.595-2.595,2.595,2.595,0,0,1-2.595,2.595m0-4.865a2.27,2.27,0,1,0,2.27,2.27,2.27,2.27,0,0,0-2.27-2.27m.844,3.99-.844-1.493h-.518v1.492h-.486V7.725h1.071a.921.921,0,0,1,1.034.791.763.763,0,0,1,.007.085.967.967,0,0,1-.616.876l.941,1.557h-.584Zm-.811-1.913a.531.531,0,0,0,.582-.474.41.41,0,0,0,0-.045.47.47,0,0,0-.45-.489.507.507,0,0,0-.07,0h-.616V9.152Z" transform="translate(-45.579 -1.342)" fill="#fff"/></g><g transform="translate(-23714.91 3803.857)"><path d="M69.121,20.418H75.8a10.266,10.266,0,0,1-2.465,6.13,7.168,7.168,0,0,1-5.32,2.011,7.028,7.028,0,0,1-5.128-1.913,6.576,6.576,0,0,1-1.978-4.994,8.323,8.323,0,0,1,2.465-6.065,8.2,8.2,0,0,1,5.935-2.238,7.056,7.056,0,0,1,3.86,1.042,6.606,6.606,0,0,1,2.173,2.27L72.779,18.12a3.964,3.964,0,0,0-1.459-1.557,4.641,4.641,0,0,0-2.367-.649,4.886,4.886,0,0,0-3.567,1.427,6.021,6.021,0,0,0-1.59,4.184A4.527,4.527,0,0,0,65.061,24.8,4.276,4.276,0,0,0,68.174,26a4.224,4.224,0,0,0,2.951-.973,5.049,5.049,0,0,0,1.362-2.108h-3.73Z" transform="translate(-12.102 -2.651)" fill="#fff"/><path d="M92.5,16.178H87.239l-.385,3.24h5.027l-.321,2.433H86.533l-.454,3.99H91.3l-.321,2.433H82.9L84.68,13.711h8.076Z" transform="translate(-16.472 -2.724)" fill="#fff"/><path d="M111.826,15.181a6.525,6.525,0,0,1,1.913,4.865,8.9,8.9,0,0,1-2.336,6.1,8.186,8.186,0,0,1-6.065,2.368,7.134,7.134,0,0,1-5.352-2.043,6.845,6.845,0,0,1-1.913-4.833,8.484,8.484,0,0,1,2.5-6.065,9.161,9.161,0,0,1,6.195-2.3,7.672,7.672,0,0,1,5.059,1.913m-2.756,9.34a6.1,6.1,0,0,0,1.719-4.247,4.36,4.36,0,0,0-1.167-3.081,4.469,4.469,0,0,0-3.308-1.266,5.265,5.265,0,0,0-3.633,1.4A5.7,5.7,0,0,0,101,21.475a4.452,4.452,0,0,0,1.167,3.179,4.525,4.525,0,0,0,3.309,1.33,5.431,5.431,0,0,0,3.6-1.459" transform="translate(-19.488 -2.636)" fill="#fff"/><path d="M124.724,13.754h2.043L129.46,23l5.189-9.244h2.043l.649,14.563h-2.855l-.227-8.984-5.027,8.952h-.876L125.7,19.3l-2.564,8.984h-2.918Z" transform="translate(-23.887 -2.733)" fill="#fff"/><path d="M154.851,25.228h-5.87l-1.654,3.045h-3.149l8.141-14.559h2.14l4.313,14.563h-2.984Zm-.551-2.3L152.9,17.7l-2.757,5.222Z" transform="translate(-28.649 -2.725)" fill="#fff"/><path d="M171.866,13.746a4.869,4.869,0,0,1,3.632,1.265A3.837,3.837,0,0,1,176.54,17.8a4.35,4.35,0,0,1-1.2,3.146,5.189,5.189,0,0,1-2.692,1.265l3.7,6.065h-3.405l-3.179-5.838H169.4l-.714,5.838h-2.855l1.784-14.563h4.247Zm-2.205,6.681h1.006a3.335,3.335,0,0,0,2.27-.778A2.274,2.274,0,0,0,173.586,18,1.8,1.8,0,0,0,173,16.568a2.876,2.876,0,0,0-1.881-.551h-.908Z" transform="translate(-32.952 -2.725)" fill="#fff"/><path d="M186.8,19.559l5.968-5.805h3.309L189.1,20.533l5.514,7.784h-3.405l-4.184-6.325-.551.519-.746,5.805h-2.857l1.784-14.563h2.854Z" transform="translate(-36.338 -2.733)" fill="#fff"/><path d="M210.656,16.178H205.4l-.389,3.24h5.027l-.292,2.433h-5.027l-.486,3.99h5.222l-.292,2.433h-8.076l1.784-14.563h8.076Z" transform="translate(-39.957 -2.724)" fill="#fff"/><path d="M222.843,16.179l-1.492,12.1H218.5l1.492-12.13h-3.276l.321-2.433h9.375l-.32,2.433Z" transform="translate(-43.062 -2.725)" fill="#fff"/><path d="M62.125,4.49c-.292-.227-.811-.616-1.167-.843l.421-.616a7.041,7.041,0,0,1,1.2.811ZM60.958,7.182a8.146,8.146,0,0,0,1.1-2.335l.584.421a6.7,6.7,0,0,1-1.1,2.368ZM62.32,2.935a9.805,9.805,0,0,0-1.2-.908l.454-.584c.389.26.973.681,1.2.876Zm2.53,4.9a6.463,6.463,0,0,0-.714-1.042l.519-.321H63.3l.551.321a3.412,3.412,0,0,1-.94,1.1l-.519-.551a2.422,2.422,0,0,0,.844-.876h-.389V1.6h2.173V6.468h-.357c.227.26.519.616.746.908Zm-.421-5.547h-.876v.741h.876Zm0,1.33h-.876V4.39h.876Zm0,1.362h-.876V5.82h.876ZM65.466,1.9h.649V6.242h-.649Zm.195,5.254c.843,0,.908,0,.908-.357V1.409h.714V6.826c0,.876-.16,1.042-1.33,1.071Z" transform="translate(-12.113 -0.28)" fill="#fff"/><path d="M71,7.7V7.181h2.757V6.889H71.321V6.435h2.433V6.143H71.58V4.489H76.7V6.172H74.5v.26h2.465v.454H74.5v.292h2.789V7.7Zm.032-3.99h6.228V4.2H71.028Zm.519-1.978h5.128V3.451H71.547Zm2.205,3.114H72.326v.292h1.427Zm0,.616H72.326v.292h1.427Zm2.108-3.309h-3.5v.26h3.5Zm0,.649h-3.5v.292h3.5Zm.065,2.043H74.466v.292h1.459Zm0,.616H74.466v.292h1.459Z" transform="translate(-14.107 -0.344)" fill="#fff"/><path d="M87.261,6.728C87,7.539,86.742,7.9,86.418,7.9c-.292,0-.616-.26-.875-.746A5.214,5.214,0,0,1,84.31,7.9l-.421-.584a4.447,4.447,0,0,0,1.394-.746A7.223,7.223,0,0,1,84.926,5.3h-.811a.712.712,0,0,1-.032.26,9.935,9.935,0,0,1,.843.713l-.389.551a5.116,5.116,0,0,0-.584-.616A3.548,3.548,0,0,1,83.142,7.8l-.454-.616a2.96,2.96,0,0,0,.778-1.849h-.421V4.718h1.784L84.8,4.426l-.357.13a.894.894,0,0,0-.032-.292,7.413,7.413,0,0,1-1.362.16V4.39l-.292.746a5.8,5.8,0,0,1-.421-1.2V7.891h-.681V4.328a7.134,7.134,0,0,1-.584,1.881l-.357-.973a8.34,8.34,0,0,0,.843-1.946H80.9V2.609h.713v-1.2H82.3v1.2h.518v.681h-.488a4.407,4.407,0,0,0,.649,1.042l-.1-.454h.26c.13-.16.227-.321.357-.486-.227-.321-.454-.616-.649-.843l.292-.519a.869.869,0,0,0,.16.195,5.574,5.574,0,0,0,.321-.778l.486.195a5.731,5.731,0,0,1-.486,1.006l.16.26c.13-.26.26-.486.357-.713l.389.292c0-.357-.032-.681-.032-1.042h.649a8.986,8.986,0,0,0,.032.941l.227-.357a.581.581,0,0,1,.16.227,5.573,5.573,0,0,0,.321-.778l.486.195a4.832,4.832,0,0,1-.486,1.006l.195.292c.13-.26.26-.486.357-.713l.421.26a9.976,9.976,0,0,1-.811,1.362,2.483,2.483,0,0,0,.486-.065c-.032-.13-.032-.26-.065-.357l.389-.13c.1.321.16.811.227,1.135l-.454.13A.9.9,0,0,0,86.6,4.3c-.13.032-.259.032-.389.065a2.249,2.249,0,0,1,.16.421h.616V5.4H85.446a4.889,4.889,0,0,0,.227.811,2.815,2.815,0,0,0,.519-.746l.518.321a5.933,5.933,0,0,1-.776,1.006c.16.292.292.454.357.454.13,0,.228-.227.389-.908ZM84.733,3.485c-.033-.321-.033-.681-.065-1.042a12.478,12.478,0,0,1-.811,1.362,2.832,2.832,0,0,0,.519-.065c-.032-.13-.032-.227-.065-.321l.389-.13Zm.875.321a5.457,5.457,0,0,0,.321-.454c-.195-.26-.421-.519-.616-.746.032.389.032.811.1,1.2Zm.422.908c-.033-.13-.1-.26-.13-.357-.16,0-.292.032-.421.032l.032.321Z" transform="translate(-16.038 -0.28)" fill="#fff"/><path d="M95.947,7.936V7.644H94.876v.292h-.681V5.6h1.589a5.6,5.6,0,0,1-1.492-.941h-.551a4.181,4.181,0,0,1-1.362.941H93.77V7.644H92.051v.292h-.713V6.054l-.321.1-.227-.713a4.472,4.472,0,0,0,2.076-.778H90.921V4.011h2.465a1.709,1.709,0,0,0,.16-.486H91.308V1.611h2.433V3.363l.486.065V1.611h2.5V3.524h-2.4a2.811,2.811,0,0,1-.16.486h2.984V4.66H95.231a7.234,7.234,0,0,0,2.043.746l-.195.713-.389-.1V7.936ZM93,2.227H91.954v.746H93Zm.032,3.926H91.986V7.06h1.042Zm2.919,0H94.876V7.06h1.071Zm.032-3.926h-1.1v.746h1.1Z" transform="translate(-18.041 -0.32)" fill="#fff"/><path d="M101.7,7.9V5.237l-.942.035-.1-.649h.519c.16-.195.321-.454.486-.681a9.452,9.452,0,0,0-1.006-.973l.357-.616.26.227a5.477,5.477,0,0,0,.551-1.167l.616.26a11.267,11.267,0,0,1-.714,1.4c.1.1.195.227.292.321a11.733,11.733,0,0,0,.584-1.042l.584.321a12.206,12.206,0,0,1-1.265,1.913c.227,0,.486-.032.681-.032l-.13-.421.486-.195c.16.454.357,1.042.454,1.427l-.519.195-.1-.389a1.859,1.859,0,0,1-.421.032V7.92H101.7Zm-1.042-.519a10.577,10.577,0,0,0,.26-1.849l.551.1a9.114,9.114,0,0,1-.26,1.946Zm2.465-.13c0-.032.032-.065.032-.1l-.454.1c-.032-.486-.1-1.1-.16-1.522l.486-.13a9.52,9.52,0,0,1,.195,1.427,7.806,7.806,0,0,0,.292-1.459l.551.195a8.253,8.253,0,0,1-.357,1.784Zm.032-4.313a3.352,3.352,0,0,0,1.172-1.428l.584.321a4.965,4.965,0,0,1-1.33,1.683Zm3.114,2.238c-.065-.16-.16-.357-.26-.584a22.045,22.045,0,0,1-2.564.292l-.1-.681h.584a6.056,6.056,0,0,0,.817-1.651l.681.227a5.994,5.994,0,0,1-.778,1.362,9.889,9.889,0,0,0,1.042-.13,4.748,4.748,0,0,0-.321-.584l.519-.292a12.117,12.117,0,0,1,.9,1.652ZM104.847,7.7c-.486,0-.681-.16-.681-.584V5.464h.649V6.826c0,.16.032.227.227.227h.292c.292,0,.321-.032.357-.746l.616.292c-.1,1.006-.26,1.1-.746,1.1h-.713m.486-1.622a6.827,6.827,0,0,0-.713-.973l.551-.357a7.879,7.879,0,0,1,.746.941ZM106.7,3.515a5.548,5.548,0,0,1-1.362-1.683l.584-.321A4.409,4.409,0,0,0,107.215,3Zm-.16,3.957a12.487,12.487,0,0,0-.519-1.683l.551-.321a14.211,14.211,0,0,1,.584,1.654Z" transform="translate(-20.002 -0.281)" fill="#fff"/><path d="M116.818,4.069a6.729,6.729,0,0,1-1.1-.486V4.2h-3.73V3.55a6.7,6.7,0,0,1-1.2.519l-.321-.746a5.333,5.333,0,0,0,2.919-1.913h.746a5.947,5.947,0,0,0,2.951,1.913Zm-1.3,3.827V7.539h-3.373V7.9h-.714V4.88h4.8V7.925Zm.032-4.378a6.624,6.624,0,0,1-1.784-1.459,6.311,6.311,0,0,1-1.719,1.459Zm-.032,2.043h-3.373v1.3h3.373Z" transform="translate(-21.95 -0.28)" fill="#fff"/><path d="M124.5,7.894a13.581,13.581,0,0,0-3.016-2.951l.616-.486a11.363,11.363,0,0,1,1.459,1.167A4.883,4.883,0,0,0,125.6,3.256l-4.9.032V2.542h6a5.608,5.608,0,0,1-2.564,3.665,14.55,14.55,0,0,1,1.042,1.135Z" transform="translate(-23.984 -0.505)" fill="#fff"/><rect width="5.968" height="0.778" transform="translate(103.885 3.983)" fill="#fff"/><path d="M143.838,3.614a4.217,4.217,0,0,1-3.406,4.281l-.584-.681a3.536,3.536,0,0,0,3.146-3.6H141.08a4.123,4.123,0,0,1-1.33,1.557l-.713-.486a4.077,4.077,0,0,0,1.784-2.951l.843.1A6.457,6.457,0,0,1,141.4,2.9h4.022v.746h-1.589Z" transform="translate(-27.627 -0.344)" fill="#fff"/><path d="M149.74,5.767a13.394,13.394,0,0,0-.584-1.946l.681-.16a11.2,11.2,0,0,1,.616,1.849Zm3.99-2.205c-.26,2.335-.941,3.795-3.535,4.541-.032-.032-.584-.616-.584-.616,2.205-.551,3.179-1.589,3.341-4.055Zm-2.5,1.978a8.3,8.3,0,0,0-.486-1.913l.713-.13a11.888,11.888,0,0,1,.486,1.849Z" transform="translate(-29.638 -0.682)" fill="#fff"/><path d="M162.036,5.738a24.315,24.315,0,0,0-3.7-1.459V7.814h-.844V1.651h.843V3.468a34.262,34.262,0,0,1,4.055,1.427Z" transform="translate(-31.295 -0.328)" fill="#fff"/></g><g transform="translate(-23778.586 3760)"><g transform="translate(63.676 41.421)" clip-path="url(#c)"><rect width="32.363" height="29.962" transform="translate(-0.166 0)" fill="#fff"/></g><g transform="translate(70.738 70.573)" clip-path="url(#d)"><rect width="5.902" height="5.902" transform="translate(0 0)" fill="#fff"/></g><g transform="translate(79.301 72.097)" clip-path="url(#e)"><rect width="5.902" height="5.902" transform="translate(0 0)" fill="#fff"/></g><g transform="translate(89.453 52.146)" clip-path="url(#f)"><rect width="17.479" height="23.583" transform="translate(-0.031 0)" fill="#fff"/></g></g></g></svg>