<svg xmlns="http://www.w3.org/2000/svg" width="56" height="56" viewBox="0 0 56 56"><g transform="translate(23350 -3730)"><g transform="translate(-24009.873 3313.296)"><path d="M124.157,117.125l10.5-9.818a.364.364,0,0,1,.059-.051,2.971,2.971,0,0,0-3.249.648l-.017.017-8.133,7.6a3.911,3.911,0,0,1,.842,1.605" transform="translate(572.649 341.535)" fill="#fff" fill-rule="evenodd"/><path d="M77.742,127.577l6.473,6.473a2.363,2.363,0,0,0,2.677.467l2.63-1.237L79.109,122.867l-1.367,1.368a2.363,2.363,0,0,0,0,3.342" transform="translate(585.822 337.107)" fill="#fff" fill-rule="evenodd"/><g transform="translate(665.83 416.704)"><path d="M125.856,107.467a2.975,2.975,0,0,0-1.516.413,3.029,3.029,0,0,0-.589.455l-.017.017-11.306,10.566a3.951,3.951,0,0,1-3.881,3.259h-.168l-12.754-.564a.627.627,0,1,1,.06-1.254l12.754.563a2.694,2.694,0,0,0,2.786-2.357v-.656a2.7,2.7,0,0,0-2.442-2.353h-.017l-18.133-1.993a10.074,10.074,0,0,0-8.259,2.9l-1.221,1.22,10.869,10.869,16.685.446a6.236,6.236,0,0,0,4.656-1.827l14.615-14.614a2.988,2.988,0,0,0-2.121-5.093" transform="translate(-81.153 -75.292)" fill="#fff" fill-rule="evenodd"/><path d="M115.95,77.22l-2.268-13.336a1.291,1.291,0,0,0-1.273-1.076H95.786a1.29,1.29,0,0,0-1.273,1.076L92.245,77.22l-.112,16.748a.6.6,0,0,0,.577.561L97,95.573c.733,0,1.973.593,1.973,1.326v3.523l10.252,1.084V96.9c0-.733,1.239-1.326,1.973-1.326l4.289-1.044a.6.6,0,0,0,.577-.561Zm-6.725,11.339H98.974V77.694h.969l.842,7.942a.645.645,0,0,0,.642.578h5.345a.647.647,0,0,0,.642-.578l.842-7.941h.969ZM104.1,74.72a2.5,2.5,0,1,1-2.5,2.5,2.5,2.5,0,0,1,2.5-2.5Zm5.772-5.032a.645.645,0,0,0-.646.643h0v6.037h-.969l-.965-8.051a.646.646,0,0,0-.642-.569h-.941V66.567H102.5v1.182h-1.066a.645.645,0,0,0-.641.579l-.843,8.042h-.969V70.332a.646.646,0,0,0-.646-.646l-1.325.022.486-4.557a.775.775,0,0,1,.771-.693h11.679a.776.776,0,0,1,.77.693l.483,4.535Z" transform="translate(-84.222 -62.808)" fill="#fff"/></g></g><rect width="56" height="56" transform="translate(-23350 3730)" fill="none"/></g></svg>