<svg xmlns="http://www.w3.org/2000/svg" width="56" height="56" viewBox="0 0 56 56"><g transform="translate(23439 -3712)"><g transform="translate(-23894.631 3294.593)"><path d="M110.8,68.892H98.218a3.986,3.986,0,0,0-3.663,2.089L89.377,79.97l10.643,6.185,8.415-14.67a8.265,8.265,0,0,1,2.369-2.593" transform="translate(377.169 350.518)" fill="#fff"/><path d="M126.73,85.19l4.1-11.8-3.1,1.873a42.006,42.006,0,0,0-2.585-4.172,5.659,5.659,0,0,0-4.39-2.013A6.067,6.067,0,0,0,116.3,70.81a29.088,29.088,0,0,0-2.655,4.1l3.814,6.836-2.738,1.44Z" transform="translate(371.597 350.474)" fill="#fff"/><path d="M90.376,103.059l2.663,1.729L88.866,93.355,76.5,95.581l3.231,1.866c-1.148,1.779-1.75,2.715-1.8,2.809a6.581,6.581,0,0,0-.79,3.088q0,1.941,2.446,6.472c1.195,2.252,2.423,4.478,3.664,6.688q.289-2.158,3.241-7.121,1.932-3.158,3.88-6.325" transform="translate(380.129 344.898)" fill="#fff"/><path d="M86.954,122.73a6.074,6.074,0,0,0,1.685,3.92,4.749,4.749,0,0,0,3.558,1.977h10.356V116.4H89.61q-2.659,4.243-2.656,6.326" transform="translate(377.729 339.603)" fill="#fff"/><path d="M137.474,92.227,126.9,98.342l6.472,11.217h1.509q8.2,0,8.2-6.542,0-1.581-2.3-5.535-1.65-2.593-3.3-5.255" transform="translate(368.552 345.157)" fill="#fff"/><path d="M126.785,115.441h-4.958l.146-3.235-7.765,9.35,8.121,9.629v-3.733l3.67.14q2.947.14,6.4-4.962,2.378-3.879,4.68-7.764a15.952,15.952,0,0,1-5.323.649q-1.65,0-4.963-.079" transform="translate(371.469 340.568)" fill="#fff"/></g><rect width="56" height="56" transform="translate(-23439 3712)" fill="none"/></g></svg>