<svg xmlns="http://www.w3.org/2000/svg" width="16.609" height="13.516" viewBox="0 0 16.609 13.516"><path d="M18.024,6.1a6.89,6.89,0,0,1-1.957.539,3.42,3.42,0,0,0,1.5-1.887,6.771,6.771,0,0,1-2.165.827,3.407,3.407,0,0,0-5.9,2.33,3.336,3.336,0,0,0,.088.778A9.658,9.658,0,0,1,2.568,5.123,3.415,3.415,0,0,0,3.627,9.678a3.328,3.328,0,0,1-1.549-.426v.042a3.411,3.411,0,0,0,2.735,3.344,3.43,3.43,0,0,1-.9.12,3.215,3.215,0,0,1-.641-.063,3.413,3.413,0,0,0,3.185,2.369,6.832,6.832,0,0,1-4.234,1.461,6.908,6.908,0,0,1-.813-.049A9.525,9.525,0,0,0,6.63,18.016a9.638,9.638,0,0,0,9.7-9.708c0-.148,0-.3-.011-.44A6.937,6.937,0,0,0,18.024,6.1Z" transform="translate(-1.414 -4.5)" fill="#fff"/></svg>