<svg width="70" height="70" viewBox="0 0 70 70" fill="none" xmlns="http://www.w3.org/2000/svg">
<path d="M43.9551 33.1113C43.9551 22.8027 34.0977 14.4219 21.9707 14.4219C9.85742 14.4219 0 22.8027 0 33.1113C0 40.0293 4.52539 46.3867 11.6484 49.6133L12.4551 55.3965C12.5645 56.1621 13.0703 56.8047 13.7813 57.0918C14.041 57.2012 14.3145 57.2422 14.5879 57.2422C15.0527 57.2422 15.5313 57.0918 15.9141 56.791L22.2988 51.8008C34.2617 51.6641 43.9551 43.3379 43.9551 33.1113ZM31.8555 28.9824C31.8555 29.666 31.3086 30.2129 30.625 30.2129H13.3301C12.6465 30.2129 12.0996 29.666 12.0996 28.9824C12.0996 28.2988 12.6465 27.752 13.3301 27.752H30.625C31.2949 27.752 31.8555 28.3125 31.8555 28.9824ZM12.0996 34.998C12.0996 34.3145 12.6465 33.7676 13.3301 33.7676H30.625C31.3086 33.7676 31.8555 34.3145 31.8555 34.998C31.8555 35.6816 31.3086 36.2285 30.625 36.2285H13.3301C12.6602 36.2285 12.0996 35.6816 12.0996 34.998ZM13.3301 39.7969H23.2148C23.8984 39.7969 24.4453 40.3438 24.4453 41.0273C24.4453 41.7109 23.8984 42.2578 23.2148 42.2578H13.3301C12.6465 42.2578 12.0996 41.7109 12.0996 41.0273C12.0996 40.3438 12.6602 39.7969 13.3301 39.7969ZM70 32.2773C70 39.9199 65.4199 46.9473 58.0918 50.8984L57.5176 55C57.2578 56.9004 56 58.5137 54.2227 59.2246C53.5801 59.4844 52.8965 59.6211 52.2129 59.6211C51.0371 59.6211 49.875 59.2383 48.918 58.4863L43.3672 54.1523C40.9473 54.0293 38.582 53.6191 36.3398 52.9219C36.2031 52.8809 36.0117 52.8262 35.793 52.7441C35.2871 52.5801 34.7813 52.3887 34.2891 52.1973C34.3027 52.1973 34.3027 52.1836 34.3164 52.1836H34.3027C34.3301 52.1699 34.3437 52.1562 34.3711 52.1426C34.0703 52.0059 33.7559 51.8418 33.4141 51.6641C34.2891 51.2676 35.123 50.8164 35.9434 50.3105L36.1348 50.4063C36.2715 50.4473 36.3945 50.502 36.5313 50.543L36.5586 50.5566L36.5859 50.5703C36.791 50.6387 36.9004 50.6797 36.9277 50.6797L36.9824 50.6934L37.0234 50.707C39.0879 51.3496 41.2617 51.7324 43.4766 51.8418L44.2148 51.8828L50.3535 56.668C50.8867 57.0781 51.543 57.3106 52.2129 57.3106C52.6094 57.3106 52.9922 57.2422 53.3613 57.0918C54.3594 56.6953 55.0703 55.7793 55.2207 54.6992L55.959 49.4355L56.998 48.875C60.2656 47.1113 62.9727 44.6504 64.8457 41.7383C66.7051 38.8535 67.6895 35.5859 67.6895 32.3047C67.6895 26.9727 65.2422 21.9824 60.7852 18.2773C56.4922 14.6953 50.8184 12.7266 44.8164 12.7266C41.4531 12.7266 38.2129 13.3418 35.1641 14.5586L35.1094 14.5859C35.0957 14.5996 35.0137 14.627 34.877 14.6816L34.8496 14.6953C34.6582 14.7773 34.4668 14.8457 34.3027 14.9277L34.1797 14.9961C33.3047 14.5586 32.4023 14.1621 31.459 13.8203C31.8281 13.6016 32.1699 13.4238 32.4844 13.2598C32.4707 13.2598 32.457 13.2461 32.4434 13.2461C32.457 13.2461 32.457 13.2324 32.4707 13.2324C32.4707 13.2324 32.457 13.2324 32.457 13.2187C32.9629 12.9727 33.4688 12.7539 33.9883 12.5488C34.1934 12.4668 34.3027 12.4258 34.3027 12.4258C37.5566 11.127 41.125 10.4297 44.8164 10.4297C51.3652 10.4297 57.5586 12.5898 62.2754 16.5137C67.252 20.6289 70 26.248 70 32.2773Z" fill="#4B4B4B"/>
</svg>
