<svg xmlns="http://www.w3.org/2000/svg" xmlns:xlink="http://www.w3.org/1999/xlink" width="70" height="70" viewBox="0 0 70 70">
  <defs>
    <clipPath id="clip-path">
      <rect id="長方形_2690" data-name="長方形 2690" width="70" height="70" transform="translate(535 923)" fill="#fff" stroke="#4f4d4d" stroke-width="1"/>
    </clipPath>
  </defs>
  <g id="bachi-icon" transform="translate(-535 -923)" clip-path="url(#clip-path)">
    <g id="グループ_3968" data-name="グループ 3968" transform="translate(-2913.273 -1511.156)">
      <circle id="楕円形_64" data-name="楕円形 64" cx="15.755" cy="15.755" r="15.755" transform="translate(3467.518 2445.467)" fill="none" stroke="#e86d21" stroke-linecap="round" stroke-linejoin="round" stroke-width="2"/>
      <path id="パス_701" data-name="パス 701" d="M3508.205,2461.825c0,2.537-3.163,4.543-3.906,6.832-.771,2.372.583,5.849-.854,7.824-1.451,1.994-5.187,1.774-7.181,3.226-1.974,1.437-2.912,5.065-5.284,5.835-2.289.743-5.169-1.617-7.706-1.617s-5.417,2.36-7.706,1.617c-2.372-.771-3.311-4.4-5.284-5.835-1.994-1.452-5.73-1.232-7.181-3.227-1.437-1.974-.083-5.451-.854-7.823-.744-2.289-3.907-4.3-3.907-6.832s3.163-4.543,3.907-6.832c.77-2.373-.583-5.85.854-7.824,1.452-1.994,5.186-1.775,7.18-3.226,1.975-1.437,2.912-5.065,5.284-5.835,2.29-.744,5.169,1.616,7.706,1.616s5.417-2.36,7.706-1.616c2.373.77,3.31,4.4,5.284,5.835,1.995,1.451,5.73,1.232,7.181,3.226,1.437,1.975.083,5.451.854,7.824C3505.042,2457.281,3508.205,2459.288,3508.205,2461.825Z" transform="translate(0 0)" fill="none" stroke="#e86d21" stroke-linecap="round" stroke-linejoin="round" stroke-width="2"/>
      <g id="グループ_3967" data-name="グループ 3967" transform="translate(3472.313 2454.425)">
        <path id="パス_702" data-name="パス 702" d="M3486.628,2476.458l-8.544-7.646,3.3-3.692,5.154,4.612,9.028-8.508,3.4,3.605Z" transform="translate(-3478.084 -2461.224)" fill="none" stroke="#e86d21" stroke-linecap="round" stroke-linejoin="round" stroke-width="2"/>
      </g>
      <path id="パス_703" data-name="パス 703" d="M3483.8,2500.829l-8.026,16.389-4.412-8.316-9.289,1.534,7.311-14.77" transform="translate(-1.091 -16.867)" fill="none" stroke="#e86d21" stroke-linecap="round" stroke-linejoin="round" stroke-width="2"/>
      <path id="パス_704" data-name="パス 704" d="M3492.776,2500.993l8.113,16.389,4.413-8.316,9.289,1.534-7.115-14.374" transform="translate(-10.065 -17.031)" fill="none" stroke="#e86d21" stroke-linecap="round" stroke-linejoin="round" stroke-width="2"/>
    </g>
  </g>
</svg>
