<svg xmlns="http://www.w3.org/2000/svg" xmlns:xlink="http://www.w3.org/1999/xlink" width="157" height="101" viewBox="0 0 157 101"><defs><clipPath id="a"><rect width="86" height="86" transform="translate(592 361)" fill="#fff" stroke="#4f4d4d" stroke-width="1"/></clipPath></defs><g transform="translate(13429 -3669)"><g transform="translate(-13985 3316)" clip-path="url(#a)"><g transform="translate(601.317 380.137)"><path d="M3104.723,3433.6h21.366v32.169h-24.54" transform="translate(-3064.301 -3426.911)" fill="none" stroke="#e86d21" stroke-linecap="round" stroke-linejoin="round" stroke-width="2"/><path d="M3091.342,3465.766h-21.2V3433.6h24.495" transform="translate(-3070.139 -3426.911)" fill="none" stroke="#e86d21" stroke-linecap="round" stroke-linejoin="round" stroke-width="2"/><path d="M0,0H3.79A1.788,1.788,0,0,1,5.578,1.788v8.963A1.788,1.788,0,0,1,3.79,12.538H0a0,0,0,0,1,0,0V0A0,0,0,0,1,0,0Z" transform="translate(61.789 16.708)" fill="none" stroke="#e86d21" stroke-linecap="round" stroke-linejoin="round" stroke-width="2"/><path d="M3104.622,3427.54c-.569.5-19.46,28.763-19.46,28.763l12.358-.923-4.12,19.887,20.383-29.617-12.286.639Z" transform="translate(-3068.579 -3427.54)" fill="none" stroke="#e86d21" stroke-linecap="round" stroke-linejoin="round" stroke-width="2"/></g></g><path d="M0,0H157V101H0Z" transform="translate(-13429 3669)" fill="none"/></g></svg>