<svg xmlns="http://www.w3.org/2000/svg" width="86" height="70" viewBox="0 0 86 70"><g transform="translate(6657 -2965)"><g transform="translate(-6639 2975)"><path d="M3912.884,3191.238H3871.61v-40.5a4.321,4.321,0,0,1,4.321-4.321h40.888a4.321,4.321,0,0,1,4.321,4.321v32.716" transform="translate(-3871.61 -3142.068)" fill="none" stroke="#e86d21" stroke-linecap="round" stroke-linejoin="round" stroke-width="2"/><path d="M4.428,0H45.1A4.428,4.428,0,0,1,49.53,4.428v8.5a0,0,0,0,1,0,0H0a0,0,0,0,1,0,0v-8.5A4.428,4.428,0,0,1,4.428,0Z" transform="translate(0 4.345)" fill="none" stroke="#e86d21" stroke-linecap="round" stroke-linejoin="round" stroke-width="2"/><g transform="translate(11.042 0)"><path d="M3886.953,3144.821v-2.861h-4.027v9.219" transform="translate(-3882.926 -3141.96)" fill="none" stroke="#e86d21" stroke-linecap="round" stroke-linejoin="round" stroke-width="2"/><path d="M3910.953,3144.821v-2.861h-4.027v9.219" transform="translate(-3883.507 -3141.96)" fill="none" stroke="#e86d21" stroke-linecap="round" stroke-linejoin="round" stroke-width="2"/></g><path d="M3893.59,3170.577l3.317-4.292v18.863" transform="translate(-3872.142 -3142.549)" fill="none" stroke="#e86d21" stroke-linecap="round" stroke-linejoin="round" stroke-width="4"/><path d="M3913.909,3184.446v7.71l8.255-7.789Z" transform="translate(-3872.634 -3142.986)" fill="none" stroke="#e86d21" stroke-linecap="round" stroke-linejoin="round" stroke-width="2"/></g><rect width="86" height="70" transform="translate(-6657 2965)" fill="none"/></g></svg>