<svg xmlns="http://www.w3.org/2000/svg" width="86" height="70" viewBox="0 0 86 70"><g transform="translate(5982 -3677)"><g transform="translate(-5976 3692)"><path d="M3868.661,3268.41a4.222,4.222,0,0,0,4.222,4.222H3900.8a4.222,4.222,0,0,0,4.222-4.222v-24.768a4.222,4.222,0,0,0-4.222-4.223h-27.921a4.222,4.222,0,0,0-4.222,4.223" transform="translate(-3852.002 -3239.42)" fill="none" stroke="#e86d21" stroke-linecap="round" stroke-linejoin="round" stroke-width="1.5"/><path d="M3909.358,3246.65h10.719a3.694,3.694,0,0,1,3.289,2.014l6.381,12.49v9.188a3.055,3.055,0,0,1-3.056,3.056h-22.081" transform="translate(-3855.81 -3240.187)" fill="none" stroke="#e86d21" stroke-linecap="round" stroke-linejoin="round" stroke-width="1.5"/><path d="M3917.973,3252.939v9.2h13.19" transform="translate(-3857.225 -3240.852)" fill="none" stroke="#e86d21" stroke-linecap="round" stroke-linejoin="round" stroke-width="1.5"/><ellipse cx="6.569" cy="6.569" rx="6.569" ry="6.569" transform="translate(23.945 27.752)" fill="#fff" stroke="#e86d21" stroke-linecap="round" stroke-linejoin="round" stroke-width="1.5"/><ellipse cx="6.569" cy="6.569" rx="6.569" ry="6.569" transform="translate(55.029 27.752)" fill="#fff" stroke="#e86d21" stroke-linecap="round" stroke-linejoin="round" stroke-width="1.5"/><line x2="16.763" transform="translate(12.717 7.62)" fill="none" stroke="#e86d21" stroke-linecap="round" stroke-linejoin="round" stroke-width="1.5"/><line x2="16.763" transform="translate(5.203 13.874)" fill="none" stroke="#e86d21" stroke-linecap="round" stroke-linejoin="round" stroke-width="1.5"/><line x2="16.763" transform="translate(10.247 19.838)" fill="none" stroke="#e86d21" stroke-linecap="round" stroke-linejoin="round" stroke-width="1.5"/><line x2="16.763" transform="translate(4.782 25.802)" fill="none" stroke="#e86d21" stroke-linecap="round" stroke-linejoin="round" stroke-width="1.5"/><line x2="5.465" transform="translate(0 19.496)" fill="none" stroke="#e86d21" stroke-linecap="round" stroke-linejoin="round" stroke-width="1.5"/><line x2="5.465" transform="translate(3.048 7.62)" fill="none" stroke="#e86d21" stroke-linecap="round" stroke-linejoin="round" stroke-width="1.5"/></g><rect width="86" height="70" transform="translate(-5982 3677)" fill="none"/></g></svg>