<svg xmlns="http://www.w3.org/2000/svg" width="17.035" height="15.725" viewBox="0 0 17.035 15.725"><path d="M18.772,6.75H17.134v.983a.329.329,0,0,1-.328.328h-.655a.329.329,0,0,1-.328-.328V6.75H7.961v.983a.329.329,0,0,1-.328.328H6.979a.329.329,0,0,1-.328-.328V6.75H5.013A1.643,1.643,0,0,0,3.375,8.388V19.527a1.643,1.643,0,0,0,1.638,1.638H18.772a1.643,1.643,0,0,0,1.638-1.638V8.388A1.643,1.643,0,0,0,18.772,6.75ZM19.1,19.035a.821.821,0,0,1-.819.819H5.5a.821.821,0,0,1-.819-.819V11.664a.329.329,0,0,1,.328-.328H18.772a.329.329,0,0,1,.328.328Z" transform="translate(-3.375 -5.44)" fill="#fff"/><path d="M10.31,4.828A.329.329,0,0,0,9.983,4.5H9.328A.329.329,0,0,0,9,4.828V5.81h1.31Z" transform="translate(-5.724 -4.5)" fill="#fff"/><path d="M26.06,4.828a.329.329,0,0,0-.328-.328h-.655a.329.329,0,0,0-.328.328V5.81h1.31Z" transform="translate(-12.301 -4.5)" fill="#fff"/></svg>