<svg xmlns="http://www.w3.org/2000/svg" width="86" height="70" viewBox="0 0 86 70"><g transform="translate(6632 -2806)"><g transform="translate(-6629 2819)"><line x2="16.289" transform="translate(59.244)" fill="none" stroke="#e86d21" stroke-linecap="round" stroke-linejoin="round" stroke-width="2"/><line y2="3.301" transform="translate(65.583)" fill="none" stroke="#e86d21" stroke-linecap="round" stroke-linejoin="round" stroke-width="2"/><line y2="3.301" transform="translate(70.013)" fill="none" stroke="#e86d21" stroke-linecap="round" stroke-linejoin="round" stroke-width="2"/><line y2="6.083" transform="translate(41.916 20.612)" fill="none" stroke="#e86d21" stroke-linecap="round" stroke-linejoin="round" stroke-width="2"/><path d="M3923.384,2967.111v-3.826a.852.852,0,0,1,.852-.853h5.042a.853.853,0,0,1,.853.853v5.185" transform="translate(-3858.824 -2959.13)" fill="none" stroke="#e86d21" stroke-linecap="round" stroke-linejoin="round" stroke-width="2"/><path d="M3914.733,2980.169l6.352,8.572a5.639,5.639,0,0,1,1.111,3.362v9.33a3.373,3.373,0,0,0,3.373,3.373h0a3.373,3.373,0,0,0,3.374-3.373V2990.72a6.168,6.168,0,0,0-1.19-3.641l-6.77-9.262" transform="translate(-3857.635 -2961.243)" fill="none" stroke="#e86d21" stroke-linecap="round" stroke-linejoin="round" stroke-width="2"/><path d="M3903.771,2993.213h2.521a.853.853,0,0,1,.852.852v3.017a.853.853,0,0,1-.852.853h-2.521" transform="translate(-3856.129 -2963.358)" fill="none" stroke="#e86d21" stroke-linecap="round" stroke-linejoin="round" stroke-width="2"/><line x1="16.289" transform="translate(3.972)" fill="none" stroke="#e86d21" stroke-linecap="round" stroke-linejoin="round" stroke-width="2"/><line y2="3.301" transform="translate(13.922)" fill="none" stroke="#e86d21" stroke-linecap="round" stroke-linejoin="round" stroke-width="2"/><line y2="3.301" transform="translate(9.492)" fill="none" stroke="#e86d21" stroke-linecap="round" stroke-linejoin="round" stroke-width="2"/><line y2="6.083" transform="translate(37.589 20.612)" fill="none" stroke="#e86d21" stroke-linecap="round" stroke-linejoin="round" stroke-width="2"/><path d="M3888.3,2980.208c-7.224,0-11.112-.3-15.371-1.384s-7.324-3.522-16.592-3.522c-3.093,0-6.236.231-7.124-.681-1.191-1.228-.919-2.864,1.943-4.022,14.585-5.247,37.144-4.77,37.144-4.77s22.559-.477,37.144,4.77c2.862,1.158,3.135,2.794,1.943,4.022-.888.912-4.031.681-7.123.681-9.269,0-12.32,2.435-16.593,3.522S3895.519,2980.208,3888.3,2980.208Z" transform="translate(-3848.543 -2959.595)" fill="none" stroke="#e86d21" stroke-linecap="round" stroke-linejoin="round" stroke-width="2"/><path d="M3864.793,2967.111v-3.826a.852.852,0,0,0-.852-.853H3858.9a.852.852,0,0,0-.852.853v5.185" transform="translate(-3849.849 -2959.13)" fill="none" stroke="#e86d21" stroke-linecap="round" stroke-linejoin="round" stroke-width="2"/><path d="M3872.255,2980.169l-6.352,8.572a5.642,5.642,0,0,0-1.11,3.362v9.33a3.373,3.373,0,0,1-3.374,3.373h0a3.373,3.373,0,0,1-3.373-3.373V2990.72a6.167,6.167,0,0,1,1.189-3.641l6.77-9.262" transform="translate(-3849.849 -2961.243)" fill="none" stroke="#e86d21" stroke-linecap="round" stroke-linejoin="round" stroke-width="2"/><path d="M3893.37,3000.591h-7.037a.852.852,0,0,1-.852-.853V2990.4a.852.852,0,0,1,.852-.853h14.072a.853.853,0,0,1,.853.853v9.335a.853.853,0,0,1-.853.853Z" transform="translate(-3853.617 -2962.855)" fill="none" stroke="#e86d21" stroke-linecap="round" stroke-linejoin="round" stroke-width="2"/><path d="M3884.944,2993.213h-2.521a.852.852,0,0,0-.852.852v3.017a.852.852,0,0,0,.852.853h2.521" transform="translate(-3853.08 -2963.358)" fill="none" stroke="#e86d21" stroke-linecap="round" stroke-linejoin="round" stroke-width="2"/><ellipse cx="2.921" cy="2.921" rx="2.921" ry="2.921" transform="translate(36.831 29.502)" fill="none" stroke="#e86d21" stroke-linecap="round" stroke-linejoin="round" stroke-width="2"/></g><rect width="86" height="70" transform="translate(-6632 2806)" fill="none"/></g></svg>