<svg width="104" height="102" viewBox="0 0 104 102" fill="none" xmlns="http://www.w3.org/2000/svg">
<g clip-path="url(#clip0_9_112)">
<g clip-path="url(#clip1_9_112)">
<path d="M50.0381 37.4945H37.8906L38.5019 30.8258C38.5499 30.3064 38.7902 29.8235 39.1756 29.472C39.5611 29.1206 40.064 28.9258 40.5856 28.9258H47.3444C47.8661 28.9255 48.3692 29.1202 48.7547 29.4717C49.1402 29.8233 49.3804 30.3062 49.4281 30.8258L50.0381 37.4945Z" stroke="#E86D21" stroke-width="1.875" stroke-linecap="round" stroke-linejoin="round"/>
<path d="M43.9644 42.168C45.0479 42.1682 46.107 42.4899 47.0079 43.092C47.9087 43.6942 48.6107 44.55 49.0252 45.5511C49.4397 46.5523 49.548 47.6537 49.3364 48.7164C49.1249 49.7791 48.603 50.7552 47.8368 51.5213C47.0705 52.2874 46.0942 52.809 45.0315 53.0203C43.9688 53.2316 42.8673 53.1231 41.8662 52.7084C40.8652 52.2937 40.0096 51.5916 39.4076 50.6906C38.8057 49.7897 38.4844 48.7303 38.4844 47.6468C38.4844 46.9272 38.6261 46.2147 38.9016 45.5499C39.177 44.8851 39.5806 44.281 40.0895 43.7723C40.5984 43.2635 41.2025 42.8601 41.8674 42.5848C42.5322 42.3096 43.2448 42.1678 43.9644 42.168Z" stroke="#E86D21" stroke-width="1.875" stroke-linecap="round" stroke-linejoin="round"/>
<path d="M63.04 66.9798H66.9575C67.0913 66.9648 67.2258 67.0021 67.3326 67.0842C67.4394 67.1663 67.5101 67.2867 67.53 67.4199V75.1698C67.5101 75.3029 67.4393 75.4231 67.3325 75.5049C67.2256 75.5868 67.0912 75.6241 66.9575 75.6087H62.5312" stroke="#E86D21" stroke-width="1.875" stroke-linecap="round" stroke-linejoin="round"/>
<path d="M50.07 34.7336H60.8962C60.5287 31.0237 59.9545 27.3371 59.1763 23.6912C58.9407 22.7629 58.4202 21.932 57.688 21.3148C56.9557 20.6975 56.0485 20.3251 55.0937 20.25H32.8325C31.8778 20.3253 30.9707 20.6976 30.2385 21.3148C29.5062 21.932 28.9857 22.763 28.75 23.6912C27.9719 27.3375 27.3981 31.0245 27.0312 34.7349H37.8563" stroke="#E86D21" stroke-width="1.875" stroke-linecap="round" stroke-linejoin="round"/>
<path d="M32.3354 63.3622V34.7373H27.0316C27.0316 34.7373 23.6466 47.6633 25.6153 76.3621C25.6556 76.9492 25.9172 77.4994 26.3474 77.9011C26.7776 78.3027 27.3443 78.5262 27.9329 78.5261H32.3366" stroke="#E86D21" stroke-width="1.875" stroke-linecap="round" stroke-linejoin="round"/>
<path d="M55.5938 63.3612V34.7363H60.8975C60.8975 34.7363 64.285 47.6623 62.3175 76.3611C62.2776 76.9486 62.0161 77.4992 61.5859 77.9013C61.1557 78.3034 60.5889 78.5273 60 78.5275H55.595" stroke="#E86D21" stroke-width="1.875" stroke-linecap="round" stroke-linejoin="round"/>
<path d="M55.8181 83.0983H32.1181L29.1719 78.5234H58.7631L55.8181 83.0983Z" stroke="#E86D21" stroke-width="1.875" stroke-linecap="round" stroke-linejoin="round"/>
<path d="M56.3631 63.3613H31.5669C31.1071 63.3613 30.7344 63.7341 30.7344 64.1938V77.6901C30.7344 78.1499 31.1071 78.5226 31.5669 78.5226H56.3631C56.8229 78.5226 57.1956 78.1499 57.1956 77.6901V64.1938C57.1956 63.7341 56.8229 63.3613 56.3631 63.3613Z" stroke="#E86D21" stroke-width="1.875" stroke-linecap="round" stroke-linejoin="round"/>
<path d="M43.9649 31.2168C44.0731 31.2168 44.1827 31.2253 44.293 31.2433C45.4034 31.4246 46.1573 32.4708 45.9774 33.581C45.7975 34.6912 44.7513 35.4459 43.6409 35.2656C42.5295 35.0846 41.7755 34.0381 41.9565 32.9279C42.1186 31.9279 42.9834 31.2168 43.9649 31.2168Z" fill="#E86D21"/>
<path d="M35.793 68.1455V73.7345H52.3161V68.1455H35.793ZM35.5405 66.2705H52.5663C53.389 66.2705 54.0812 66.8479 54.1786 67.6145C54.1866 67.6743 54.1911 67.7347 54.1911 67.7958V74.0854C54.1911 74.9271 53.4647 75.6095 52.5686 75.6095H35.5429C35.3526 75.6122 35.1635 75.5784 34.9849 75.5155C34.5528 75.369 34.2091 75.0577 34.0361 74.6573C33.9569 74.4761 33.9168 74.2814 33.918 74.0842V67.7958C33.918 66.9547 34.6444 66.2717 35.5405 66.2705Z" fill="#E86D21"/>
<path d="M55.5938 87.2286H31.9688V83.1035H55.5813L55.5963 87.2286" stroke="#E86D21" stroke-width="1.875" stroke-linecap="round" stroke-linejoin="round"/>
<path d="M37.7305 90.9373H35.5992V87.2285H32.238V90.9373H30.1055C30.0392 90.9373 29.9756 90.9637 29.9287 91.0106C29.8818 91.0574 29.8555 91.121 29.8555 91.1873V94.9449C29.8555 95.0112 29.8818 95.0747 29.9287 95.1216C29.9756 95.1685 30.0392 95.1948 30.1055 95.1948H37.7305C37.7968 95.1948 37.8603 95.1685 37.9072 95.1216C37.9541 95.0747 37.9805 95.0112 37.9805 94.9449V91.1873C37.9805 91.121 37.9541 91.0574 37.9072 91.0106C37.8603 90.9637 37.7968 90.9373 37.7305 90.9373Z" stroke="#E86D21" stroke-width="1.875" stroke-linecap="round" stroke-linejoin="round"/>
<path d="M57.6484 90.9373H55.5172V87.2285H52.1559V90.9373H50.0235C49.9571 90.9373 49.8935 90.9637 49.8466 91.0106C49.7998 91.0574 49.7734 91.121 49.7734 91.1873V94.9449C49.7734 95.0112 49.7998 95.0747 49.8466 95.1216C49.8935 95.1685 49.9571 95.1948 50.0235 95.1948H57.6484C57.7147 95.1948 57.7783 95.1685 57.8252 95.1216C57.8721 95.0747 57.8984 95.0112 57.8984 94.9449V91.1873C57.8984 91.121 57.8721 91.0574 57.8252 91.0106C57.7783 90.9637 57.7147 90.9373 57.6484 90.9373Z" stroke="#E86D21" stroke-width="1.875" stroke-linecap="round" stroke-linejoin="round"/>
<path d="M30 24L34 26" stroke="#E86D21" stroke-width="2" stroke-linecap="round"/>
<path d="M63 34L80 52" stroke="#E86D21" stroke-width="2" stroke-linecap="round"/>
<path d="M63 40L80 58" stroke="#E86D21" stroke-width="2" stroke-linecap="round"/>
<path d="M63 46L80 64" stroke="#E86D21" stroke-width="2" stroke-linecap="round"/>
<path d="M63 52L80 70" stroke="#E86D21" stroke-width="2" stroke-linecap="round"/>
<path d="M63 58L80 76" stroke="#E86D21" stroke-width="2" stroke-linecap="round"/>
<path d="M63 64L80 82" stroke="#E86D21" stroke-width="2" stroke-linecap="round"/>
<path d="M63 70L80 88" stroke="#E86D21" stroke-width="2" stroke-linecap="round"/>
<path d="M63 76L80 94" stroke="#E86D21" stroke-width="2" stroke-linecap="round"/>
<path d="M61 80L78 97" stroke="#E86D21" stroke-width="2" stroke-linecap="round"/>
<path d="M58 83L71 96" stroke="#E86D21" stroke-width="2" stroke-linecap="round"/>
<path d="M57 88L65 96" stroke="#E86D21" stroke-width="2" stroke-linecap="round"/>
<path d="M32 21L36 23" stroke="#E86D21" stroke-width="2" stroke-linecap="round"/>
<path d="M29 28L33 30" stroke="#E86D21" stroke-width="2" stroke-linecap="round"/>
<path d="M28 31L32 33" stroke="#E86D21" stroke-width="2" stroke-linecap="round"/>
<path d="M28 35L30 36" stroke="#E86D21" stroke-width="2" stroke-linecap="round"/>
<path d="M27 39L29 40" stroke="#E86D21" stroke-width="2" stroke-linecap="round"/>
</g>
<path d="M67.793 17.9932C70.2206 19.2613 74.7844 23.6236 73.6192 30.9279C77.0178 29.9135 84.252 29.4062 85.9999 35.4932" stroke="#E86D21" stroke-width="2" stroke-linecap="round"/>
<path d="M86.0007 17.9932L69.0352 35.0765" stroke="#E86D21" stroke-width="2" stroke-linecap="round"/>
<path d="M86.0586 17.9606L68.9753 0.995116" stroke="#E86D21" stroke-width="2" stroke-linecap="round"/>
<path d="M86 17.2415L103.083 34.207" stroke="#E86D21" stroke-width="2" stroke-linecap="round"/>
<path d="M86 17.9932H62" stroke="#E86D21" stroke-width="2" stroke-linecap="round"/>
<path d="M75.6562 17.9932C77.0356 18.6876 79.6287 21.0765 78.9666 25.0765C80.8976 24.5209 85.008 24.2432 86.0011 27.5765" stroke="#E86D21" stroke-width="2" stroke-linecap="round"/>
<path d="M86 6.99512C85.2754 8.46178 82.7826 11.2191 78.6087 10.5151C79.1884 12.5685 79.4783 16.9391 76 17.9951" stroke="#E86D21" stroke-width="2" stroke-linecap="round"/>
<path d="M86.0586 28.207C86.7832 26.7404 89.276 23.983 93.4499 24.687C92.8702 22.6337 92.5803 18.263 96.0586 17.207" stroke="#E86D21" stroke-width="2" stroke-linecap="round"/>
<path d="M86 17.9932V42.9932" stroke="#E86D21" stroke-width="2" stroke-linecap="round"/>
<path d="M85.5 0C84.2319 2.42759 79.8696 6.99145 72.5652 5.82621C73.5797 9.22483 74.087 16.459 68 18.2069" stroke="#E86D21" stroke-width="2" stroke-linecap="round"/>
<path d="M86.5586 35.207C87.8267 32.7794 92.189 28.2156 99.4934 29.3808C98.4789 25.9822 97.9716 18.748 104.059 17.0001" stroke="#E86D21" stroke-width="2" stroke-linecap="round"/>
</g>
<defs>
<clipPath id="clip0_9_112">
<rect width="104" height="102" fill="white"/>
</clipPath>
<clipPath id="clip1_9_112">
<rect width="91" height="88" fill="white" transform="translate(0 14)"/>
</clipPath>
</defs>
</svg>
