<svg xmlns="http://www.w3.org/2000/svg" width="157" height="101" viewBox="0 0 157 101"><g transform="translate(6571 -2814)"><g transform="translate(-6538 2825)"><g transform="translate(0 0)"><rect width="35.621" height="30.344" rx="3.388" transform="matrix(0.865, 0.503, -0.503, 0.865, 55.675, 2.285)" fill="none" stroke="#e86d21" stroke-linecap="round" stroke-linejoin="round" stroke-width="2"/><rect width="22.143" height="27.063" rx="2.286" transform="matrix(0.865, 0.503, -0.503, 0.865, 64.798, 0)" fill="#fff" stroke="#e86d21" stroke-linecap="round" stroke-linejoin="round" stroke-width="2"/><path d="M3524.958,3464.508l-13.979,24.048a2.33,2.33,0,0,1-2.611.094h0a2.332,2.332,0,0,1-1.212-2.316l13.981-24.048Z" transform="translate(-3476.498 -3409.499)" fill="none" stroke="#e86d21" stroke-linecap="round" stroke-linejoin="round" stroke-width="2"/><path d="M3536.665,3454.18l-.127,27.85,13.538-.163c.962.018,1.529.966,1.264,2.116h0a2.527,2.527,0,0,1-2.222,2.049h-16.3l.525-26.145Z" transform="translate(-3471.271 -3411.145)" fill="none" stroke="#e86d21" stroke-linecap="round" stroke-linejoin="round" stroke-width="2"/><path d="M3527.916,3444.93l-45.614,26.726c-.827.492-.851,1.6-.052,2.465h0a2.53,2.53,0,0,0,2.947.681l39.4-24.163Z" transform="translate(-3481.665 -3413.025)" fill="none" stroke="#e86d21" stroke-linecap="round" stroke-linejoin="round" stroke-width="2"/><ellipse cx="5.576" cy="5.576" rx="5.576" ry="5.576" transform="translate(61.738 11.539)" fill="none" stroke="#e86d21" stroke-linecap="round" stroke-linejoin="round" stroke-width="2"/><path d="M0,0H22.143a0,0,0,0,1,0,0V16.768a2.094,2.094,0,0,1-2.094,2.094H2.094A2.094,2.094,0,0,1,0,16.768V0A0,0,0,0,1,0,0Z" transform="matrix(0.865, 0.503, -0.503, 0.865, 46.251, 31.905)" fill="none" stroke="#e86d21" stroke-linecap="round" stroke-linejoin="round" stroke-width="2"/></g><path d="M3544.45,3466.019l2.26-6.668,3.139,5,5.537-1.466-1.111,5.551,6.488,2.034-5.953,3.416" transform="translate(-3468.908 -3410.095)" fill="none" stroke="#e86d21" stroke-linecap="round" stroke-linejoin="round" stroke-width="2"/></g><rect width="157" height="101" transform="translate(-6571 2814)" fill="none"/></g></svg>