<svg xmlns="http://www.w3.org/2000/svg" width="86" height="70" viewBox="0 0 86 70"><g transform="translate(5840 -3701)"><g transform="translate(-5825.549 3703.548)"><rect width="27.13" height="23.111" rx="3.388" transform="translate(14.801 4.997)" fill="none" stroke="#e86d21" stroke-linecap="round" stroke-linejoin="round" stroke-width="1.5"/><rect width="16.865" height="20.612" rx="2.286" transform="translate(19.934)" fill="#fff" stroke="#e86d21" stroke-linecap="round" stroke-linejoin="round" stroke-width="1.5"/><path d="M3343.4,1642.469v21.186c0,.329-.753,1.061-1.683,1.061h0c-.93,0-1.684-.732-1.684-1.061v-21.186Z" transform="translate(-3313.168 -1599.995)" fill="none" stroke="#e86d21" stroke-linecap="round" stroke-linejoin="round" stroke-width="1.5"/><path d="M3350.873,1626.792l20.171,35.057c.357.64-.051,1.376-.909,1.643h0a1.926,1.926,0,0,1-2.2-.679l-17.061-30.992Z" transform="translate(-3314.075 -1598.684)" fill="none" stroke="#e86d21" stroke-linecap="round" stroke-linejoin="round" stroke-width="1.5"/><path d="M3330.651,1626.792l-19.805,35.057c-.357.64.051,1.376.909,1.643h0a1.924,1.924,0,0,0,2.2-.679l16.7-30.992Z" transform="translate(-3310.717 -1598.684)" fill="none" stroke="#e86d21" stroke-linecap="round" stroke-linejoin="round" stroke-width="1.5"/><ellipse cx="4.247" cy="4.247" rx="4.247" ry="4.247" transform="translate(23.895 6.059)" fill="none" stroke="#e86d21" stroke-linecap="round" stroke-linejoin="round" stroke-width="1.5"/><path d="M0,0H16.865a0,0,0,0,1,0,0V12.272a2.094,2.094,0,0,1-2.094,2.094H2.094A2.094,2.094,0,0,1,0,12.272V0A0,0,0,0,1,0,0Z" transform="translate(19.934 28.108)" fill="none" stroke="#e86d21" stroke-linecap="round" stroke-linejoin="round" stroke-width="1.5"/></g><rect width="86" height="70" transform="translate(-5840 3701)" fill="none"/></g></svg>