<svg xmlns="http://www.w3.org/2000/svg" width="86" height="70" viewBox="0 0 86 70"><g transform="translate(6578 -3684)"><g transform="translate(-6550 3689)"><path d="M489.687,3116.822h-9.718l.489-5.335a1.673,1.673,0,0,1,1.667-1.52h5.407a1.673,1.673,0,0,1,1.667,1.52Z" transform="translate(-469.656 -3103.027)" fill="none" stroke="#e86d21" stroke-linecap="round" stroke-linejoin="round" stroke-width="1.5"/><path d="M484.872,3121.524a4.383,4.383,0,1,1-4.384,4.384,4.383,4.383,0,0,1,4.384-4.384Z" transform="translate(-469.699 -3103.989)" fill="none" stroke="#e86d21" stroke-linecap="round" stroke-linejoin="round" stroke-width="1.5"/><path d="M501.877,3143.176h3.134a.416.416,0,0,1,.458.352v6.2a.415.415,0,0,1-.458.351H501.47" transform="translate(-471.447 -3105.792)" fill="none" stroke="#e86d21" stroke-linecap="round" stroke-linejoin="round" stroke-width="1.5"/><path d="M488.924,3113.983h8.661a80.182,80.182,0,0,0-1.376-8.834,3.665,3.665,0,0,0-3.266-2.753H475.134a3.666,3.666,0,0,0-3.266,2.753,80.083,80.083,0,0,0-1.375,8.835h8.66" transform="translate(-468.867 -3102.396)" fill="none" stroke="#e86d21" stroke-linecap="round" stroke-linejoin="round" stroke-width="1.5"/><path d="M474.588,3137.938v-22.9h-4.244s-2.708,10.341-1.133,33.3a1.858,1.858,0,0,0,1.854,1.732h3.523" transform="translate(-468.719 -3103.448)" fill="none" stroke="#e86d21" stroke-linecap="round" stroke-linejoin="round" stroke-width="1.5"/><path d="M495.419,3137.938v-22.9h4.243s2.71,10.341,1.136,33.3a1.859,1.859,0,0,1-1.854,1.733H495.42" transform="translate(-470.943 -3103.448)" fill="none" stroke="#e86d21" stroke-linecap="round" stroke-linejoin="round" stroke-width="1.5"/><path d="M493.675,3156.91h-18.96l-2.357-3.66h23.673Z" transform="translate(-469.022 -3106.631)" fill="none" stroke="#e86d21" stroke-linecap="round" stroke-linejoin="round" stroke-width="1.5"/><rect width="21.169" height="12.129" rx="0.666" transform="translate(4.588 34.489)" fill="none" stroke="#e86d21" stroke-linecap="round" stroke-linejoin="round" stroke-width="1.5"/><g transform="translate(-469.949 -3103.193)" fill="none" stroke-linecap="round" stroke-linejoin="round"><path d="M483.513,3113.335a1.629,1.629,0,1,1,1.348,1.87A1.629,1.629,0,0,1,483.513,3113.335Z" stroke="none"/><path d="M 485.1196594238281 3111.9658203125 C 485.2062683105469 3111.9658203125 485.2939147949219 3111.97265625 485.3821716308594 3111.987060546875 C 486.2705688476562 3112.132080078125 486.873779296875 3112.968994140625 486.7297973632812 3113.857421875 C 486.5858764648438 3114.74560546875 485.7488403320312 3115.348876953125 484.8605651855469 3115.204833984375 C 483.971435546875 3115.06005859375 483.3681640625 3114.222900390625 483.5130615234375 3113.3349609375 C 483.6426391601562 3112.53466796875 484.3345947265625 3111.9658203125 485.1196594238281 3111.9658203125 Z" stroke="none" fill="#e86d21"/></g><g transform="translate(-469.367 -3105.741)" fill="none" stroke-linecap="round" stroke-linejoin="round"><path d="M492.721,3143.778v5.032a1.261,1.261,0,0,1-1.3,1.219H477.8a1.327,1.327,0,0,1-.446-.075,1.261,1.261,0,0,1-.759-.687,1.129,1.129,0,0,1-.094-.459v-5.031a1.262,1.262,0,0,1,1.3-1.22h13.621a1.273,1.273,0,0,1,1.29,1.075A1.1,1.1,0,0,1,492.721,3143.778Z" stroke="none"/><path d="M 478.0019836425781 3144.05810546875 L 478.0019836425781 3148.529296875 L 491.2205505371094 3148.529296875 L 491.2205505371094 3144.05810546875 L 478.0019836425781 3144.05810546875 M 477.8000183105469 3142.55810546875 L 491.4206848144531 3142.55810546875 C 492.0788269042969 3142.55810546875 492.632568359375 3143.02001953125 492.7105102539062 3143.633056640625 C 492.7168884277344 3143.680908203125 492.7205505371094 3143.729248046875 492.7205505371094 3143.778076171875 L 492.7205505371094 3148.809814453125 C 492.7205505371094 3149.483154296875 492.1393737792969 3150.029296875 491.4224853515625 3150.029296875 L 477.8019104003906 3150.029296875 C 477.7991943359375 3150.029296875 477.7964477539062 3150.029296875 477.7937316894531 3150.029296875 C 477.6442565917969 3150.029296875 477.495849609375 3150.003173828125 477.35546875 3149.9541015625 C 477.0098571777344 3149.836669921875 476.7348327636719 3149.587646484375 476.596435546875 3149.267578125 C 476.5331726074219 3149.12255859375 476.5010375976562 3148.966552734375 476.5019836425781 3148.808837890625 L 476.5019836425781 3143.778076171875 C 476.5019836425781 3143.105224609375 477.0831298828125 3142.55908203125 477.8000183105469 3142.55810546875 Z" stroke="none" fill="#e86d21"/></g><path d="M493.7,3160.547H474.8v-3.3H493.69l.012,3.3" transform="translate(-469.226 -3106.964)" fill="none" stroke="#e86d21" stroke-linecap="round" stroke-linejoin="round" stroke-width="1.5"/><g transform="translate(3.884 53.583)"><path d="M479.257,3163.813h-1.705v-2.967h-2.689v2.967h-1.706a.2.2,0,0,0-.2.2v3.006a.2.2,0,0,0,.2.2h6.1a.2.2,0,0,0,.2-.2v-3.006A.2.2,0,0,0,479.257,3163.813Z" transform="translate(-472.956 -3160.847)" fill="none" stroke="#e86d21" stroke-linecap="round" stroke-linejoin="round" stroke-width="1.5"/><path d="M479.257,3163.813h-1.705v-2.967h-2.689v2.967h-1.706a.2.2,0,0,0-.2.2v3.006a.2.2,0,0,0,.2.2h6.1a.2.2,0,0,0,.2-.2v-3.006A.2.2,0,0,0,479.257,3163.813Z" transform="translate(-457.022 -3160.847)" fill="none" stroke="#e86d21" stroke-linecap="round" stroke-linejoin="round" stroke-width="1.5"/></g><path d="M510.469,3008.24l-3.871-3.871a9.008,9.008,0,1,0-3,2.993l3.874,3.874a2.119,2.119,0,0,0,3-3Z" transform="translate(-467.258 -2956.991)" fill="#fff" stroke="#e86d21" stroke-linecap="round" stroke-linejoin="round" stroke-width="1.5"/><ellipse cx="5.928" cy="5.928" rx="5.928" ry="5.928" transform="translate(25.668 36.825)" fill="#fff" stroke="#e86d21" stroke-linecap="round" stroke-linejoin="round" stroke-width="1.5"/></g><rect width="86" height="70" transform="translate(-6578 3684)" fill="none"/></g></svg>