<svg width="105" height="102" viewBox="0 0 105 102" fill="none" xmlns="http://www.w3.org/2000/svg">
<g clip-path="url(#clip0_56_2)">
<path d="M65.7271 19.3447H40.75C39.639 19.3447 38.7383 20.2461 38.7383 21.3581V34.7457C38.7383 35.8576 39.639 36.759 40.75 36.759H65.7271C66.8381 36.759 67.7388 35.8576 67.7388 34.7457V21.3581C67.7388 20.2461 66.8381 19.3447 65.7271 19.3447Z" stroke="#E86D21" stroke-width="1.75" stroke-linecap="round" stroke-linejoin="round"/>
<path d="M43.082 36.7588H63.382V45.5645C63.382 46.0517 63.1887 46.5188 62.8445 46.8633C62.5004 47.2077 62.0336 47.4012 61.5469 47.4012H44.9172C44.4305 47.4012 43.9637 47.2077 43.6195 46.8633C43.2754 46.5188 43.082 46.0517 43.082 45.5645V36.7588Z" stroke="#E86D21" stroke-width="1.75" stroke-linecap="round" stroke-linejoin="round"/>
<path d="M67.7344 23.7275H72.6174C72.9888 23.7278 73.3449 23.8756 73.6074 24.1385C73.87 24.4014 74.0174 24.7579 74.0174 25.1296V30.9724C74.0174 31.3441 73.87 31.7006 73.6074 31.9635C73.3449 32.2264 72.9888 32.3742 72.6174 32.3744H67.7344V23.7275Z" stroke="#E86D21" stroke-width="1.75" stroke-linecap="round" stroke-linejoin="round"/>
<path d="M55.1672 47.4004V94.2921C55.1672 94.9017 54.3014 95.3961 53.234 95.3961C52.1639 95.3961 51.3008 94.9017 51.3008 94.2921V47.4004H55.1672Z" stroke="#E86D21" stroke-width="1.75" stroke-linecap="round" stroke-linejoin="round"/>
<path d="M55.168 47.4004L85.8698 88.8098C86.2791 89.372 85.812 90.0181 84.8248 90.2519C84.3883 90.3806 83.9256 90.3935 83.4827 90.289C83.0397 90.1844 82.6317 89.9661 82.2986 89.6558L55.168 51.8162V47.4004Z" stroke="#E86D21" stroke-width="1.75" stroke-linecap="round" stroke-linejoin="round"/>
<path d="M51.303 47.4004L20.601 88.8098C20.1926 89.372 20.6591 90.0181 21.6453 90.2519C22.0821 90.3808 22.5448 90.3937 22.9881 90.2892C23.4314 90.1847 23.8399 89.9663 24.1733 89.6558L51.3039 51.8162L51.303 47.4004Z" stroke="#E86D21" stroke-width="1.75" stroke-linecap="round" stroke-linejoin="round"/>
<path d="M55.168 75.3773L68.7016 71.123" stroke="#E86D21" stroke-width="1.75" stroke-linecap="round" stroke-linejoin="round"/>
<path d="M37.7695 71.123L51.3032 75.3773" stroke="#E86D21" stroke-width="1.75" stroke-linecap="round" stroke-linejoin="round"/>
<path d="M53.2337 31.92C55.3691 31.92 57.1002 30.1875 57.1002 28.0503C57.1002 25.9132 55.3691 24.1807 53.2337 24.1807C51.0983 24.1807 49.3672 25.9132 49.3672 28.0503C49.3672 30.1875 51.0983 31.92 53.2337 31.92Z" stroke="#E86D21" stroke-width="1.75" stroke-linecap="round" stroke-linejoin="round"/>
<path d="M72.8553 40.7373L69.6914 46.5382L74.1367 45.2834L70.5457 51.7" stroke="#E86D21" stroke-width="1.75" stroke-linecap="round" stroke-linejoin="round"/>
<path d="M79.6717 48.9775L76.5078 54.7784L80.9531 53.5237L77.3621 59.9403" stroke="#E86D21" stroke-width="1.75" stroke-linecap="round" stroke-linejoin="round"/>
<path d="M31.1873 40.7373L28.0234 46.5382L32.4696 45.2834L28.8786 51.7" stroke="#E86D21" stroke-width="1.75" stroke-linecap="round" stroke-linejoin="round"/>
<path d="M37.9988 48.9775L34.8359 54.7784L39.281 53.5237L35.6902 59.9403" stroke="#E86D21" stroke-width="1.75" stroke-linecap="round" stroke-linejoin="round"/>
</g>
<defs>
<clipPath id="clip0_56_2">
<rect width="105" height="102" fill="white"/>
</clipPath>
</defs>
</svg>
