<svg xmlns="http://www.w3.org/2000/svg" width="86" height="70" viewBox="0 0 86 70"><g transform="translate(6596 -3677)"><g transform="translate(-6570 3682)"><path d="M489.687,3116.822h-9.718l.489-5.335a1.674,1.674,0,0,1,1.667-1.52h5.407a1.673,1.673,0,0,1,1.667,1.52Z" transform="translate(-469.656 -3103.027)" fill="none" stroke="#e86d21" stroke-linecap="round" stroke-linejoin="round" stroke-width="1.5"/><path d="M484.872,3121.524a4.383,4.383,0,1,1-4.384,4.383,4.383,4.383,0,0,1,4.384-4.383Z" transform="translate(-469.699 -3103.99)" fill="none" stroke="#e86d21" stroke-linecap="round" stroke-linejoin="round" stroke-width="1.5"/><path d="M501.877,3143.176h3.134a.416.416,0,0,1,.458.352v6.2a.415.415,0,0,1-.458.351H501.47" transform="translate(-471.447 -3105.792)" fill="none" stroke="#e86d21" stroke-linecap="round" stroke-linejoin="round" stroke-width="1.5"/><path d="M488.924,3113.983h8.661a80.189,80.189,0,0,0-1.376-8.834,3.666,3.666,0,0,0-3.266-2.753H475.134a3.667,3.667,0,0,0-3.266,2.753,80.086,80.086,0,0,0-1.375,8.835h8.66" transform="translate(-468.867 -3102.396)" fill="none" stroke="#e86d21" stroke-linecap="round" stroke-linejoin="round" stroke-width="1.5"/><path d="M474.588,3137.938v-22.9h-4.243s-2.708,10.341-1.133,33.3a1.858,1.858,0,0,0,1.854,1.731h3.523" transform="translate(-468.719 -3103.448)" fill="none" stroke="#e86d21" stroke-linecap="round" stroke-linejoin="round" stroke-width="1.5"/><path d="M495.419,3137.938v-22.9h4.243s2.71,10.341,1.136,33.3a1.859,1.859,0,0,1-1.854,1.733H495.42" transform="translate(-470.943 -3103.449)" fill="none" stroke="#e86d21" stroke-linecap="round" stroke-linejoin="round" stroke-width="1.5"/><path d="M493.675,3156.91h-18.96l-2.357-3.66h23.673Z" transform="translate(-469.022 -3106.631)" fill="none" stroke="#e86d21" stroke-linecap="round" stroke-linejoin="round" stroke-width="1.5"/><rect width="21.169" height="12.129" rx="0.666" transform="translate(4.588 34.489)" fill="none" stroke="#e86d21" stroke-linecap="round" stroke-linejoin="round" stroke-width="1.5"/><g transform="translate(-469.949 -3103.193)" fill="none" stroke-linecap="round" stroke-linejoin="round"><path d="M483.513,3113.335a1.629,1.629,0,1,1,1.348,1.87A1.63,1.63,0,0,1,483.513,3113.335Z" stroke="none"/><path d="M 485.1197509765625 3111.966064453125 C 485.2063293457031 3111.966064453125 485.2940063476562 3111.972900390625 485.3822021484375 3111.9873046875 C 486.2705688476562 3112.13232421875 486.8737182617188 3112.96923828125 486.7297973632812 3113.857421875 C 486.5858764648438 3114.74560546875 485.7488403320312 3115.349365234375 484.860595703125 3115.205078125 C 483.971435546875 3115.060302734375 483.3682250976562 3114.22314453125 483.5130615234375 3113.3349609375 C 483.6427001953125 3112.534912109375 484.3345947265625 3111.966064453125 485.1197509765625 3111.966064453125 Z" stroke="none" fill="#e86d21"/></g><g transform="translate(-469.367 -3105.741)" fill="none" stroke-linecap="round" stroke-linejoin="round"><path d="M492.721,3143.778v5.032a1.261,1.261,0,0,1-1.3,1.219H477.8a1.321,1.321,0,0,1-.446-.075,1.26,1.26,0,0,1-.759-.687,1.128,1.128,0,0,1-.094-.458v-5.031a1.262,1.262,0,0,1,1.3-1.22h13.621a1.273,1.273,0,0,1,1.29,1.075A1.091,1.091,0,0,1,492.721,3143.778Z" stroke="none"/><path d="M 478.0020141601562 3144.05810546875 L 478.0020141601562 3148.529296875 L 491.2205200195312 3148.529296875 L 491.2205200195312 3144.05810546875 L 478.0020141601562 3144.05810546875 M 477.800048828125 3142.55810546875 L 491.420654296875 3142.55810546875 C 492.0788269042969 3142.55810546875 492.632568359375 3143.02001953125 492.7104797363281 3143.63330078125 C 492.7168884277344 3143.68115234375 492.7205200195312 3143.7294921875 492.7205200195312 3143.7783203125 L 492.7205200195312 3148.81005859375 C 492.7205200195312 3149.4833984375 492.1393432617188 3150.029296875 491.4224853515625 3150.029296875 L 477.8019104003906 3150.029296875 C 477.6497192382812 3150.031494140625 477.4984130859375 3150.00439453125 477.3554992675781 3149.9541015625 C 477.0098876953125 3149.8369140625 476.73486328125 3149.587890625 476.5964660644531 3149.267578125 C 476.5331726074219 3149.12255859375 476.5010681152344 3148.966796875 476.5020141601562 3148.80908203125 L 476.5020141601562 3143.7783203125 C 476.5020141601562 3143.10546875 477.0831298828125 3142.55908203125 477.800048828125 3142.55810546875 Z" stroke="none" fill="#e86d21"/></g><path d="M493.7,3160.547H474.8v-3.3H493.69l.012,3.3" transform="translate(-469.226 -3106.964)" fill="none" stroke="#e86d21" stroke-linecap="round" stroke-linejoin="round" stroke-width="1.5"/><g transform="translate(3.884 53.583)"><path d="M479.257,3163.814h-1.705v-2.967h-2.689v2.967h-1.706a.2.2,0,0,0-.2.2v3.006a.2.2,0,0,0,.2.2h6.1a.2.2,0,0,0,.2-.2v-3.006A.2.2,0,0,0,479.257,3163.814Z" transform="translate(-472.956 -3160.847)" fill="none" stroke="#e86d21" stroke-linecap="round" stroke-linejoin="round" stroke-width="1.5"/><path d="M479.257,3163.814h-1.705v-2.967h-2.689v2.967h-1.706a.2.2,0,0,0-.2.2v3.006a.2.2,0,0,0,.2.2h6.1a.2.2,0,0,0,.2-.2v-3.006A.2.2,0,0,0,479.257,3163.814Z" transform="translate(-457.022 -3160.847)" fill="none" stroke="#e86d21" stroke-linecap="round" stroke-linejoin="round" stroke-width="1.5"/></g></g><rect width="86" height="70" transform="translate(-6596 3677)" fill="none"/></g></svg>