<svg xmlns="http://www.w3.org/2000/svg" width="157" height="101" viewBox="0 0 157 101"><g transform="translate(6897 -2808)"><g transform="translate(-6855 2816)"><rect width="32.522" height="19.513" rx="2.256" transform="translate(20.504)" fill="none" stroke="#e86d21" stroke-linecap="round" stroke-linejoin="round" stroke-width="1.75"/><path d="M0,0H22.765a0,0,0,0,1,0,0V9.867a2.058,2.058,0,0,1-2.058,2.058H2.058A2.058,2.058,0,0,1,0,9.867V0A0,0,0,0,1,0,0Z" transform="translate(25.382 19.513)" fill="none" stroke="#e86d21" stroke-linecap="round" stroke-linejoin="round" stroke-width="1.75"/><path d="M0,0H5.476A1.571,1.571,0,0,1,7.046,1.571V8.118A1.571,1.571,0,0,1,5.476,9.689H0a0,0,0,0,1,0,0V0A0,0,0,0,1,0,0Z" transform="translate(53.025 4.912)" fill="none" stroke="#e86d21" stroke-linecap="round" stroke-linejoin="round" stroke-width="1.75"/><path d="M3312.751,3442.581v52.543c0,.683-.971,1.237-2.168,1.237h0c-1.2,0-2.168-.554-2.168-1.237v-52.543Z" transform="translate(-3273.819 -3411.144)" fill="none" stroke="#e86d21" stroke-linecap="round" stroke-linejoin="round" stroke-width="1.75"/><path d="M3312.019,3442.581l34.43,46.4c.459.63-.065,1.354-1.172,1.616h0a2.939,2.939,0,0,1-2.833-.668l-30.425-42.4Z" transform="translate(-3273.086 -3411.144)" fill="none" stroke="#e86d21" stroke-linecap="round" stroke-linejoin="round" stroke-width="1.75"/><path d="M3314.258,3442.581l-34.43,46.4c-.458.63.065,1.354,1.171,1.616h0a2.941,2.941,0,0,0,2.835-.668l30.425-42.4Z" transform="translate(-3279.661 -3411.144)" fill="none" stroke="#e86d21" stroke-linecap="round" stroke-linejoin="round" stroke-width="1.75"/><line y1="4.767" x2="15.177" transform="translate(38.932 58.019)" fill="none" stroke="#e86d21" stroke-linecap="round" stroke-linejoin="round" stroke-width="1.75"/><line x2="15.177" y2="4.767" transform="translate(19.419 58.019)" fill="none" stroke="#e86d21" stroke-linecap="round" stroke-linejoin="round" stroke-width="1.75"/><ellipse cx="4.336" cy="4.336" rx="4.336" ry="4.336" transform="translate(32.428 5.42)" fill="none" stroke="#e86d21" stroke-linecap="round" stroke-linejoin="round" stroke-width="1.75"/><path d="M3329.1,3436.375l-3.548,6.5,4.985-1.406-4.027,7.19" transform="translate(-3270.335 -3412.404)" fill="none" stroke="#e86d21" stroke-linecap="round" stroke-linejoin="round" stroke-width="1.75"/><path d="M3335.455,3444.05l-3.548,6.5,4.985-1.406-4.027,7.19" transform="translate(-3269.045 -3410.845)" fill="none" stroke="#e86d21" stroke-linecap="round" stroke-linejoin="round" stroke-width="1.75"/><path d="M3290.267,3436.375l-3.548,6.5,4.986-1.406-4.027,7.19" transform="translate(-3278.227 -3412.404)" fill="none" stroke="#e86d21" stroke-linecap="round" stroke-linejoin="round" stroke-width="1.75"/><path d="M3296.617,3444.05l-3.547,6.5,4.985-1.406-4.027,7.19" transform="translate(-3276.937 -3410.845)" fill="none" stroke="#e86d21" stroke-linecap="round" stroke-linejoin="round" stroke-width="1.75"/></g><rect width="157" height="101" transform="translate(-6897 2808)" fill="none"/></g></svg>