<svg xmlns="http://www.w3.org/2000/svg" width="130" height="106" viewBox="0 0 130 106"><g transform="translate(6421 -2722)"><g transform="translate(-6400 2737)"><g transform="translate(0 17.91)"><path d="M3094.213,2976.88a.952.952,0,0,1-.93.592c-2.465-.147-5.419.072-6.771,1.684-1.1,1.314-1.252,3.572-.458,6.914a.941.941,0,0,1-.415,1.016,20.332,20.332,0,0,1-2.9,1.5.946.946,0,0,1-1.064-.259c-2.192-2.451-4.263-3.66-6.013-3.507-1.666.149-3.39,1.663-5.145,4.52a.952.952,0,0,1-1.014.444,18.77,18.77,0,0,1-3.267-1.039.952.952,0,0,1-.56-.941c.2-3.316-.362-5.553-1.674-6.655a3.994,3.994,0,0,0-1.378-.734,10.847,10.847,0,0,0-5.539.18.948.948,0,0,1-1.021-.422,20.14,20.14,0,0,1-1.488-2.893.952.952,0,0,1,.262-1.073c2.48-2.211,3.66-4.2,3.509-5.913s-1.706-3.5-4.527-5.246a.949.949,0,0,1-.44-1.011c.128-.559.277-1.111.445-1.647s.359-1.064.582-1.594a.957.957,0,0,1,.937-.593c3.417.219,5.6-.3,6.676-1.578,1.124-1.34,1.311-3.745.552-7a.954.954,0,0,1,.409-1.033,20.453,20.453,0,0,1,2.9-1.494.94.94,0,0,1,1.061.249c2.287,2.586,4.233,3.772,5.932,3.621,2.054-.182,3.928-2.5,5.245-4.646a.938.938,0,0,1,1-.426,18.787,18.787,0,0,1,3.268,1.039.95.95,0,0,1,.56.942c-.215,3.424.317,5.7,1.584,6.76,1.3,1.094,3.645,1.245,6.989.452a.954.954,0,0,1,1.036.41,20.318,20.318,0,0,1,1.492,2.9.955.955,0,0,1-.262,1.073c-2.509,2.238-3.751,4.313-3.6,6.021.146,1.652,1.656,3.334,4.625,5.146a.944.944,0,0,1,.43,1.01c-.127.559-.277,1.108-.444,1.641S3094.437,2976.349,3094.213,2976.88Z" transform="translate(-3053.354 -2947.868)" fill="none" stroke="#e86d21" stroke-linecap="round" stroke-linejoin="round" stroke-width="2"/><path d="M3071.55,2976.363a8.2,8.2,0,1,1,10.28-5.363A8.207,8.207,0,0,1,3071.55,2976.363Z" transform="translate(-3053.057 -2947.571)" fill="none" stroke="#e86d21" stroke-linecap="round" stroke-linejoin="round" stroke-width="2"/></g><g transform="translate(38.3 0)"><path d="M3119.021,2950.439a.661.661,0,0,1-.644.41c-1.7-.1-3.748.049-4.683,1.164-.763.91-.866,2.472-.316,4.782a.653.653,0,0,1-.287.7,14.146,14.146,0,0,1-2.009,1.035.655.655,0,0,1-.735-.179c-1.516-1.7-2.948-2.532-4.159-2.425-1.152.1-2.344,1.149-3.558,3.125a.66.66,0,0,1-.7.309,12.993,12.993,0,0,1-2.26-.719.66.66,0,0,1-.387-.651c.138-2.293-.251-3.84-1.158-4.6a2.737,2.737,0,0,0-.954-.508,7.494,7.494,0,0,0-3.83.125.657.657,0,0,1-.706-.292,13.835,13.835,0,0,1-1.029-2,.657.657,0,0,1,.181-.742c1.715-1.53,2.532-2.9,2.428-4.089s-1.181-2.423-3.132-3.628a.656.656,0,0,1-.3-.7c.088-.388.191-.77.308-1.139s.248-.736.4-1.1a.66.66,0,0,1,.647-.409c2.364.151,3.876-.208,4.619-1.092.777-.926.906-2.59.381-4.844a.659.659,0,0,1,.283-.714,14.1,14.1,0,0,1,2-1.033.651.651,0,0,1,.734.171c1.582,1.789,2.927,2.609,4.1,2.5,1.42-.125,2.716-1.732,3.627-3.213a.649.649,0,0,1,.693-.294,12.964,12.964,0,0,1,2.261.719.656.656,0,0,1,.386.651c-.148,2.368.22,3.939,1.1,4.675.9.757,2.521.861,4.833.313a.66.66,0,0,1,.717.283,13.962,13.962,0,0,1,1.032,2.006.661.661,0,0,1-.181.742c-1.736,1.548-2.595,2.982-2.49,4.164.1,1.144,1.145,2.306,3.2,3.559a.652.652,0,0,1,.3.7c-.088.387-.19.767-.306,1.135S3119.177,2950.072,3119.021,2950.439Z" transform="translate(-3090.764 -2930.375)" fill="none" stroke="#e86d21" stroke-linecap="round" stroke-linejoin="round" stroke-width="2"/><path d="M3103.348,2950.082a5.672,5.672,0,1,1,7.109-3.709A5.677,5.677,0,0,1,3103.348,2950.082Z" transform="translate(-3090.559 -2930.169)" fill="none" stroke="#e86d21" stroke-linecap="round" stroke-linejoin="round" stroke-width="2"/></g><path d="M3087.947,3006.462a2.188,2.188,0,0,1-1.491-.766l-2.092-2.462a2.262,2.262,0,0,1-.536-1.106,2.184,2.184,0,0,1,.743-2.016l33.548-28.465v0l-.48-1.239c-1.648-4.258-.71-8.17,2.643-11.015a15.1,15.1,0,0,1,10.657-3.29l.068.006a.978.978,0,0,1,.531,1.723l-4.717,3.983a4.938,4.938,0,0,0-1.716,4.326,5.061,5.061,0,0,0,1.223,2.723l.831.98a5.071,5.071,0,0,0,2.5,1.653,4.942,4.942,0,0,0,4.541-.99l4.753-4.031a.955.955,0,0,1,1.568.811,14.965,14.965,0,0,1-4.99,10.062,9.2,9.2,0,0,1-6.773,2.33,10.645,10.645,0,0,1-4.533-1.514l-1.143-.674h0l-33.546,28.465a2.162,2.162,0,0,1-1.588.509Z" transform="translate(-3052.629 -2929.763)" fill="none" stroke="#e86d21" stroke-linecap="round" stroke-linejoin="round" stroke-width="2"/></g><rect width="130" height="106" transform="translate(-6421 2722)" fill="none"/></g></svg>