<svg xmlns="http://www.w3.org/2000/svg" width="86" height="70" viewBox="0 0 86 70"><g transform="translate(6743 -3261)"><g transform="translate(-6720 3266.277)"><path d="M3873.953,3433.732v40.99a3.849,3.849,0,0,0,3.849,3.849h35.125a3.849,3.849,0,0,0,3.85-3.849v-46.4a3.849,3.849,0,0,0-3.85-3.849h-29.641" transform="translate(-3873.953 -3424.475)" fill="none" stroke="#e86d21" stroke-linecap="round" stroke-linejoin="round" stroke-width="2"/><path d="M3883.286,3424.475l-9.333,9.257h9.182Z" transform="translate(-3873.953 -3424.475)" fill="none" stroke="#e86d21" stroke-linecap="round" stroke-linejoin="round" stroke-width="2"/><line x2="30.48" transform="translate(6.472 14.826)" fill="none" stroke="#e86d21" stroke-linecap="round" stroke-linejoin="round" stroke-width="2"/><line x2="30.48" transform="translate(6.472 22.352)" fill="none" stroke="#e86d21" stroke-linecap="round" stroke-linejoin="round" stroke-width="2"/><line x2="30.48" transform="translate(6.472 30.012)" fill="none" stroke="#e86d21" stroke-linecap="round" stroke-linejoin="round" stroke-width="2"/><line x2="14.45" transform="translate(6.472 37.254)" fill="none" stroke="#e86d21" stroke-linecap="round" stroke-linejoin="round" stroke-width="2"/><line x2="12.418" transform="translate(6.472 44.855)" fill="none" stroke="#e86d21" stroke-linecap="round" stroke-linejoin="round" stroke-width="2"/><path d="M3920.492,3476.745l-4.538-4.538a10.566,10.566,0,1,0-3.517,3.509l4.542,4.542a2.484,2.484,0,0,0,3.513-3.513Z" transform="translate(-3871.873 -3421.541)" fill="#fff" stroke="#e86d21" stroke-linecap="round" stroke-linejoin="round" stroke-width="2"/><g transform="translate(30.746 40.112)"><g transform="translate(-3902.095 -3461.19)" fill="#e86d21" stroke-linecap="round" stroke-linejoin="round"><path d="M3905.919,3472.155v-2.884h-2.943v-.716h2.943v-1.271h-2.943v-.717h2.525l-3.405-5.377h1.449l2.36,4c.269.494.418.823.642,1.3h.061c.224-.418.433-.851.7-1.345l2.465-3.958h1.45l-3.646,5.377h2.5v.717h-2.928v1.271h2.928v.716h-2.928v2.884Z" stroke="none"/><path d="M 3907.1435546875 3472.15478515625 L 3905.9189453125 3472.15478515625 L 3905.9189453125 3469.271240234375 L 3902.9755859375 3469.271240234375 L 3902.9755859375 3468.554931640625 L 3905.9189453125 3468.554931640625 L 3905.9189453125 3467.284423828125 L 3902.9755859375 3467.284423828125 L 3902.9755859375 3466.5673828125 L 3905.50048828125 3466.5673828125 L 3902.09521484375 3461.190185546875 L 3903.5439453125 3461.190185546875 L 3905.90380859375 3465.193115234375 C 3906.17236328125 3465.68701171875 3906.322265625 3466.015869140625 3906.5458984375 3466.493408203125 L 3906.6064453125 3466.493408203125 C 3906.830078125 3466.074951171875 3907.0390625 3465.642333984375 3907.3076171875 3465.1484375 L 3909.7724609375 3461.190185546875 L 3911.22216796875 3461.190185546875 L 3907.576171875 3466.5673828125 L 3910.07177734375 3466.5673828125 L 3910.07177734375 3467.284423828125 L 3907.1435546875 3467.284423828125 L 3907.1435546875 3468.554931640625 L 3910.07177734375 3468.554931640625 L 3910.07177734375 3469.271240234375 L 3907.1435546875 3469.271240234375 L 3907.1435546875 3472.15478515625 Z" stroke="none" fill="#e86d21"/></g></g></g><rect width="86" height="70" transform="translate(-6743 3261)" fill="none"/></g></svg>