<svg xmlns="http://www.w3.org/2000/svg" width="86" height="70" viewBox="0 0 86 70"><g transform="translate(6442 -3712)"><g transform="translate(-6869 275.171)"><rect width="22.621" height="42.915" transform="translate(470.861 3445.829)" fill="none" stroke="#e86d21" stroke-linecap="round" stroke-linejoin="round" stroke-width="1.5"/><g transform="translate(446 3455.793)"><path d="M460.107,3422.029v32.16a3.021,3.021,0,0,0,3.02,3.021h27.559a3.021,3.021,0,0,0,3.02-3.021v-36.4a3.021,3.021,0,0,0-3.02-3.021H467.429" transform="translate(-460.107 -3414.765)" fill="#fff" stroke="#e86d21" stroke-linecap="round" stroke-linejoin="round" stroke-width="1.5"/><path d="M467.429,3414.766l-7.322,7.263h7.2Z" transform="translate(-460.107 -3414.765)" fill="none" stroke="#e86d21" stroke-linecap="round" stroke-linejoin="round" stroke-width="1.5"/><line x2="23.915" transform="translate(5.078 11.633)" fill="none" stroke="#e86d21" stroke-linecap="round" stroke-linejoin="round" stroke-width="1.5"/><line x2="23.915" transform="translate(5.078 17.538)" fill="none" stroke="#e86d21" stroke-linecap="round" stroke-linejoin="round" stroke-width="1.5"/><line x2="23.915" transform="translate(5.078 23.548)" fill="none" stroke="#e86d21" stroke-linecap="round" stroke-linejoin="round" stroke-width="1.5"/><line x2="23.915" transform="translate(5.078 29.23)" fill="none" stroke="#e86d21" stroke-linecap="round" stroke-linejoin="round" stroke-width="1.5"/><line x2="23.915" transform="translate(5.078 35.194)" fill="none" stroke="#e86d21" stroke-linecap="round" stroke-linejoin="round" stroke-width="1.5"/></g><path d="M491.429,3404.757l1.676,3.6H508.36l1.711-3.6" transform="translate(-18.58 42.457)" fill="none" stroke="#e86d21" stroke-linecap="round" stroke-linejoin="round" stroke-width="1.5"/></g><rect width="86" height="70" transform="translate(-6442 3712)" fill="none"/></g></svg>