<svg xmlns="http://www.w3.org/2000/svg" width="38" height="38" viewBox="0 0 38 38"><g transform="translate(-1473 -655)"><rect width="38" height="38" rx="5" transform="translate(1473 655)" fill="#22c755"/><g transform="translate(23.549 -110.025)"><path d="M176.714,27.166c0-5.561-5.575-10.086-12.428-10.086S151.858,21.6,151.858,27.166c0,4.985,4.422,9.161,10.394,9.95.4.088.956.267,1.095.613a2.551,2.551,0,0,1,.04,1.123s-.146.877-.177,1.064c-.054.314-.25,1.229,1.077.67s7.157-4.215,9.765-7.216h0a8.975,8.975,0,0,0,2.664-6.205" transform="translate(1304.164 756.214)" fill="#fff"/><path d="M180.394,33.779H176.9a.237.237,0,0,1-.238-.237v0h0v-5.42a.237.237,0,0,1,.238-.237h3.491a.238.238,0,0,1,.237.237V29a.238.238,0,0,1-.237.238h-2.373v.915h2.373a.238.238,0,0,1,.237.237v.882a.237.237,0,0,1-.237.237h-2.373v.915h2.373a.238.238,0,0,1,.237.238v.882a.237.237,0,0,1-.237.237" transform="translate(1296.35 752.812)" fill="#06c755"/><path d="M161.539,33.779a.237.237,0,0,0,.237-.237V32.66a.238.238,0,0,0-.237-.238h-2.373V28.117a.238.238,0,0,0-.238-.237h-.881a.237.237,0,0,0-.238.237v5.42h0v0a.237.237,0,0,0,.238.237h3.491Z" transform="translate(1302.289 752.812)" fill="#06c755"/><path d="M165.808,27.88h-.882a.237.237,0,0,0-.237.237v5.424a.237.237,0,0,0,.237.237h.882a.237.237,0,0,0,.237-.237V28.117a.237.237,0,0,0-.237-.237" transform="translate(1300.123 752.812)" fill="#06c755"/><path d="M172.822,27.88h-.882a.237.237,0,0,0-.237.237v3.222l-2.482-3.351a.169.169,0,0,0-.019-.025h0l-.014-.015,0,0-.013-.011-.007,0-.012-.008-.007,0-.014-.007-.008,0-.014-.005-.008,0-.014,0-.008,0-.014,0h-.92a.237.237,0,0,0-.238.237v5.424a.237.237,0,0,0,.238.237h.881a.237.237,0,0,0,.238-.237V30.321l2.484,3.356a.24.24,0,0,0,.061.06l0,0,.015.009.007,0,.012.005.012,0,.008,0,.016.005h0a.231.231,0,0,0,.062.008h.877a.237.237,0,0,0,.237-.237V28.117a.237.237,0,0,0-.237-.237" transform="translate(1299.109 752.812)" fill="#06c755"/></g></g></svg>