<svg xmlns="http://www.w3.org/2000/svg" xmlns:xlink="http://www.w3.org/1999/xlink" width="20.785" height="22.731" viewBox="0 0 20.785 22.731"><defs><clipPath id="a"><rect width="20.785" height="22.731" fill="#3ba4ff"/></clipPath></defs><g clip-path="url(#a)"><path d="M18.075,10.444A.624.624,0,1,1,18.7,9.82a.623.623,0,0,1-.624.624m-11.1,9.2h6.839v1.182H6.973Zm0-2.07h6.839v1.182H6.973Zm0-2.07h6.839v1.181H6.973Zm8.7-1.906H5.11v9.133H15.674V13.6ZM4.554,6.567H16.231V0H4.554ZM0,9.5v7.977H4.554V13.042H16.231v4.436h4.554V9.5a2.383,2.383,0,0,0-2.373-2.378H2.373A2.383,2.383,0,0,0,0,9.5Z" fill="#3ba4ff" fill-rule="evenodd"/></g></svg>