<svg xmlns="http://www.w3.org/2000/svg" xmlns:xlink="http://www.w3.org/1999/xlink" width="70" height="70" viewBox="0 0 70 70"><defs><clipPath id="a"><rect width="70" height="70" transform="translate(812 937)" fill="#fff" stroke="#4f4d4d" stroke-width="1"/></clipPath></defs><g transform="translate(-812 -937)" clip-path="url(#a)"><g transform="translate(818.475 938.939)"><rect width="25.234" height="15.14" rx="2.256" transform="translate(15.909)" fill="none" stroke="#e86d21" stroke-linecap="round" stroke-linejoin="round" stroke-width="2"/><path d="M0,0H17.663a0,0,0,0,1,0,0V7.195a2.058,2.058,0,0,1-2.058,2.058H2.058A2.058,2.058,0,0,1,0,7.195V0A0,0,0,0,1,0,0Z" transform="translate(19.694 15.14)" fill="none" stroke="#e86d21" stroke-linecap="round" stroke-linejoin="round" stroke-width="2"/><path d="M0,0H3.9A1.571,1.571,0,0,1,5.467,1.571V5.947A1.571,1.571,0,0,1,3.9,7.517H0a0,0,0,0,1,0,0V0A0,0,0,0,1,0,0Z" transform="translate(41.142 3.811)" fill="none" stroke="#e86d21" stroke-linecap="round" stroke-linejoin="round" stroke-width="2"/><path d="M3311.78,3442.581v40.768c0,.53-.754.959-1.682.959h0c-.929,0-1.683-.43-1.683-.959v-40.768Z" transform="translate(-3281.572 -3418.189)" fill="none" stroke="#e86d21" stroke-linecap="round" stroke-linejoin="round" stroke-width="2"/><path d="M3312.02,3442.581l26.714,36c.356.489-.05,1.05-.909,1.254h0a2.28,2.28,0,0,1-2.2-.518l-23.606-32.9Z" transform="translate(-3281.812 -3418.189)" fill="none" stroke="#e86d21" stroke-linecap="round" stroke-linejoin="round" stroke-width="2"/><path d="M3306.5,3442.581l-26.714,36c-.356.489.05,1.05.908,1.254h0a2.281,2.281,0,0,0,2.2-.518l23.606-32.9Z" transform="translate(-3279.661 -3418.189)" fill="none" stroke="#e86d21" stroke-linecap="round" stroke-linejoin="round" stroke-width="2"/><line y1="3.698" x2="11.776" transform="translate(30.207 45.016)" fill="none" stroke="#e86d21" stroke-linecap="round" stroke-linejoin="round" stroke-width="2"/><line x2="11.776" y2="3.698" transform="translate(15.067 45.016)" fill="none" stroke="#e86d21" stroke-linecap="round" stroke-linejoin="round" stroke-width="2"/><ellipse cx="3.364" cy="3.364" rx="3.364" ry="3.364" transform="translate(25.161 4.206)" fill="none" stroke="#e86d21" stroke-linecap="round" stroke-linejoin="round" stroke-width="2"/></g></g></svg>