<svg xmlns="http://www.w3.org/2000/svg" xmlns:xlink="http://www.w3.org/1999/xlink" width="70" height="70" viewBox="0 0 70 70"><defs><clipPath id="a"><rect width="70" height="70" transform="translate(812 937)" fill="#fff" stroke="#4f4d4d" stroke-width="1"/></clipPath></defs><g transform="translate(-812 -937)" clip-path="url(#a)"><g transform="translate(822.235 947.415)"><path d="M3912.884,3191.238H3871.61v-40.5a4.321,4.321,0,0,1,4.321-4.321h40.888a4.321,4.321,0,0,1,4.321,4.321v32.716" transform="translate(-3871.61 -3142.068)" fill="none" stroke="#e86d21" stroke-linecap="round" stroke-linejoin="round" stroke-width="2"/><path d="M4.428,0H45.1A4.428,4.428,0,0,1,49.53,4.428v8.5a0,0,0,0,1,0,0H0a0,0,0,0,1,0,0v-8.5A4.428,4.428,0,0,1,4.428,0Z" transform="translate(0 4.345)" fill="none" stroke="#e86d21" stroke-linecap="round" stroke-linejoin="round" stroke-width="2"/><g transform="translate(11.042 0)"><path d="M3886.953,3144.821v-2.861h-4.027v9.219" transform="translate(-3882.926 -3141.96)" fill="none" stroke="#e86d21" stroke-linecap="round" stroke-linejoin="round" stroke-width="2"/><path d="M3910.953,3144.821v-2.861h-4.027v9.219" transform="translate(-3883.507 -3141.96)" fill="none" stroke="#e86d21" stroke-linecap="round" stroke-linejoin="round" stroke-width="2"/></g><path d="M3896.907,3187.148a2,2,0,0,1-2-2v-13.065a2,2,0,0,1-2.9-2.729l3.317-4.292a2,2,0,0,1,3.583,1.223v18.863A2,2,0,0,1,3896.907,3187.148Z" transform="translate(-3872.142 -3142.549)" fill="#e86d21"/><path d="M3913.909,3184.446v7.71l8.255-7.789Z" transform="translate(-3872.634 -3142.986)" fill="none" stroke="#e86d21" stroke-linecap="round" stroke-linejoin="round" stroke-width="2"/></g></g></svg>