<svg xmlns="http://www.w3.org/2000/svg" xmlns:xlink="http://www.w3.org/1999/xlink" width="70" height="70" viewBox="0 0 70 70"><defs><clipPath id="a"><rect width="70" height="70" transform="translate(812 937)" fill="#fff" stroke="#4f4d4d" stroke-width="1"/></clipPath></defs><g transform="translate(-812 -937)" clip-path="url(#a)"><g transform="translate(828.681 938.633)"><path d="M3901.77,3058.96H3890.7l.557-6.077a1.906,1.906,0,0,1,1.9-1.731h6.159a1.905,1.905,0,0,1,1.9,1.731Z" transform="translate(-3878.949 -3043.246)" fill="none" stroke="#e86d21" stroke-linecap="round" stroke-linejoin="round" stroke-width="2"/><path d="M3896.211,3062.709a4.994,4.994,0,1,1-4.993,4.994,4.994,4.994,0,0,1,4.993-4.994Z" transform="translate(-3878.927 -3042.733)" fill="none" stroke="#e86d21" stroke-linecap="round" stroke-linejoin="round" stroke-width="2"/><path d="M3912.447,3084.361h1.907a.279.279,0,0,1,.28.279v4.918a.28.28,0,0,1-.279.279H3912.2" transform="translate(-3877.997 -3041.774)" fill="none" stroke="#e86d21" stroke-linecap="round" stroke-linejoin="round" stroke-width="2"/><path d="M3902.219,3056.781h9.867a91.138,91.138,0,0,0-1.569-10.064,4.176,4.176,0,0,0-3.72-3.136H3886.51a4.176,4.176,0,0,0-3.72,3.136,91.032,91.032,0,0,0-1.568,10.065h9.866" transform="translate(-3879.37 -3043.581)" fill="none" stroke="#e86d21" stroke-linecap="round" stroke-linejoin="round" stroke-width="2"/><path d="M3886.135,3082.31v-26.089H3881.3s-3.086,11.78-1.292,37.934a2.118,2.118,0,0,0,2.112,1.973h4.015" transform="translate(-3879.448 -3043.021)" fill="none" stroke="#e86d21" stroke-linecap="round" stroke-linejoin="round" stroke-width="2"/><path d="M3906.149,3082.31v-26.089h4.834s3.085,11.779,1.294,37.933a2.119,2.119,0,0,1-2.113,1.974h-4.015" transform="translate(-3878.265 -3043.021)" fill="none" stroke="#e86d21" stroke-linecap="round" stroke-linejoin="round" stroke-width="2"/><path d="M3907.373,3098.6h-21.6l-2.684-4.17h26.967Z" transform="translate(-3879.287 -3041.327)" fill="none" stroke="#e86d21" stroke-linecap="round" stroke-linejoin="round" stroke-width="2"/><rect width="24.116" height="13.817" rx="0.666" transform="translate(5.228 39.289)" fill="none" stroke="#e86d21" stroke-linecap="round" stroke-linejoin="round" stroke-width="2"/><path d="M3894.245,3054.711a1.857,1.857,0,1,1,1.535,2.13A1.858,1.858,0,0,1,3894.245,3054.711Z" transform="translate(-3878.794 -3043.157)" fill="none" stroke="#e86d21" stroke-linecap="round" stroke-linejoin="round" stroke-width="2"/><path d="M3905.707,3085.134v5.731a1.435,1.435,0,0,1-1.479,1.389h-15.516a1.53,1.53,0,0,1-.509-.085,1.443,1.443,0,0,1-.864-.782,1.3,1.3,0,0,1-.108-.523v-5.73a1.435,1.435,0,0,1,1.479-1.39h15.517a1.448,1.448,0,0,1,1.468,1.224A.972.972,0,0,1,3905.707,3085.134Z" transform="translate(-3879.103 -3041.802)" fill="none" stroke="#e86d21" stroke-linecap="round" stroke-linejoin="round" stroke-width="2"/><path d="M3907.063,3102.192h-21.531v-3.764h21.517l.014,3.764" transform="translate(-3879.179 -3041.151)" fill="none" stroke="#e86d21" stroke-linecap="round" stroke-linejoin="round" stroke-width="2"/><g transform="translate(4.425 61.041)"><path d="M3908.3,3105.41h-1.943v-3.379H3903.3v3.379h-1.943a.229.229,0,0,0-.229.23v1.855a.229.229,0,0,0,.229.23h6.948a.231.231,0,0,0,.23-.23v-1.855A.23.23,0,0,0,3908.3,3105.41Z" transform="translate(-3882.912 -3102.032)" fill="none" stroke="#e86d21" stroke-linecap="round" stroke-linejoin="round" stroke-width="2"/><path d="M3890.864,3105.411h-1.943v-3.38h-3.062v3.38h-1.944a.23.23,0,0,0-.23.229v1.856a.23.23,0,0,0,.23.229h6.949a.229.229,0,0,0,.229-.229v-1.856A.229.229,0,0,0,3890.864,3105.411Z" transform="translate(-3883.685 -3102.032)" fill="none" stroke="#e86d21" stroke-linecap="round" stroke-linejoin="round" stroke-width="2"/></g></g></g></svg>