<svg xmlns="http://www.w3.org/2000/svg" xmlns:xlink="http://www.w3.org/1999/xlink" width="70" height="70" viewBox="0 0 70 70"><defs><clipPath id="a"><rect width="70" height="70" transform="translate(812 937)" fill="#fff" stroke="#4f4d4d" stroke-width="1"/></clipPath></defs><g transform="translate(-812 -937)" clip-path="url(#a)"><g transform="translate(810.213 952.689)"><path d="M3868.66,3266.8a3.987,3.987,0,0,0,3.987,3.987h26.372a3.987,3.987,0,0,0,3.987-3.987v-23.393a3.988,3.988,0,0,0-3.987-3.988h-26.372a3.988,3.988,0,0,0-3.987,3.988" transform="translate(-3853.186 -3239.42)" fill="none" stroke="#e86d21" stroke-linecap="round" stroke-linejoin="round" stroke-width="2"/><path d="M3909.095,3246.65h10.125a3.489,3.489,0,0,1,3.107,1.9l6.027,11.8v8.679a2.886,2.886,0,0,1-2.887,2.886h-20.855" transform="translate(-3858.778 -3240.545)" fill="none" stroke="#e86d21" stroke-linecap="round" stroke-linejoin="round" stroke-width="2"/><path d="M3917.973,3252.939v8.686h12.458" transform="translate(-3860.856 -3241.523)" fill="none" stroke="#e86d21" stroke-linecap="round" stroke-linejoin="round" stroke-width="2"/><ellipse cx="6.204" cy="6.204" rx="6.204" ry="6.204" transform="translate(22.356 26.212)" fill="#fff" stroke="#e86d21" stroke-linecap="round" stroke-linejoin="round" stroke-width="2"/><ellipse cx="6.204" cy="6.204" rx="6.204" ry="6.204" transform="translate(51.716 26.212)" fill="#fff" stroke="#e86d21" stroke-linecap="round" stroke-linejoin="round" stroke-width="2"/><line x2="15.833" transform="translate(18.186 7.197)" fill="none" stroke="#e86d21" stroke-linecap="round" stroke-linejoin="round" stroke-width="2"/><line x2="15.833" transform="translate(11.089 13.104)" fill="none" stroke="#e86d21" stroke-linecap="round" stroke-linejoin="round" stroke-width="2"/><line x2="15.833" transform="translate(15.853 18.737)" fill="none" stroke="#e86d21" stroke-linecap="round" stroke-linejoin="round" stroke-width="2"/><line x2="9.588" transform="translate(10.692 24.371)" fill="none" stroke="#e86d21" stroke-linecap="round" stroke-linejoin="round" stroke-width="2"/><line x2="5.162" transform="translate(4 18.415)" fill="none" stroke="#e86d21" stroke-linecap="round" stroke-linejoin="round" stroke-width="2"/><line x2="5.162" transform="translate(6.879 7.197)" fill="none" stroke="#e86d21" stroke-linecap="round" stroke-linejoin="round" stroke-width="2"/></g></g></svg>