<svg xmlns="http://www.w3.org/2000/svg" xmlns:xlink="http://www.w3.org/1999/xlink" width="60" height="56" viewBox="0 0 60 56"><defs><clipPath id="a"><rect width="60" height="56" transform="translate(0 0.471)" fill="#3e3a39"/></clipPath></defs><g transform="translate(0 -0.471)"><g transform="translate(0 0)" clip-path="url(#a)"><path d="M36.25,0H22.52a4.358,4.358,0,0,0-4,2.254l-5.649,9.7,11.611,6.672L33.665,2.8A8.954,8.954,0,0,1,36.25,0" transform="translate(-2.056 -0.003)" fill="#3e3a39"/><path d="M51.417,17.571,55.892,4.845l-3.376,2.02a45.237,45.237,0,0,0-2.82-4.5A6.2,6.2,0,0,0,44.906.193a6.66,6.66,0,0,0-4.865,1.865,31.346,31.346,0,0,0-2.9,4.418l4.161,7.374L38.32,15.4Z" transform="translate(-5.932 -0.035)" fill="#3e3a39"/><path d="M15.135,34.936l2.9,1.865L13.488,24.467,0,26.869l3.524,2.014c-1.252,1.919-1.909,2.929-1.96,3.031A7.038,7.038,0,0,0,.7,35.244q0,2.094,2.668,6.982c1.3,2.43,2.643,4.832,4,7.215q.316-2.328,3.536-7.682,2.108-3.407,4.233-6.823" transform="translate(0 -4.137)" fill="#3e3a39"/><path d="M10.452,54.34a6.518,6.518,0,0,0,1.839,4.229A5.2,5.2,0,0,0,16.172,60.7h11.3V47.515H13.349q-2.9,4.577-2.9,6.824" transform="translate(-1.669 -8.032)" fill="#3e3a39"/><path d="M61.933,23.338,50.4,29.935l7.06,12.1H59.1q8.944,0,8.943-7.058,0-1.705-2.514-5.971-1.8-2.8-3.6-5.669" transform="translate(-8.048 -3.946)" fill="#3e3a39"/><path d="M51.426,46.807H46.018l.159-3.49L37.706,53.4l8.859,10.388V59.765l4,.151q3.215.151,6.977-5.353,2.594-4.185,5.106-8.376a17.586,17.586,0,0,1-5.807.7q-1.8,0-5.414-.085" transform="translate(-6.021 -7.323)" fill="#3e3a39"/></g></g></svg>