<svg xmlns="http://www.w3.org/2000/svg" width="86" height="70" viewBox="0 0 86 70"><g transform="translate(6819 -3705)"><g transform="translate(-6799 3712)"><path d="M467.468,2967.779v38.906a3.653,3.653,0,0,0,3.653,3.653h33.339a3.653,3.653,0,0,0,3.653-3.653v-44.04a3.654,3.654,0,0,0-3.653-3.653H476.326" transform="translate(-467.468 -2958.992)" fill="none" stroke="#e86d21" stroke-linecap="round" stroke-linejoin="round" stroke-width="1.5"/><path d="M476.326,2958.992l-8.858,8.787h8.715Z" transform="translate(-467.468 -2958.992)" fill="none" stroke="#e86d21" stroke-linecap="round" stroke-linejoin="round" stroke-width="1.5"/><line x2="28.931" transform="translate(6.143 14.073)" fill="none" stroke="#e86d21" stroke-linecap="round" stroke-linejoin="round" stroke-width="1.5"/><line x2="28.931" transform="translate(6.143 21.217)" fill="none" stroke="#e86d21" stroke-linecap="round" stroke-linejoin="round" stroke-width="1.5"/><line x2="28.931" transform="translate(6.143 28.487)" fill="none" stroke="#e86d21" stroke-linecap="round" stroke-linejoin="round" stroke-width="1.5"/><line x2="13.716" transform="translate(6.143 35.361)" fill="none" stroke="#e86d21" stroke-linecap="round" stroke-linejoin="round" stroke-width="1.5"/><line x2="11.787" transform="translate(6.143 42.576)" fill="none" stroke="#e86d21" stroke-linecap="round" stroke-linejoin="round" stroke-width="1.5"/><path d="M512.784,3010.219l-4.308-4.308a10.024,10.024,0,1,0-3.338,3.331l4.311,4.311a2.358,2.358,0,0,0,3.335-3.334Z" transform="translate(-466.636 -2957.819)" fill="#fff" stroke="#e86d21" stroke-linecap="round" stroke-linejoin="round" stroke-width="1.5"/><path d="M6.6,0A6.6,6.6,0,1,1,0,6.6,6.6,6.6,0,0,1,6.6,0Z" transform="translate(26.626 36.348)" fill="none" stroke="#e86d21" stroke-linecap="round" stroke-width="1.5"/></g><rect width="86" height="70" transform="translate(-6819 3705)" fill="none"/></g></svg>