<svg xmlns="http://www.w3.org/2000/svg" width="86" height="70" viewBox="0 0 86 70"><g transform="translate(7145 -3729)"><g transform="translate(-7128.999 3738.089)"><path d="M3914.21,3377.326a25.91,25.91,0,1,1,8.272-22.614" transform="translate(-3870.884 -3332.227)" fill="none" stroke="#e86d21" stroke-linecap="round" stroke-linejoin="round" stroke-width="1.5"/><path d="M3922.972,3370.784v8.548a1.187,1.187,0,0,1-1.187,1.187h-5a1.188,1.188,0,0,1-1.188-1.187v-8.548h-3.537a1.188,1.188,0,0,1-1.006-1.818l7.118-11.349a1.187,1.187,0,0,1,2-.012l7.3,11.35a1.187,1.187,0,0,1-1,1.83Z" transform="translate(-3867.671 -3330.597)" fill="none" stroke="#e86d21" stroke-linecap="round" stroke-linejoin="round" stroke-width="1.5"/><g transform="translate(16.555 15.98)"><path d="M3893.808,3369.088v-5.84h-5.961V3361.8h5.961v-2.572h-5.961v-1.453h5.114l-6.9-10.894H3889l4.781,8.11c.545,1,.848,1.665,1.3,2.633h.121c.454-.848.877-1.726,1.423-2.724l4.992-8.02h2.935l-7.384,10.894h5.053v1.453h-5.931v2.572h5.931v1.453h-5.931v5.84Z" transform="translate(-3886.061 -3346.876)" fill="#e86d21" stroke="#e86d21" stroke-linecap="round" stroke-linejoin="round" stroke-width="1.5"/></g></g><rect width="86" height="70" transform="translate(-7145 3729)" fill="none"/></g></svg>