<svg width="70" height="63" viewBox="0 0 70 63" fill="none" xmlns="http://www.w3.org/2000/svg">
<g clip-path="url(#clip0_344_413)">
<g clip-path="url(#clip1_344_413)">
<mask id="mask0_344_413" style="mask-type:luminance" maskUnits="userSpaceOnUse" x="27" y="5" width="54" height="54">
<path d="M80.593 5.38086H27.6875V58.2863H80.593V5.38086Z" fill="white"/>
</mask>
<g mask="url(#mask0_344_413)">
<path d="M45.0572 6.51758H47.3246H60.173L62.4404 6.89547L63.5741 8.78496L65.4636 19.7439L66.2194 28.4356V38.2609L67.731 39.0166V42.7956H66.5973L65.8415 45.063L65.0857 46.5746L63.1962 47.3304L61.3067 50.7314V54.8883L62.4404 55.2662L62.8183 56.7778H57.5278V55.6441L58.6614 54.8883L59.0393 53.7546L58.6614 52.9988H47.7025V54.8883L48.8361 55.6441V57.1557L43.5456 56.7778V55.6441L45.0572 54.8883V50.7314L43.9235 47.3304L42.034 46.5746L40.9003 44.6851L40.1445 26.5461L41.2782 17.0987L43.1677 8.40706L45.0572 6.51758Z" fill="white"/>
<path d="M57.5268 18.4949H49.1602L49.5812 13.902C49.6142 13.5441 49.7798 13.2115 50.0455 12.9694C50.3112 12.7274 50.6577 12.5934 51.0172 12.5938H55.672C56.0315 12.5932 56.3782 12.727 56.6439 12.9691C56.9096 13.2112 57.0753 13.544 57.1082 13.902L57.5268 18.4949Z" stroke="#E86D21" stroke-width="1.51158" stroke-linecap="round" stroke-linejoin="round"/>
<path d="M53.3478 21.7129C54.0944 21.7127 54.8243 21.9339 55.4451 22.3486C56.0659 22.7632 56.5498 23.3528 56.8356 24.0425C57.1214 24.7321 57.1961 25.4911 57.0506 26.2233C56.905 26.9555 56.5457 27.628 56.0178 28.1559C55.49 28.6839 54.8175 29.0436 54.0854 29.1893C53.3532 29.335 52.5941 29.2601 51.9043 28.9745C51.2146 28.6888 50.6252 28.205 50.2104 27.5843C49.7957 26.9636 49.5742 26.2338 49.5742 25.4872C49.5742 24.4863 49.9718 23.5265 50.6795 22.8187C51.3872 22.1109 52.3469 21.7131 53.3478 21.7129Z" stroke="#E86D21" stroke-width="1.51158" stroke-linecap="round" stroke-linejoin="round"/>
<path d="M66.3156 38.8008H67.7569C67.7847 38.8007 67.8123 38.8059 67.8379 38.8165C67.8636 38.827 67.8869 38.8426 67.9066 38.8622C67.9262 38.8818 67.9417 38.9051 67.9523 38.9307C67.963 38.9563 67.9686 38.9837 67.9686 39.0115V42.7287C67.9684 42.7845 67.9461 42.8379 67.9066 42.8774C67.8671 42.9169 67.8135 42.9392 67.7577 42.9394H66.1289" stroke="#E86D21" stroke-width="1.51158" stroke-linecap="round" stroke-linejoin="round"/>
<path d="M57.553 16.5917H65.0104C64.7572 14.0361 64.3614 11.4967 63.8247 8.98539C63.6624 8.34609 63.3039 7.77363 62.7997 7.34852C62.2954 6.9234 61.6707 6.66699 61.0131 6.61523H45.6803C45.0228 6.66699 44.3979 6.9234 43.8936 7.34852C43.3893 7.77363 43.031 8.34609 42.8688 8.98539C42.3321 11.497 41.9363 14.0366 41.6836 16.5924H49.1402" stroke="#E86D21" stroke-width="1.51158" stroke-linecap="round" stroke-linejoin="round"/>
<path d="M45.3356 36.3117V16.5938H41.6814C41.6814 16.5938 39.349 25.497 40.7049 45.264C40.7327 45.6685 40.9129 46.0473 41.2092 46.3241C41.5055 46.6009 41.8957 46.7549 42.3012 46.7551H45.3356" stroke="#E86D21" stroke-width="1.51158" stroke-linecap="round" stroke-linejoin="round"/>
<path d="M61.3633 36.3117V16.5938H65.0168C65.0168 16.5938 67.3485 25.4963 65.9949 45.2633C65.9672 45.668 65.7868 46.047 65.4904 46.3239C65.194 46.6008 64.8035 46.7549 64.3979 46.7551H61.3633" stroke="#E86D21" stroke-width="1.51158" stroke-linecap="round" stroke-linejoin="round"/>
<path d="M61.506 49.9037H45.1808L43.1523 46.752H63.5336L61.506 49.9037Z" stroke="#E86D21" stroke-width="1.51158" stroke-linecap="round" stroke-linejoin="round"/>
<path d="M61.9577 36.3105H44.7377C44.4597 36.3105 44.2344 36.5359 44.2344 36.8139V46.25C44.2344 46.528 44.4597 46.7533 44.7377 46.7533H61.9577C62.2357 46.7533 62.4611 46.528 62.4611 46.25V36.8139C62.4611 36.5359 62.2357 36.3105 61.9577 36.3105Z" stroke="#E86D21" stroke-width="1.51158" stroke-linecap="round" stroke-linejoin="round"/>
<path d="M51.9555 15.3489C51.9999 15.0749 52.1244 14.8203 52.3136 14.6171C52.5028 14.4139 52.7481 14.2713 53.0183 14.2075C53.2885 14.1437 53.5716 14.1615 53.8317 14.2586C54.0918 14.3557 54.3172 14.5277 54.4795 14.7529C54.6418 14.9781 54.7336 15.2464 54.7434 15.5238C54.7532 15.8013 54.6805 16.0754 54.5345 16.3115C54.3885 16.5477 54.1758 16.7353 53.9232 16.8505C53.6706 16.9657 53.3896 17.0034 53.1156 16.9588C52.7484 16.8989 52.4199 16.6957 52.2024 16.3938C51.9849 16.092 51.8962 15.7162 51.9555 15.3489Z" stroke="#E86D21" stroke-width="1.51158" stroke-linecap="round" stroke-linejoin="round"/>
<path d="M60.3899 39.3617V43.6931C60.3808 43.9806 60.2579 44.2526 60.0483 44.4495C59.8387 44.6463 59.5595 44.7518 59.272 44.7429H47.5451C47.4141 44.7434 47.284 44.7217 47.1604 44.6787C47.0164 44.631 46.884 44.5538 46.7716 44.4521C46.6591 44.3503 46.5693 44.2261 46.5075 44.0876C46.4533 43.963 46.4253 43.8284 46.4258 43.6924V39.3617C46.4302 39.2193 46.4626 39.0792 46.5212 38.9493C46.5797 38.8195 46.6633 38.7024 46.7671 38.6048C46.871 38.5073 46.993 38.4312 47.1262 38.3808C47.2595 38.3304 47.4012 38.3066 47.5436 38.3111H59.2713C59.537 38.3042 59.7962 38.3944 60.0003 38.5646C60.2045 38.7348 60.3398 38.9736 60.3808 39.2363C60.3874 39.2777 60.3904 39.3197 60.3899 39.3617Z" stroke="#E86D21" stroke-width="1.51158" stroke-linecap="round" stroke-linejoin="round"/>
<path d="M61.3511 52.7451H45.0781V49.9004H61.3406L61.3511 52.7451Z" stroke="#E86D21" stroke-width="1.51158" stroke-linecap="round" stroke-linejoin="round"/>
<path d="M62.823 55.3038H61.3544V52.75H59.044V55.3038H57.5754C57.5526 55.3038 57.53 55.3083 57.509 55.317C57.4879 55.3258 57.469 55.3387 57.4529 55.3549C57.4368 55.371 57.4241 55.3901 57.4154 55.4111C57.4068 55.4322 57.4022 55.4548 57.4023 55.4776V56.8797C57.4022 56.9025 57.4068 56.9251 57.4154 56.9462C57.4241 56.9672 57.4368 56.9863 57.4529 57.0024C57.469 57.0186 57.4879 57.0315 57.509 57.0403C57.53 57.049 57.5526 57.0536 57.5754 57.0536H62.8267C62.8727 57.0534 62.9168 57.0348 62.9494 57.0023C62.9819 56.9697 63.0003 56.9258 63.0005 56.8797V55.4776C63.0005 55.4544 62.996 55.4316 62.987 55.4102C62.978 55.3889 62.9648 55.3696 62.9483 55.3534C62.9317 55.3372 62.9122 55.3244 62.8907 55.3159C62.8692 55.3074 62.8461 55.3032 62.823 55.3038Z" stroke="#E86D21" stroke-width="1.51158" stroke-linecap="round" stroke-linejoin="round"/>
<path d="M49.0547 55.3045H47.5861V52.75H45.2719V55.3045H43.8027C43.7568 55.3045 43.7126 55.3228 43.68 55.3552C43.6474 55.3877 43.6291 55.4316 43.6289 55.4776V56.8805C43.6291 56.9264 43.6474 56.9704 43.68 57.0028C43.7126 57.0352 43.7568 57.0536 43.8027 57.0536H49.0547C49.1006 57.0536 49.1446 57.0353 49.177 57.0028C49.2095 56.9704 49.2278 56.9264 49.2278 56.8805V55.4776C49.2278 55.4317 49.2095 55.3877 49.177 55.3552C49.1446 55.3228 49.1006 55.3045 49.0547 55.3045Z" stroke="#E86D21" stroke-width="1.51158" stroke-linecap="round" stroke-linejoin="round"/>
</g>
</g>
<g clip-path="url(#clip2_344_413)">
<mask id="mask1_344_413" style="mask-type:luminance" maskUnits="userSpaceOnUse" x="-12" y="5" width="54" height="54">
<path d="M41.7375 5.38086H-11.168V58.2863H41.7375V5.38086Z" fill="white"/>
</mask>
<g mask="url(#mask1_344_413)">
<path d="M6.20562 6.51758H8.473H21.3215L23.5888 6.89547L24.7225 8.78496L26.612 19.7439L27.3678 28.4356V38.2609L28.8794 39.0166V42.7956H27.7457L26.9899 45.063L26.2341 46.5746L24.3446 47.3304L22.4552 50.7314V54.8883L23.5888 55.2662L23.9667 56.7778H18.6762V55.6441L19.8099 54.8883L20.1878 53.7546L19.8099 52.9988H8.85089V54.8883L9.98458 55.6441V57.1557L4.69403 56.7778V55.6441L6.20562 54.8883V50.7314L5.07193 47.3304L3.18245 46.5746L2.04876 44.6851L1.29297 26.5461L2.42666 17.0987L4.31614 8.40706L6.20562 6.51758Z" fill="white"/>
<path d="M18.6792 18.4949H10.3125L10.7336 13.902C10.7666 13.5441 10.9321 13.2115 11.1978 12.9694C11.4635 12.7274 11.8101 12.5934 12.1695 12.5938H16.8244C17.1839 12.5932 17.5305 12.727 17.7962 12.9691C18.062 13.2112 18.2277 13.544 18.2605 13.902L18.6792 18.4949Z" stroke="#E86D21" stroke-width="1.51158" stroke-linecap="round" stroke-linejoin="round"/>
<path d="M14.5002 21.7129C15.2467 21.7127 15.9766 21.9339 16.5974 22.3486C17.2182 22.7632 17.7022 23.3528 17.988 24.0425C18.2738 24.7321 18.3485 25.4911 18.2029 26.2233C18.0574 26.9555 17.698 27.628 17.1702 28.1559C16.6423 28.6839 15.9699 29.0436 15.2377 29.1893C14.5055 29.335 13.7464 29.2601 13.0567 28.9745C12.3669 28.6888 11.7776 28.205 11.3628 27.5843C10.948 26.9636 10.7266 26.2338 10.7266 25.4872C10.7266 24.4863 11.1242 23.5265 11.8318 22.8187C12.5395 22.1109 13.4993 21.7131 14.5002 21.7129Z" stroke="#E86D21" stroke-width="1.51158" stroke-linecap="round" stroke-linejoin="round"/>
<path d="M27.468 38.8008H28.9093C28.937 38.8007 28.9646 38.8059 28.9903 38.8165C29.0159 38.827 29.0393 38.8426 29.0589 38.8622C29.0786 38.8818 29.094 38.9051 29.1047 38.9307C29.1153 38.9563 29.1209 38.9837 29.1209 39.0115V42.7287C29.1207 42.7845 29.0984 42.8379 29.0589 42.8774C29.0194 42.9169 28.9659 42.9392 28.91 42.9394H27.2812" stroke="#E86D21" stroke-width="1.51158" stroke-linecap="round" stroke-linejoin="round"/>
<path d="M18.7054 16.5917H26.1627C25.9095 14.0361 25.5138 11.4967 24.977 8.98539C24.8148 8.34609 24.4563 7.77363 23.952 7.34852C23.4477 6.9234 22.823 6.66699 22.1655 6.61523H6.83263C6.1751 6.66699 5.55021 6.9234 5.04593 7.34852C4.54165 7.77363 4.18333 8.34609 4.02111 8.98539C3.48441 11.497 3.08867 14.0366 2.83594 16.5924H10.2926" stroke="#E86D21" stroke-width="1.51158" stroke-linecap="round" stroke-linejoin="round"/>
<path d="M6.48795 36.3117V16.5938H2.83372C2.83372 16.5938 0.501353 25.497 1.85724 45.264C1.885 45.6685 2.06526 46.0473 2.36154 46.3241C2.65781 46.6009 3.04808 46.7549 3.45352 46.7551H6.48795" stroke="#E86D21" stroke-width="1.51158" stroke-linecap="round" stroke-linejoin="round"/>
<path d="M22.5156 36.3117V16.5938H26.1691C26.1691 16.5938 28.5009 25.4963 27.1473 45.2633C27.1195 45.668 26.9392 46.047 26.6428 46.3239C26.3464 46.6008 25.9559 46.7549 25.5502 46.7551H22.5156" stroke="#E86D21" stroke-width="1.51158" stroke-linecap="round" stroke-linejoin="round"/>
<path d="M22.6583 49.9037H6.33311L4.30469 46.752H24.686L22.6583 49.9037Z" stroke="#E86D21" stroke-width="1.51158" stroke-linecap="round" stroke-linejoin="round"/>
<path d="M23.1101 36.3105H5.89008C5.61208 36.3105 5.38672 36.5359 5.38672 36.8139V46.25C5.38672 46.528 5.61208 46.7533 5.89008 46.7533H23.1101C23.388 46.7533 23.6134 46.528 23.6134 46.25V36.8139C23.6134 36.5359 23.388 36.3105 23.1101 36.3105Z" stroke="#E86D21" stroke-width="1.51158" stroke-linecap="round" stroke-linejoin="round"/>
<path d="M13.1078 15.3489C13.1522 15.0749 13.2768 14.8203 13.466 14.6171C13.6552 14.4139 13.9005 14.2713 14.1707 14.2075C14.4409 14.1437 14.7239 14.1615 14.984 14.2586C15.2441 14.3557 15.4696 14.5277 15.6319 14.7529C15.7942 14.9781 15.8859 15.2464 15.8957 15.5238C15.9055 15.8013 15.8329 16.0754 15.6869 16.3115C15.5409 16.5477 15.3281 16.7353 15.0755 16.8505C14.823 16.9657 14.5419 17.0034 14.2679 16.9588C13.9007 16.8989 13.5722 16.6957 13.3547 16.3938C13.1372 16.092 13.0485 15.7162 13.1078 15.3489Z" stroke="#E86D21" stroke-width="1.51158" stroke-linecap="round" stroke-linejoin="round"/>
<path d="M21.5422 39.3617V43.6931C21.5331 43.9806 21.4103 44.2526 21.2007 44.4495C20.991 44.6463 20.7118 44.7518 20.4244 44.7429H8.69743C8.56648 44.7434 8.43637 44.7217 8.3127 44.6787C8.16875 44.631 8.03636 44.5538 7.92392 44.4521C7.81148 44.3503 7.72164 44.2261 7.65987 44.0876C7.6056 43.963 7.57769 43.8284 7.57813 43.6924V39.3617C7.58253 39.2193 7.61497 39.0792 7.67353 38.9493C7.73209 38.8195 7.81569 38.7024 7.91949 38.6048C8.02329 38.5073 8.14533 38.4312 8.27857 38.3808C8.4118 38.3304 8.55357 38.3066 8.69595 38.3111H20.4236C20.6894 38.3042 20.9485 38.3944 21.1527 38.5646C21.3569 38.7348 21.4921 38.9736 21.5332 39.2363C21.5398 39.2777 21.5428 39.3197 21.5422 39.3617Z" stroke="#E86D21" stroke-width="1.51158" stroke-linecap="round" stroke-linejoin="round"/>
<path d="M22.5034 52.7451H6.23047V49.9004H22.4929L22.5034 52.7451Z" stroke="#E86D21" stroke-width="1.51158" stroke-linecap="round" stroke-linejoin="round"/>
<path d="M23.9675 55.3038H22.4989V52.75H20.1885V55.3038H18.72C18.6972 55.3038 18.6746 55.3083 18.6535 55.317C18.6325 55.3258 18.6135 55.3387 18.5974 55.3549C18.5814 55.371 18.5686 55.3901 18.56 55.4111C18.5513 55.4322 18.5468 55.4548 18.5469 55.4776V56.8797C18.5468 56.9025 18.5513 56.9251 18.56 56.9462C18.5686 56.9672 18.5814 56.9863 18.5974 57.0024C18.6135 57.0186 18.6325 57.0315 18.6535 57.0403C18.6746 57.049 18.6972 57.0536 18.72 57.0536H23.9712C24.0172 57.0534 24.0613 57.0348 24.0939 57.0023C24.1265 56.9697 24.1448 56.9258 24.145 56.8797V55.4776C24.145 55.4544 24.1405 55.4316 24.1315 55.4102C24.1226 55.3889 24.1093 55.3696 24.0928 55.3534C24.0763 55.3372 24.0568 55.3244 24.0352 55.3159C24.0137 55.3074 23.9907 55.3032 23.9675 55.3038Z" stroke="#E86D21" stroke-width="1.51158" stroke-linecap="round" stroke-linejoin="round"/>
<path d="M10.1992 55.3045H8.73065V52.75H6.4164V55.3045H4.94725C4.90128 55.3045 4.85713 55.3228 4.82455 55.3552C4.79197 55.3877 4.77364 55.4316 4.77344 55.4776V56.8805C4.77364 56.9264 4.79197 56.9704 4.82455 57.0028C4.85713 57.0352 4.90128 57.0536 4.94725 57.0536H10.1992C10.2451 57.0536 10.2891 57.0353 10.3216 57.0028C10.354 56.9704 10.3723 56.9264 10.3723 56.8805V55.4776C10.3723 55.4317 10.354 55.3877 10.3216 55.3552C10.2891 55.3228 10.2451 55.3045 10.1992 55.3045Z" stroke="#E86D21" stroke-width="1.51158" stroke-linecap="round" stroke-linejoin="round"/>
</g>
</g>
<g clip-path="url(#clip3_344_413)">
<mask id="mask2_344_413" style="mask-type:luminance" maskUnits="userSpaceOnUse" x="3" y="0" width="63" height="63">
<path d="M65.9409 0.759766H3.78906V62.9117H65.9409V0.759766Z" fill="white"/>
</mask>
<g mask="url(#mask2_344_413)">
<path d="M24.2205 2.08984H26.8841H41.9781L44.6418 2.53379L45.9736 4.7535L48.1933 17.6278L49.0812 27.8385V39.381L50.857 40.2689V44.7083H49.5252L48.6373 47.3719L47.7494 49.1477L45.5297 50.0356L43.31 54.0311V58.9144L44.6418 59.3584L45.0857 61.1341H38.8706V59.8023L40.2024 58.9144L40.6463 57.5826L40.2024 56.6947H27.3281V58.9144L28.6599 59.8023V61.5781L22.4447 61.1341V59.8023L24.2205 58.9144V54.0311L22.8886 50.0356L20.6689 49.1477L19.3371 46.928L18.4492 25.6188L19.781 14.5202L22.0008 4.30955L24.2205 2.08984Z" fill="white"/>
<path d="M38.8758 16.1571H29.0469L29.5415 10.7615C29.5803 10.341 29.7748 9.95032 30.0869 9.66595C30.3991 9.38159 30.8062 9.22416 31.2284 9.22461H36.6969C37.1192 9.22395 37.5264 9.38111 37.8386 9.66552C38.1507 9.94992 38.3454 10.341 38.384 10.7615L38.8758 16.1571Z" stroke="#E86D21" stroke-width="1.77577" stroke-linecap="round" stroke-linejoin="round"/>
<path d="M33.9527 19.9434C34.8297 19.9432 35.6872 20.203 36.4165 20.6901C37.1458 21.1772 37.7143 21.8699 38.05 22.6801C38.3858 23.4903 38.4736 24.3819 38.3026 25.2421C38.1316 26.1022 37.7094 26.8923 37.0893 27.5125C36.4692 28.1327 35.6792 28.5552 34.8191 28.7264C33.9589 28.8976 33.0672 28.8097 32.2569 28.4741C31.4466 28.1385 30.7542 27.5701 30.2669 26.8409C29.7797 26.1117 29.5195 25.2544 29.5195 24.3774C29.5195 23.2015 29.9866 22.074 30.818 21.2425C31.6493 20.4109 32.7768 19.9436 33.9527 19.9434Z" stroke="#E86D21" stroke-width="1.77577" stroke-linecap="round" stroke-linejoin="round"/>
<path d="M49.1998 40.0195H50.893C50.9256 40.0194 50.958 40.0256 50.9882 40.038C51.0183 40.0504 51.0457 40.0687 51.0688 40.0917C51.0919 40.1147 51.1101 40.142 51.1226 40.1721C51.1351 40.2023 51.1417 40.2345 51.1417 40.2671V44.6339C51.1414 44.6995 51.1152 44.7622 51.0688 44.8086C51.0224 44.855 50.9595 44.8812 50.8939 44.8814H48.9805" stroke="#E86D21" stroke-width="1.77577" stroke-linecap="round" stroke-linejoin="round"/>
<path d="M38.8969 13.9271H47.6576C47.3601 10.9249 46.8952 7.94168 46.2646 4.99142C46.074 4.24039 45.6529 3.56788 45.0605 3.06847C44.4681 2.56905 43.7342 2.26784 42.9617 2.20703H24.9491C24.1767 2.26784 23.4426 2.56905 22.8501 3.06847C22.2577 3.56788 21.8368 4.24039 21.6462 4.99142C21.0157 7.94196 20.5508 10.9254 20.2539 13.9279H29.0137" stroke="#E86D21" stroke-width="1.77577" stroke-linecap="round" stroke-linejoin="round"/>
<path d="M24.5471 37.0899V13.9258H20.2542C20.2542 13.9258 17.5142 24.3851 19.1071 47.6069C19.1397 48.082 19.3514 48.527 19.6995 48.8522C20.0476 49.1773 20.506 49.3583 20.9823 49.3586H24.5471" stroke="#E86D21" stroke-width="1.77577" stroke-linecap="round" stroke-linejoin="round"/>
<path d="M43.3672 37.0899V13.9258H47.6592C47.6592 13.9258 50.3985 24.3843 48.8083 47.606C48.7757 48.0814 48.5639 48.5267 48.2157 48.852C47.8674 49.1773 47.4087 49.3583 46.9322 49.3586H43.3672" stroke="#E86D21" stroke-width="1.77577" stroke-linecap="round" stroke-linejoin="round"/>
<path d="M43.5457 53.0581H24.3673L21.9844 49.3555H45.9278L43.5457 53.0581Z" stroke="#E86D21" stroke-width="1.77577" stroke-linecap="round" stroke-linejoin="round"/>
<path d="M44.0748 37.0938H23.8452C23.5187 37.0938 23.2539 37.3585 23.2539 37.6851V48.7703C23.2539 49.0969 23.5187 49.3616 23.8452 49.3616H44.0748C44.4014 49.3616 44.6661 49.0969 44.6661 48.7703V37.6851C44.6661 37.3585 44.4014 37.0938 44.0748 37.0938Z" stroke="#E86D21" stroke-width="1.77577" stroke-linecap="round" stroke-linejoin="round"/>
<path d="M32.3258 12.4632C32.378 12.1412 32.5243 11.8421 32.7466 11.6035C32.9688 11.3648 33.257 11.1972 33.5744 11.1222C33.8918 11.0473 34.2244 11.0682 34.5299 11.1823C34.8355 11.2963 35.1003 11.4984 35.291 11.763C35.4817 12.0276 35.5895 12.3427 35.601 12.6687C35.6125 12.9946 35.5271 13.3166 35.3556 13.594C35.1841 13.8714 34.9342 14.0919 34.6374 14.2272C34.3407 14.3626 34.0106 14.4068 33.6886 14.3545C33.2573 14.2841 32.8714 14.0453 32.6159 13.6907C32.3603 13.3361 32.2561 12.8946 32.3258 12.4632Z" stroke="#E86D21" stroke-width="1.77577" stroke-linecap="round" stroke-linejoin="round"/>
<path d="M42.2327 40.6822V45.7706C42.2221 46.1082 42.0778 46.4279 41.8315 46.6591C41.5853 46.8904 41.2572 47.0143 40.9196 47.0038H27.143C26.9892 47.0044 26.8364 46.9789 26.6911 46.9283C26.522 46.8723 26.3664 46.7817 26.2344 46.6622C26.1023 46.5426 25.9967 46.3967 25.9242 46.234C25.8604 46.0876 25.8276 45.9295 25.8281 45.7697V40.6822C25.8333 40.5149 25.8714 40.3502 25.9402 40.1977C26.009 40.0451 26.1072 39.9076 26.2292 39.793C26.3511 39.6784 26.4945 39.589 26.651 39.5298C26.8075 39.4706 26.974 39.4427 27.1413 39.4479H40.9187C41.2309 39.4398 41.5353 39.5457 41.7751 39.7457C42.015 39.9457 42.1739 40.2262 42.2221 40.5348C42.2299 40.5835 42.2334 40.6328 42.2327 40.6822Z" stroke="#E86D21" stroke-width="1.77577" stroke-linecap="round" stroke-linejoin="round"/>
<path d="M43.367 56.4044H24.25V53.0625H43.3547L43.367 56.4044Z" stroke="#E86D21" stroke-width="1.77577" stroke-linecap="round" stroke-linejoin="round"/>
<path d="M45.0868 59.4024H43.3615V56.4023H40.6473V59.4024H38.9221C38.8953 59.4024 38.8688 59.4078 38.844 59.418C38.8193 59.4283 38.797 59.4435 38.7781 59.4625C38.7593 59.4814 38.7443 59.5038 38.7341 59.5286C38.724 59.5534 38.7186 59.5798 38.7188 59.6066V61.2538C38.7186 61.2806 38.724 61.3071 38.7341 61.3319C38.7443 61.3566 38.7593 61.379 38.7781 61.398C38.797 61.417 38.8193 61.4322 38.844 61.4424C38.8688 61.4527 38.8953 61.458 38.9221 61.458H45.0911C45.1452 61.4578 45.197 61.436 45.2352 61.3978C45.2735 61.3595 45.2951 61.3079 45.2953 61.2538V59.6066C45.2953 59.5794 45.29 59.5526 45.2795 59.5275C45.2689 59.5024 45.2534 59.4798 45.2339 59.4607C45.2145 59.4417 45.1916 59.4267 45.1663 59.4167C45.141 59.4067 45.114 59.4018 45.0868 59.4024Z" stroke="#E86D21" stroke-width="1.77577" stroke-linecap="round" stroke-linejoin="round"/>
<path d="M28.9131 59.4033H27.1879V56.4023H24.4692V59.4033H22.7433C22.6893 59.4033 22.6374 59.4248 22.5991 59.4629C22.5608 59.501 22.5393 59.5526 22.5391 59.6066V61.2547C22.5393 61.3087 22.5608 61.3603 22.5991 61.3984C22.6374 61.4365 22.6893 61.458 22.7433 61.458H28.9131C28.9671 61.458 29.0187 61.4366 29.0569 61.3984C29.095 61.3603 29.1165 61.3086 29.1165 61.2547V59.6066C29.1165 59.5527 29.095 59.501 29.0569 59.4629C29.0187 59.4248 28.9671 59.4033 28.9131 59.4033Z" stroke="#E86D21" stroke-width="1.77577" stroke-linecap="round" stroke-linejoin="round"/>
</g>
</g>
</g>
<defs>
<clipPath id="clip0_344_413">
<rect width="69.9994" height="62.0449" fill="white" transform="translate(0 0.478516)"/>
</clipPath>
<clipPath id="clip1_344_413">
<rect width="30.9875" height="52.9055" fill="white" transform="translate(39.0156 5.38281)"/>
</clipPath>
<clipPath id="clip2_344_413">
<rect width="30.9875" height="52.9055" fill="white" transform="translate(0.164062 5.38281)"/>
</clipPath>
<clipPath id="clip3_344_413">
<rect width="36.4032" height="62.1519" fill="white" transform="translate(17.1094 0.755859)"/>
</clipPath>
</defs>
</svg>
