<svg width="70" height="64" viewBox="0 0 70 64" fill="none" xmlns="http://www.w3.org/2000/svg">
<g clip-path="url(#clip0_344_474)">
<path d="M31.5251 17.1275H57.6986C58.3849 17.1275 58.94 16.5714 58.94 15.8868V13.6528C58.94 12.9669 58.3849 12.4121 57.6986 12.4121H31.5251C30.8402 12.4121 30.2852 12.9669 30.2852 13.6528V15.8868C30.2852 16.5714 30.8402 17.1275 31.5251 17.1275Z" fill="#E86E2E"/>
<path d="M31.5251 28.1607H57.6986C58.3849 28.1607 58.94 27.6059 58.94 26.92V24.686C58.94 24.0014 58.3849 23.4453 57.6986 23.4453H31.5251C30.8402 23.4453 30.2852 24.0014 30.2852 24.686V26.92C30.2852 27.6059 30.8402 28.1607 31.5251 28.1607Z" fill="#E86E2E"/>
<path d="M21.7372 41.874C19.0686 41.874 16.8976 39.7042 16.8976 37.037V18.3477H2.20516C0.991161 18.3477 0 19.3383 0 20.5516V50.3578C0 51.5712 0.991161 52.5618 2.20516 52.5618H8.37771V63.5994L18.3016 52.5618H42.4026C43.6166 52.5618 44.6077 51.5698 44.6077 50.3578V41.874H21.7358H21.7372Z" fill="#E86E2E"/>
<path d="M67.4845 0.601562H21.7407C20.3599 0.601562 19.2266 1.73566 19.2266 3.11433V37.0347C19.2266 38.4147 20.3613 39.5488 21.7407 39.5488H49.1665L60.463 52.1086V39.5488H67.4845C68.8653 39.5488 70 38.4147 70 37.0347V3.11433C70 1.73566 68.8653 0.601562 67.4845 0.601562ZM67.6745 37.036C67.6745 37.1317 67.5802 37.226 67.4845 37.226H58.1389V46.0487L50.2028 37.226H21.7407C21.645 37.226 21.5507 37.1317 21.5507 37.036V3.11433C21.5507 3.01869 21.645 2.92441 21.7407 2.92441H67.4845C67.5802 2.92441 67.6745 3.01869 67.6745 3.11297V37.0333V37.036Z" fill="#E86E2E"/>
</g>
<defs>
<clipPath id="clip0_344_474">
<rect width="69.9965" height="62.9969" fill="white" transform="translate(0 0.601562)"/>
</clipPath>
</defs>
</svg>
