<svg xmlns="http://www.w3.org/2000/svg" xmlns:xlink="http://www.w3.org/1999/xlink" width="496.912" height="118.543" viewBox="0 0 496.912 118.543"><defs><clipPath id="a"><rect width="496.911" height="118.543" fill="#fff"/></clipPath><clipPath id="b"><rect width="357.38" height="42.245" fill="#fff"/></clipPath></defs><g clip-path="url(#a)"><g transform="translate(0.001 8)" style="isolation:isolate"><g transform="translate(0 3)"><g clip-path="url(#b)"><g style="isolation:isolate"><g clip-path="url(#b)"><text transform="translate(0 29.527)" fill="#fff" font-size="32" font-family="YuGo-Bold, YuGothic" font-weight="700"><tspan x="0" y="0">測量機器総</tspan><tspan y="0" letter-spacing="-0.026em">合</tspan><tspan y="0" letter-spacing="-0.044em">マ</tspan><tspan y="0" letter-spacing="-0.057em">ー</tspan><tspan y="0" letter-spacing="-0.149em">ケ</tspan><tspan y="0" letter-spacing="-0.225em">ッ</tspan><tspan y="0" font-size="34">ト</tspan></text></g></g></g></g></g><path d="M506.02,66.031a9.2,9.2,0,1,1,9.2-9.2,9.225,9.225,0,0,1-9.2,9.2m0-17.246a8.048,8.048,0,1,0,8.048,8.048,8.071,8.071,0,0,0-8.048-8.048m2.989,14.142-2.989-5.289h-1.84v5.289h-1.725V51.085h3.794c2.53,0,3.679,1.609,3.679,3.1a3.429,3.429,0,0,1-2.184,3.1l3.334,5.518h-2.07Zm-2.874-6.783a1.881,1.881,0,0,0,2.07-1.84,1.663,1.663,0,0,0-1.84-1.724H504.18v3.564Z" transform="translate(-18.307 -1.755)" fill="#fff"/><path d="M29.091,92.157H52.775c-.575,5.864-2.414,15.291-8.738,21.73-5.748,5.749-12.647,7.128-18.856,7.128-5.978,0-12.646-1.379-18.165-6.783C3.337,110.782,0,105.149,0,96.526a29.5,29.5,0,0,1,8.738-21.5c4.14-4.024,10.808-7.933,21.04-7.933a25,25,0,0,1,13.682,3.679,23.426,23.426,0,0,1,7.7,8.048l-9.083,5.174a14.039,14.039,0,0,0-5.174-5.519,16.439,16.439,0,0,0-8.393-2.3,17.342,17.342,0,0,0-12.647,5.058,21.347,21.347,0,0,0-5.633,14.832,16.039,16.039,0,0,0,4.484,11.612,15.164,15.164,0,0,0,11.037,4.254,14.983,14.983,0,0,0,10.463-3.449,17.887,17.887,0,0,0,4.829-7.474H27.826Z" transform="translate(0 -2.472)" fill="#fff"/><path d="M98.853,76.906H80.227L78.848,88.4h17.82l-1.15,8.623H77.7l-1.609,14.141H94.6L93.45,119.79H64.821l6.324-51.622H99.773Z" transform="translate(-2.389 -2.512)" fill="#fff"/><path d="M158.333,73.638a23.123,23.123,0,0,1,6.783,17.246c0,8.163-3.1,16.325-8.277,21.615-4.14,4.253-11.038,8.393-21.5,8.393-10.117,0-15.981-4.14-18.97-7.244a24.26,24.26,0,0,1-6.783-17.131,30.069,30.069,0,0,1,8.853-21.5c5.4-5.058,13.451-8.163,21.96-8.163a27.194,27.194,0,0,1,17.935,6.783m-9.772,33.112a21.6,21.6,0,0,0,6.094-15.061,15.465,15.465,0,0,0-4.14-10.923,15.841,15.841,0,0,0-11.727-4.483,18.65,18.65,0,0,0-12.876,4.944,20.212,20.212,0,0,0-5.978,14.716,15.775,15.775,0,0,0,4.139,11.267,16.047,16.047,0,0,0,11.727,4.715,19.26,19.26,0,0,0,12.762-5.174" transform="translate(-4.038 -2.463)" fill="#fff"/><path d="M190.862,68.287H198.1l9.543,32.767,18.4-32.767h7.244l2.3,51.622H225.468l-.8-31.847-17.821,31.732h-3.1l-9.427-31.848-9.083,31.848H174.881Z" transform="translate(-6.444 -2.516)" fill="#fff"/><path d="M283.373,108.983h-20.81L256.7,119.79H245.547L274.4,68.168h7.589l15.291,51.622H286.707Zm-1.954-8.163-4.944-18.511L266.7,100.82Z" transform="translate(-9.048 -2.512)" fill="#fff"/><path d="M330.8,68.283c3.909,0,9.083.575,12.877,4.483a13.6,13.6,0,0,1,3.679,9.888A15.432,15.432,0,0,1,343.1,93.806a18.4,18.4,0,0,1-9.543,4.483l13.107,21.5H334.59l-11.267-20.7h-1.265l-2.529,20.7H309.411l6.324-51.623H330.8Zm-7.818,23.684h3.564c2.759,0,6.094-.805,8.048-2.759a8.061,8.061,0,0,0,2.3-5.864,6.362,6.362,0,0,0-2.07-5.058c-1.265-1.034-3.334-1.954-6.668-1.954h-3.22Z" transform="translate(-11.401 -2.512)" fill="#fff"/><path d="M373.577,88.867l21.155-20.58h11.727L381.74,92.316l19.545,27.593H389.213L374.383,97.49l-1.955,1.84-2.644,20.58H359.666l6.324-51.622h10.117Z" transform="translate(-13.253 -2.516)" fill="#fff"/><path d="M447.3,76.906H428.674l-1.379,11.5h17.82l-1.034,8.623H426.259l-1.724,14.141h18.51l-1.034,8.623H413.383l6.323-51.622h28.628Z" transform="translate(-15.232 -2.512)" fill="#fff"/><path d="M481.189,76.906,475.9,119.79H465.783l5.289-43H459.46l1.15-8.623h33.227l-1.15,8.623Z" transform="translate(-16.93 -2.512)" fill="#fff"/></g></svg>