<svg width="56" height="56" viewBox="0 0 56 56" fill="none" xmlns="http://www.w3.org/2000/svg">
<g clip-path="url(#clip0_417_91)">
<path fill-rule="evenodd" clip-rule="evenodd" d="M36.14 41.6006L46.07 32.3206H46.13C45.614 32.1055 45.0457 32.0486 44.4973 32.1572C43.9489 32.2659 43.4451 32.535 43.05 32.9306L35.36 40.1106C35.7381 40.5503 36.0116 41.07 36.16 41.6306" fill="#898778"/>
<path fill-rule="evenodd" clip-rule="evenodd" d="M4.71002 47.2998L10.83 53.4198C11.1565 53.7425 11.5739 53.9576 12.0261 54.0362C12.4783 54.1149 12.9438 54.0533 13.36 53.8598L15.85 52.6898L6.00002 42.8398L4.70002 44.1398C4.28233 44.5596 4.04785 45.1277 4.04785 45.7198C4.04785 46.312 4.28233 46.8801 4.70002 47.2998" fill="#898778"/>
<path fill-rule="evenodd" clip-rule="evenodd" d="M49.12 32.3496C48.6174 32.3522 48.1243 32.4866 47.69 32.7396C47.4887 32.8627 47.3009 33.0068 47.13 33.1696L36.44 43.1696C36.2837 44.0305 35.8313 44.8097 35.1611 45.3721C34.4908 45.9346 33.645 46.245 32.77 46.2496H32.6L20.54 45.7196C20.388 45.7044 20.2475 45.6319 20.1471 45.5166C20.0468 45.4014 19.9942 45.2523 20 45.0996C20.0039 45.0221 20.023 44.9461 20.0562 44.876C20.0895 44.8059 20.1363 44.743 20.1938 44.691C20.2514 44.639 20.3187 44.5988 20.3919 44.5728C20.465 44.5469 20.5425 44.5356 20.62 44.5396L32.68 45.0696C33.3186 45.097 33.9439 44.8826 34.4314 44.4693C34.9189 44.0559 35.2326 43.474 35.31 42.8396V42.2196C35.2385 41.6406 34.9699 41.1038 34.5492 40.6995C34.1285 40.2952 33.5815 40.048 33 39.9996L15.82 38.1096C14.3936 37.9495 12.9495 38.1136 11.5954 38.5898C10.2413 39.066 9.01226 39.8419 8.00004 40.8596L6.85004 41.9996L17.13 52.2896L32.91 52.7096C33.7217 52.7428 34.5314 52.6081 35.2885 52.3138C36.0456 52.0196 36.7338 51.5722 37.31 50.9996L51.13 37.1696C51.522 36.7733 51.7882 36.2701 51.8952 35.7232C52.0023 35.1762 51.9454 34.6098 51.7318 34.095C51.5182 33.5802 51.1573 33.1399 50.6945 32.8294C50.2316 32.5189 49.6874 32.352 49.13 32.3496" fill="#898778"/>
<path d="M36.86 15.56L34.71 3.00003C34.6604 2.71843 34.5127 2.4635 34.293 2.28045C34.0733 2.0974 33.796 1.99805 33.51 2.00003H17.79C17.5046 2.00003 17.2283 2.10009 17.009 2.2828C16.7898 2.46551 16.6415 2.71931 16.59 3.00003L14.45 15.56L14.34 31.39C14.3474 31.5299 14.407 31.6619 14.507 31.76C14.6069 31.8581 14.74 31.9152 14.88 31.92L18.94 32.92C19.63 32.92 20.8 33.48 20.8 34.17V37.5L30.5 38.5V34.16C30.5 33.47 31.67 32.91 32.36 32.91L36.42 31.91C36.56 31.9052 36.6931 31.8481 36.7931 31.75C36.893 31.6519 36.9526 31.5199 36.96 31.38L36.86 15.56ZM30.5 26.28H20.8V16H21.72L22.52 23.51C22.535 23.6612 22.6058 23.8014 22.7186 23.9031C22.8314 24.0048 22.9781 24.0608 23.13 24.06H28.18C28.3313 24.0586 28.4768 24.0018 28.5892 23.9005C28.7015 23.7992 28.773 23.6603 28.79 23.51L29.59 16.01H30.5V26.28ZM25.65 13.19C26.1192 13.188 26.5784 13.3254 26.9694 13.5846C27.3605 13.8438 27.6658 14.2132 27.8467 14.6461C28.0277 15.079 28.076 15.5558 27.9857 16.0162C27.8954 16.4766 27.6705 16.8999 27.3394 17.2323C27.0084 17.5648 26.5861 17.7915 26.1261 17.8837C25.6661 17.976 25.189 17.9296 24.7554 17.7506C24.3217 17.5715 23.951 17.2677 23.6901 16.8778C23.4293 16.4878 23.29 16.0292 23.29 15.56C23.2887 15.2493 23.3488 14.9413 23.4668 14.6538C23.5848 14.3663 23.7584 14.105 23.9777 13.8848C24.197 13.6646 24.4576 13.4899 24.7446 13.3706C25.0316 13.2514 25.3393 13.19 25.65 13.19ZM31.11 8.43003C30.9549 8.4297 30.8056 8.48844 30.6922 8.59433C30.5789 8.70021 30.5102 8.84528 30.5 9.00003V14.71H29.58L28.67 7.10003C28.6507 6.95153 28.5783 6.81504 28.4662 6.71578C28.354 6.61652 28.2098 6.56119 28.06 6.56003H27.17V5.48003H24.17V6.60003H23.17C23.0181 6.59929 22.8714 6.65526 22.7586 6.75698C22.6458 6.8587 22.575 6.99886 22.56 7.15003L21.76 14.75H20.8V9.00003C20.8 8.83825 20.7358 8.68309 20.6214 8.56869C20.507 8.4543 20.3518 8.39003 20.19 8.39003H18.94L19.4 4.08003C19.4198 3.9006 19.5054 3.73486 19.6402 3.61482C19.775 3.49478 19.9495 3.42894 20.13 3.43003H31.13C31.3099 3.43112 31.4833 3.49772 31.6176 3.61735C31.752 3.73698 31.8382 3.90146 31.86 4.08003L32.31 8.37003L31.11 8.43003Z" fill="#898778"/>
</g>
<defs>
<clipPath id="clip0_417_91">
<rect width="56" height="56" fill="white"/>
</clipPath>
</defs>
</svg>
