<svg width="56" height="56" viewBox="0 0 56 56" fill="none" xmlns="http://www.w3.org/2000/svg">
<g clip-path="url(#clip0_417_70)">
<mask id="mask0_417_70" style="mask-type:luminance" maskUnits="userSpaceOnUse" x="4" y="4" width="48" height="48">
<path d="M51.43 4.40039H4.58002V51.5904H51.43V4.40039Z" fill="white"/>
</mask>
<g mask="url(#mask0_417_70)">
<path d="M49.83 22.7605H46.21C45.799 21.271 45.2009 19.8396 44.43 18.5005L47 15.9205C47.2959 15.6414 47.4694 15.2565 47.4825 14.85C47.4956 14.4434 47.3473 14.0481 47.07 13.7505L47 13.6805L42.09 8.77052C41.9534 8.62314 41.7888 8.50432 41.606 8.42094C41.4231 8.33756 41.2255 8.29128 41.0246 8.28477C40.8237 8.27826 40.6236 8.31165 40.4357 8.38301C40.2478 8.45438 40.0759 8.56229 39.93 8.70052L39.86 8.77052L37.28 11.3505C35.93 10.5974 34.4926 10.013 33 9.61052V6.00052C33.004 5.79434 32.9673 5.58939 32.8921 5.39738C32.8168 5.20538 32.7045 5.03008 32.5615 4.88149C32.4185 4.73291 32.2476 4.61396 32.0586 4.53144C31.8696 4.44891 31.6662 4.40442 31.46 4.40052H24.53C24.3196 4.3978 24.1108 4.4374 23.916 4.51698C23.7212 4.59655 23.5444 4.71446 23.3961 4.86372C23.2478 5.01297 23.131 5.19052 23.0526 5.38581C22.9743 5.5811 22.936 5.79014 22.94 6.00052V9.61052C21.4448 10.0187 20.0093 10.6205 18.67 11.4005L16.09 8.87052C15.9534 8.72314 15.7888 8.60432 15.606 8.52094C15.4231 8.43756 15.2255 8.39127 15.0246 8.38476C14.8237 8.37825 14.6236 8.41165 14.4357 8.48301C14.2478 8.55438 14.0759 8.6623 13.93 8.80052L13.86 8.87052L9.00002 13.7805C8.84132 13.9151 8.71176 14.0807 8.61925 14.2671C8.52674 14.4536 8.47323 14.6569 8.462 14.8647C8.45077 15.0725 8.48205 15.2804 8.55392 15.4757C8.6258 15.671 8.73676 15.8496 8.88002 16.0005H9.00002L11.58 18.5805C10.8302 19.9312 10.23 21.3597 9.79002 22.8405H6.16002C5.74327 22.8532 5.34722 23.0251 5.05333 23.3208C4.75944 23.6166 4.59006 24.0137 4.58002 24.4305V31.4305C4.58132 31.6349 4.62304 31.837 4.70277 32.0253C4.7825 32.2135 4.89867 32.3841 5.04459 32.5272C5.19052 32.6703 5.36331 32.7832 5.55302 32.8593C5.74274 32.9354 5.94563 32.9732 6.15002 32.9705H9.78002C10.1989 34.4589 10.8001 35.8897 11.57 37.2305L9.00002 39.7805C8.84472 39.9187 8.7192 40.087 8.63111 40.2752C8.54303 40.4635 8.49422 40.6677 8.48767 40.8755C8.48112 41.0832 8.51696 41.2901 8.59302 41.4835C8.66907 41.677 8.78373 41.8529 8.93002 42.0005H9.00002L13.91 46.9105C14.0467 47.0579 14.2112 47.1767 14.3941 47.2601C14.5769 47.3435 14.7745 47.3898 14.9754 47.3963C15.1763 47.4028 15.3765 47.3694 15.5644 47.298C15.7522 47.2267 15.9241 47.1187 16.07 46.9805L16.14 46.9105L18.72 44.3305C19.6094 44.8228 20.5395 45.2377 21.5 45.5705V37.1505C19.5198 35.7586 18.0344 33.7719 17.2595 31.4788C16.4846 29.1856 16.4603 26.7052 17.1903 24.3974C17.9203 22.0895 19.3665 20.0742 21.3192 18.6438C23.2719 17.2134 25.6295 16.4423 28.05 16.4423C30.4706 16.4423 32.8282 17.2134 34.7809 18.6438C36.7335 20.0742 38.1798 22.0895 38.9097 24.3974C39.6397 26.7052 39.6155 29.1856 38.8405 31.4788C38.0656 33.7719 36.5803 35.7586 34.6 37.1505V45.6405C35.5779 45.2907 36.5246 44.8592 37.43 44.3505L39.91 46.8305C40.0467 46.9779 40.2112 47.0967 40.3941 47.1801C40.5769 47.2635 40.7745 47.3098 40.9754 47.3163C41.1763 47.3228 41.3765 47.2894 41.5644 47.218C41.7522 47.1467 41.9241 47.0388 42.07 46.9005C42.0958 46.8798 42.1193 46.8563 42.14 46.8305L47.06 41.9205C47.3529 41.6418 47.5244 41.259 47.5375 40.8549C47.5506 40.4507 47.4043 40.0577 47.13 39.7605L47.06 39.6905L44.53 37.1005C45.2808 35.7576 45.862 34.3267 46.26 32.8405H49.84C50.0457 32.8432 50.2499 32.8051 50.4408 32.7285C50.6318 32.6519 50.8057 32.5383 50.9525 32.3943C51.0994 32.2502 51.2163 32.0785 51.2965 31.8891C51.3767 31.6997 51.4187 31.4962 51.42 31.2905V24.2905C51.4227 24.0901 51.3856 23.8911 51.3111 23.705C51.2365 23.5189 51.1258 23.3494 50.9855 23.2063C50.8451 23.0632 50.6778 22.9492 50.4933 22.871C50.3087 22.7928 50.1105 22.7518 49.91 22.7505H49.84" fill="#898778"/>
<path d="M34.6 27.7697C34.6009 26.6869 34.3394 25.62 33.8378 24.6604C33.3363 23.7008 32.6096 22.8771 31.72 22.2597C31.5542 22.1605 31.3558 22.1312 31.1684 22.178C30.9809 22.2249 30.8197 22.3442 30.72 22.5097C30.6568 22.6157 30.6224 22.7363 30.62 22.8597V26.1897C30.62 26.8872 30.3429 27.5562 29.8497 28.0494C29.3565 28.5426 28.6875 28.8197 27.99 28.8197C27.2925 28.8197 26.6236 28.5426 26.1303 28.0494C25.6371 27.5562 25.36 26.8872 25.36 26.1897V22.9097C25.3548 22.7205 25.2753 22.541 25.1386 22.4099C25.002 22.2789 24.8193 22.207 24.63 22.2097C24.5035 22.2121 24.3797 22.2465 24.27 22.3097C23.3847 22.9312 22.6612 23.7559 22.1601 24.7145C21.659 25.6732 21.395 26.738 21.39 27.8197C21.3876 29.0687 21.736 30.2933 22.3954 31.3541C23.0548 32.4149 23.9989 33.2692 25.12 33.8197V48.7097C25.0969 49.1015 25.1541 49.4939 25.2882 49.8628C25.4222 50.2317 25.6302 50.5693 25.8994 50.8549C26.1687 51.1405 26.4935 51.3681 26.8538 51.5236C27.2142 51.6791 27.6025 51.7593 27.995 51.7593C28.3875 51.7593 28.7759 51.6791 29.1362 51.5236C29.4966 51.3681 29.8214 51.1405 30.0906 50.8549C30.3598 50.5693 30.5679 50.2317 30.7019 49.8628C30.8359 49.4939 30.8931 49.1015 30.87 48.7097V33.7097C31.9886 33.1568 32.9299 32.3017 33.5874 31.2413C34.2449 30.1808 34.5922 28.9574 34.59 27.7097" fill="#898778"/>
</g>
</g>
<defs>
<clipPath id="clip0_417_70">
<rect width="56" height="56" fill="white"/>
</clipPath>
</defs>
</svg>
