<svg width="57" height="57" viewBox="0 0 57 57" fill="none" xmlns="http://www.w3.org/2000/svg">
<g clip-path="url(#clip0_417_81)">
<path d="M31.81 4.69987H20.44C19.7682 4.67428 19.1026 4.83787 18.5192 5.17202C17.9358 5.50616 17.4579 5.99743 17.14 6.58987L12.46 14.7099L22.07 20.2899L29.67 6.99987C30.2154 6.09252 30.9443 5.30912 31.81 4.69987Z" fill="#898778"/>
<path d="M41.16 19.3803L44.86 8.73034L42.06 10.4203C41.3584 9.11879 40.5804 7.85992 39.73 6.65034C39.2393 6.07016 38.626 5.60601 37.9343 5.2913C37.2427 4.97659 36.4898 4.81916 35.73 4.83034C34.9928 4.80944 34.2589 4.93674 33.5718 5.20471C32.8847 5.47268 32.2584 5.87585 31.73 6.39034C30.8313 7.55673 30.0286 8.79412 29.33 10.0903L32.78 16.2703L30.31 17.5703L41.16 19.3803Z" fill="#898778"/>
<path d="M16 30.4807L18.44 32.0007L14.67 21.7207L3.5 23.7207L6.42 25.4107C5.38 27.0007 4.84 27.8707 4.8 28.0007C4.33465 28.8575 4.08738 29.8157 4.08 30.7907C4.08 31.964 4.81667 33.914 6.29 36.6407C7.37 38.6407 8.48 40.6407 9.6 42.6407C9.78 41.3407 10.75 39.1907 12.53 36.2107C13.69 34.3007 14.86 32.4007 16.03 30.4907" fill="#898778"/>
<path d="M10.78 43.4693C10.8439 44.7909 11.3838 46.0447 12.3 46.9993C12.6706 47.5145 13.1506 47.9413 13.7056 48.249C14.2605 48.5568 14.8768 48.7379 15.51 48.7793H24.86V37.7793H13.17C11.57 40.3293 10.77 42.2393 10.77 43.4893" fill="#898778"/>
<path d="M48.12 20.9297L38.57 26.4597L44.41 36.5897H45.77C50.71 36.5897 53.1767 34.6197 53.17 30.6797C53.17 29.733 52.4767 28.0664 51.09 25.6797C50.09 24.1197 49.09 22.5297 48.09 20.9297" fill="#898778"/>
<path d="M41.1 37.7501H36.62L36.75 34.8301L29.75 43.2801L37.07 52.0001V48.6101L40.38 48.7301C42.16 48.8201 44.08 47.3201 46.16 44.2501C47.5933 41.9234 49.0033 39.5901 50.39 37.2501C48.8305 37.7118 47.2045 37.9079 45.58 37.8301C44.58 37.8301 43.09 37.8301 41.1 37.7601" fill="#898778"/>
</g>
<defs>
<clipPath id="clip0_417_81">
<rect width="56.67" height="56.67" fill="white"/>
</clipPath>
</defs>
</svg>
