<?xml version="1.0" encoding="UTF-8"?>
<svg id="_レイヤー_2" data-name="レイヤー 2" xmlns="http://www.w3.org/2000/svg" xmlns:xlink="http://www.w3.org/1999/xlink" viewBox="0 0 750.09 112.86">
  <defs>
    <style>
      .cls-1 {
        fill: #3e3a39;
      }

      .cls-1, .cls-2, .cls-3, .cls-4, .cls-5, .cls-6, .cls-7 {
        stroke-width: 0px;
      }

      .cls-2 {
        fill: #231815;
      }

      .cls-3 {
        fill: url(#_名称未設定グラデーション_17-3);
      }

      .cls-4 {
        fill: url(#_名称未設定グラデーション_17-2);
      }

      .cls-5 {
        fill: #4f4c4b;
      }

      .cls-6 {
        fill: url(#_名称未設定グラデーション_16);
      }

      .cls-7 {
        fill: url(#_名称未設定グラデーション_17);
      }
    </style>
    <linearGradient id="_名称未設定グラデーション_17" data-name="名称未設定グラデーション 17" x1="0" y1="46.2" x2="99.21" y2="46.2" gradientUnits="userSpaceOnUse">
      <stop offset="0" stop-color="#ee793b"/>
      <stop offset=".37" stop-color="#eb7537"/>
      <stop offset=".68" stop-color="#e26a2d"/>
      <stop offset=".98" stop-color="#d3591c"/>
      <stop offset="1" stop-color="#d3581b"/>
    </linearGradient>
    <linearGradient id="_名称未設定グラデーション_17-2" data-name="名称未設定グラデーション 17" x1="21.58" y1="99.1" x2="39.83" y2="99.1" xlink:href="#_名称未設定グラデーション_17"/>
    <linearGradient id="_名称未設定グラデーション_17-3" data-name="名称未設定グラデーション 17" x1="47.99" y1="103.74" x2="66.24" y2="103.74" xlink:href="#_名称未設定グラデーション_17"/>
    <linearGradient id="_名称未設定グラデーション_16" data-name="名称未設定グラデーション 16" x1="79.36" y1="69.34" x2="133.19" y2="69.34" gradientUnits="userSpaceOnUse">
      <stop offset="0" stop-color="#ee793b"/>
      <stop offset=".46" stop-color="#ec7638"/>
      <stop offset=".71" stop-color="#e56e31"/>
      <stop offset=".91" stop-color="#da6123"/>
      <stop offset="1" stop-color="#d3581b"/>
    </linearGradient>
  </defs>
  <g id="_レイヤー_1-2" data-name="レイヤー 1">
    <g>
      <g>
        <g>
          <path class="cls-7" d="M95.39,4.8c-2.21-.36-4.34.94-5.03,3.06l-7.94,24.02-10.53-.06c-1.21,0-2.37.47-3.23,1.32-.86.85-1.34,2.01-1.34,3.22v20.47l-20.89-3.41c-2.48-.41-4.81,1.27-5.21,3.75-.41,2.48,1.27,4.81,3.75,5.21l22.35,3.65v16.47l-42.22-6.98v-42.29l26.91,4.43c.25.04.5.06.74.06,2.18,0,4.11-1.58,4.48-3.8.41-2.48-1.27-4.81-3.74-5.22l-28.38-4.67v-14.92c0-2.03-1.35-3.81-3.3-4.37L5.79.17C3.38-.51.86.88.18,3.3c-.69,2.41.71,4.92,3.12,5.61l12.72,3.63v66.84c0,2.22,1.61,4.12,3.8,4.48l51.31,8.48c.25.04.49.06.74.06,1.07,0,2.11-.38,2.94-1.08,1.02-.86,1.6-2.13,1.6-3.46v-46.93l9.26.06h.03c1.96,0,3.7-1.26,4.31-3.12l.12-.37v23.28c0,2.51,2.03,4.54,4.54,4.54s4.54-2.03,4.54-4.54V9.28c0-2.23-1.62-4.13-3.82-4.48Z"/>
          <path class="cls-4" d="M39.83,99.1c0,5.04-4.08,9.12-9.12,9.12s-9.12-4.08-9.12-9.12,4.08-9.12,9.12-9.12,9.12,4.08,9.12,9.12Z"/>
          <circle class="cls-3" cx="57.12" cy="103.74" r="9.12"/>
        </g>
        <path class="cls-6" d="M79.38,99.07c-.14-1.25.76-2.37,2.01-2.51l1.01-.11c14.79-1.65,28.42-9.81,35.74-22.77,3.13-5.53,5.01-11.56,5.69-17.67l-5.63-1.54c-.68-.19-1.23-.67-1.5-1.33-.27-.65-.22-1.39.13-2l9.71-16.93c.45-.78,1.32-1.23,2.22-1.13.12.01.23.03.35.06.74.2,1.34.76,1.58,1.51,1.65,5.23,2.48,10.61,2.5,16.07,0,0-.06,1.72-.1,2.56-.03.81-.15,2.6-.17,2.69-.74,7.95-3.12,15.79-7.27,22.89-8.84,15.14-24.88,24.67-42.3,26.62l-.97.11c-1.25.14-2.37-.76-2.51-2.01l-.5-4.52Z"/>
      </g>
      <g>
        <path class="cls-1" d="M175.19,70.29h20.6c-.47,5.11-2.09,13.33-7.61,18.85-4.98,4.98-10.97,6.19-16.36,6.19s-10.97-1.21-15.75-5.86c-3.16-3.03-6.13-7.87-6.13-15.41,0-8.08,3.37-14.61,7.61-18.71,3.63-3.5,9.42-6.93,18.31-6.93,3.57,0,7.81.61,11.91,3.16,2.49,1.55,4.91,3.9,6.73,7l-7.88,4.51c-1.21-2.22-2.83-3.77-4.51-4.78-2.15-1.35-4.58-1.95-7.27-1.95-5.18,0-8.75,2.15-10.97,4.37-3.1,3.1-4.91,8.01-4.91,12.86,0,5.32,2.29,8.48,3.9,10.1,3.03,3.03,6.73,3.7,9.62,3.7,2.56,0,6.12-.4,9.15-3.03,2.02-1.75,3.43-4.31,4.17-6.53h-11.58l.94-7.54Z"/>
        <path class="cls-1" d="M233.74,56.97h-16.15l-1.21,10.03h15.48l-.94,7.54h-15.48l-1.48,12.25h16.15l-.94,7.54h-24.9l5.52-44.89h24.9l-.94,7.54Z"/>
        <path class="cls-1" d="M284.02,54.21c3.36,3.23,5.92,8.28,5.92,14.94,0,7.13-2.69,14.2-7.2,18.84-3.57,3.7-9.62,7.34-18.71,7.34s-13.86-3.57-16.49-6.26c-3.7-3.77-5.92-9.22-5.92-14.87,0-7.4,3.1-14.34,7.74-18.71,4.71-4.44,11.71-7.07,19.11-7.07,6.39,0,11.98,2.36,15.55,5.79ZM275.53,82.95c3.23-3.16,5.32-8.08,5.32-13.12,0-4.04-1.48-7.34-3.57-9.49-1.95-2.02-5.32-3.9-10.23-3.9s-8.61,1.88-11.17,4.31c-3.43,3.23-5.18,7.94-5.18,12.79s1.82,7.94,3.57,9.76c2.42,2.56,6.06,4.11,10.23,4.11,4.51,0,8.35-1.82,11.04-4.44Z"/>
        <path class="cls-1" d="M310.26,49.43h6.33l8.35,28.54,16.02-28.54h6.33l1.95,44.89h-8.75l-.67-27.66-15.61,27.66h-2.69l-8.21-27.66-7.94,27.66h-9.02l13.93-44.89Z"/>
        <path class="cls-1" d="M388.47,84.9h-18.1l-5.11,9.42h-9.69l25.1-44.89h6.6l13.26,44.89h-9.22l-2.83-9.42ZM386.78,77.77l-4.31-16.15-8.48,16.15h12.79Z"/>
        <path class="cls-1" d="M427.64,49.43c3.43,0,7.88.47,11.17,3.9,1.55,1.61,3.16,4.31,3.16,8.61s-1.55,7.61-3.7,9.69c-2.02,1.95-5.32,3.43-8.28,3.9l11.44,18.78h-10.5l-9.76-18.04h-1.08l-2.22,18.04h-8.75l5.52-44.89h12.99ZM420.84,70.09h3.1c2.36,0,5.32-.67,7-2.36.81-.81,1.95-2.42,1.95-5.11,0-1.28-.27-3.03-1.82-4.37-1.08-.94-2.89-1.68-5.79-1.68h-2.76l-1.68,13.53Z"/>
        <path class="cls-1" d="M463.24,67.33l18.37-17.9h10.16l-21.47,20.93,17.03,23.96h-10.5l-12.92-19.45-1.68,1.62-2.22,17.84h-8.75l5.52-44.89h8.75l-2.29,17.9Z"/>
        <path class="cls-1" d="M525.63,56.97h-16.15l-1.21,10.03h15.48l-.94,7.54h-15.48l-1.48,12.25h16.15l-.94,7.54h-24.9l5.52-44.89h24.9l-.94,7.54Z"/>
        <path class="cls-1" d="M553.69,56.97l-4.58,37.35h-8.75l4.58-37.35h-10.1l.94-7.54h28.94l-.94,7.54h-10.1Z"/>
      </g>
      <g>
        <path class="cls-5" d="M159.87,22.64c1.2,1.05,1.75,1.62,2.65,2.74l-1.41,1.15c-.96-1.28-1.48-1.86-2.48-2.82l1.24-1.07ZM163.57,28.95c-1.05,2.87-1.5,3.93-2.76,6.59-.19.36-.28.58-.43.96l.02.17c0,.17-.09.28-.21.28-.09,0-.13-.02-.28-.15l-1.28-1.13c1-1.43,2.44-4.51,3.64-7.85l1.3,1.13ZM161.05,17.96c1.05.88,1.6,1.48,2.55,2.67l-1.43,1.13c-.81-1.22-1.33-1.82-2.35-2.78l1.24-1.03ZM166.05,33.12l1.28.71c.17.08.26.21.26.3,0,.19-.13.26-.56.3-1.28,1.35-2.18,2.03-3.98,2.97-.13-.21-.45-.66-.96-1.35,1.82-.92,2.67-1.58,3.89-2.93h-1.6c.04-.85.06-2.1.06-3.76v-7.21c0-1.73-.02-2.44-.06-3.4.41.02.75.04,1.26.04h3.79c.56,0,.81-.02,1.26-.04q-.04.68-.06,3.4v6.97c0,1.95.02,2.82.06,3.76h-1.67v-.47h-2.97v.71ZM169.02,22.73v-2.39h-2.97v2.39h2.97ZM166.05,26.77h2.97v-2.5h-2.97v2.5ZM166.05,30.88h2.97v-2.57h-2.97v2.57ZM169.34,33.14c1.2.88,1.69,1.35,2.8,2.78l-1.28,1.13c-.9-1.22-1.69-2.14-2.61-2.97l1.09-.94ZM174.07,19.24c.21.02.34.08.34.21s-.13.26-.41.43c-.02.66-.02,2.29-.02,3.66v4.23c0,1.93.02,3.44.06,4.38h-1.77c.04-.94.06-2.42.06-4.38v-4.23c0-2.33-.02-3.79-.09-4.45l1.82.15ZM177.71,18.09c.19.02.32.11.32.21,0,.13-.11.24-.41.41q0,.73-.02,5.52v5.37c0,.9.02,3.01.06,4.7v.66c0,1.03-.17,1.48-.71,1.8-.58.36-1.05.43-2.99.47-.06-.94-.11-1.22-.41-1.86.77.06,1.13.09,1.56.09.75,0,.86-.11.86-.88v-10.35c0-3.51-.04-5.63-.13-6.29l1.86.15Z"/>
        <path class="cls-5" d="M199.86,26.07c-1.13-.04-2.95-.09-4.26-.09h-11.25c-1.65,0-2.44.02-4.26.09v-1.56c1.11.04,3.04.09,4.26.09h11.25c1.73,0,2.78-.02,4.26-.09v1.56ZM190.77,33.1h3.81c1.37,0,1.99,0,3.4-.06v1.5c-.92-.04-2.42-.06-3.4-.06h-3.81v1.03h4.83c1.73,0,2.78-.02,4.26-.08v1.56c-1.13-.04-2.95-.09-4.26-.09h-11.25c-1.65,0-2.44.02-4.26.09v-1.56c1.11.04,3.04.08,4.26.08h4.79v-1.03h-3.79c-1.39,0-2.22,0-3.4.06v-1.5c.9.04,2.29.06,3.4.06h3.79v-1.11h-4.02v.6h-1.6c.02-.51.04-1.22.04-2.27v-1.6c0-.92,0-1.33-.04-1.88.75.02,1.39.04,2.35.04h8.17c1.05,0,1.52-.02,2.35-.04-.02.39-.06,1.2-.06,1.88v1.56c0,1.13.02,1.65.06,2.23h-1.6v-.51h-4.02v1.11ZM185.36,23.43v.66h-1.6c.04-.51.06-1.22.06-2.29v-1.69c0-.94-.02-1.35-.06-1.9.75.02,1.41.04,2.35.04h7.74c1.05,0,1.52,0,2.37-.04-.04.38-.06,1.22-.06,1.9v1.67c0,1.13,0,1.65.06,2.22h-1.63v-.58h-9.24ZM189.15,28.1h-4.02v.77h4.02v-.77ZM189.15,29.96h-4.02v.81h4.02v-.81ZM194.6,19.48h-9.24v.83h9.24v-.83ZM194.6,21.38h-9.24v.83h9.24v-.83ZM194.8,28.87v-.77h-4.02v.77h4.02ZM194.8,30.77v-.81h-4.02v.81h4.02Z"/>
        <path class="cls-5" d="M203.89,28.4c-.49,1.88-.88,2.8-1.8,4.68-.26-.64-.64-1.18-1.11-1.58.96-1.8,1.37-2.8,1.97-5,.36-1.39.53-2.05.66-2.87h-.45c-.56,0-1.24.02-1.69.04v-1.54c.47.02,1.24.04,1.69.04h.73c0-.83-.02-1.69-.02-2.52-.02-.71-.02-1.41-.11-2.1l1.75.17c.19,0,.3.09.3.21,0,.11-.11.24-.39.41,0,1.28,0,2.55-.02,3.83h.53c.47,0,1.24-.02,1.71-.04v1.54c-.45-.02-1.13-.04-1.71-.04h-.53v1.92c.79.71,1.5,1.48,2.12,2.33l-1.18,1.33c-.28-.53-.58-1.03-.94-1.52v3.4c0,2.8.04,4.88.11,6.25h-1.71c.06-1.39.09-3.49.09-6.25v-2.69ZM215.01,24.91c.36,0,.71-.02,1.01-.02.45-.56.9-1.11,1.3-1.69-.79-.98-1.37-1.6-2.37-2.37l.77-.96c.24.17.45.34.66.49.53-.92.96-1.88,1.24-2.78l1.43.6c.17.09.24.15.24.26,0,.13-.06.19-.49.36-.62,1.07-.98,1.63-1.45,2.33.28.26.56.53.79.81.56-.92.73-1.22.96-1.71l1.28.71c.21.09.26.15.26.24,0,.15-.11.24-.49.34-.81,1.18-1.5,2.07-2.52,3.27.58-.04,1.13-.11,1.69-.17-.15-.26-.28-.49-.41-.71l1.03-.6c.66.96,1.15,1.95,1.52,2.89l-1.26.64c-.15-.43-.28-.81-.41-1.15-.86.17-1.69.34-2.52.47.71.34,1.2.64,2.12,1.3l-.58.75c.81-.02,1.84-.04,2.44-.06v1.54c-.77-.02-2.16-.04-2.97-.04h-2.57c.21.75.45,1.41.98,2.57.71-.64,1.28-1.39,1.93-2.37l1.28.73c.15.08.24.19.24.3,0,.19-.13.26-.53.34-.73.96-1.39,1.71-2.14,2.37.68,1.01,1.43,1.77,1.86,1.77.39,0,.68-.92.92-2.74.6.39.79.49,1.35.73-.17,1.15-.45,2.29-.71,2.91-.3.66-.66.96-1.24.96-1.09,0-2.4-1.03-3.51-2.63-.24.17-.47.32-.73.47-1.63.96-3.19,1.56-5.84,2.27-.21-.66-.41-1.07-.64-1.46,2.52-.58,4.26-1.24,5.97-2.29l.45-.3c-.39-.75-.75-1.58-1.03-2.46-.13-.38-.24-.77-.34-1.18h-3.4c-.04.45-.11.9-.19,1.37,1.37.75,2.07,1.33,2.87,2.22l-1.01,1.07c-.71-.83-1.24-1.35-2.16-1.97-.6,2.14-1.67,3.59-3.53,4.96-.24-.53-.43-.83-.81-1.22,2.12-1.63,2.99-3.29,3.36-6.42-.56,0-1.11,0-1.56.02v-1.54c.81.04,2.03.06,2.97.06h3.17c-.34-1.95-.49-4.41-.53-8.19-.02-1.48-.04-2.07-.13-2.48l1.78.24c.24.04.34.11.34.24,0,.15-.13.28-.43.43v.6c-.02.64,0,1.43.04,2.35.04,2.63.26,4.92.62,6.82h2.74c-.62-.49-1.13-.83-1.67-1.09l.62-.92c-.28.04-.56.11-.86.15-.17.21-.28.3-.38.3-.13,0-.21-.11-.28-.3l-.51-1.43ZM212.08,27.48c-.11-.34-.19-.71-.32-1.05-1.18.26-2.35.47-3.55.68-.17.24-.28.3-.38.3-.13,0-.21-.11-.28-.3l-.49-1.41c.34-.02.66-.02,1.01-.04.49-.71.98-1.43,1.48-2.16-.73-.81-1.52-1.56-2.4-2.22l.77-.96c.19.13.41.26.6.38.56-.94,1.03-1.97,1.33-3.04l1.48.64c.17.09.24.15.24.24,0,.17-.11.21-.49.36-.64,1.09-1.03,1.73-1.56,2.52.28.23.56.49.83.75.28-.53.56-1.09.83-1.65l1.37.73c.17.08.26.17.26.24,0,.15-.09.24-.51.36-.96,1.48-1.63,2.42-2.63,3.7.58-.04,1.18-.11,1.75-.19-.13-.28-.28-.58-.43-.86l1.07-.51c.58.96,1.03,1.97,1.3,2.93l-1.26.56Z"/>
        <path class="cls-5" d="M238.32,26.13c1.73,0,2.78-.02,4.26-.09v1.67c-1.13-.04-2.95-.08-4.26-.08h-1.58c1.67,1.71,3.32,2.61,6.25,3.55-.47.51-.64.77-.94,1.45-.71-.26-1.28-.51-1.82-.75v2.61c0,1.13,0,1.67.04,2.22h-1.56v-.83h-3.31v1.26h-1.6c.04-.49.04-1.22.04-2.27v-2.46c0-.94,0-1.35-.04-1.9.47.04.9.04,1.54.04h2.59c-.56-.36-1.07-.79-1.54-1.24-.51-.53-.96-1.11-1.39-1.69h-4.06c-.86.94-1.78,1.78-3.36,2.93h2.78c.68,0,1.01,0,1.54-.04-.04.39-.06,1.22-.06,1.9v2.07c0,1.13.02,1.67.06,2.22h-1.58v-.83h-3.29v1.26h-1.63c.04-.49.06-1.22.06-2.27v-2.91c-.66.41-1.37.77-2.27,1.2-.36-.9-.43-1.01-.79-1.39,1.97-.9,3.16-1.6,4.77-2.82.6-.45,1.11-.88,1.58-1.33h-1.54c-1.67,0-2.46.02-4.28.08v-1.67c1.11.04,3.04.09,4.28.09h2.97c.6-.73,1.13-1.54,1.71-2.5l1.37.53c.21.08.32.19.32.32,0,.17-.11.24-.51.32-.32.49-.62.92-.92,1.33h6.18ZM226.53,23.69v1.11h-1.6c.04-.51.06-1.22.06-2.27v-2.16c0-.94-.02-1.35-.06-1.9.47.02.92.04,1.54.04h3.36c.71,0,1.01-.02,1.54-.04-.02.38-.04,1.22-.04,1.9v1.73c0,1.13,0,1.67.04,2.22h-1.56v-.64h-3.27ZM229.81,19.91h-3.27v2.4h3.27v-2.4ZM230.3,34.49v-2.55h-3.29v2.55h3.29ZM235.75,23.69v1.11h-1.6c.04-.51.06-1.22.06-2.27v-2.16c0-.94-.02-1.35-.06-1.9.47.02.92.04,1.54.04h3.36c.68,0,1.01-.02,1.54-.04-.02.38-.06,1.22-.06,1.9v1.82c0,1.13.02,1.65.06,2.23h-1.58v-.73h-3.25ZM238.7,34.49v-2.55h-3.31v2.55h3.31ZM239,19.91h-3.25v2.4h3.25v-2.4Z"/>
        <path class="cls-5" d="M251.05,19.37c.24,0,.36.08.36.21,0,.11-.11.24-.41.43v6.39c0,1.43,0,2.12.04,3.12h-1.97c.04-.98.06-1.71.06-3.12v-3.98c0-1.58,0-2.27-.06-3.21l1.97.15ZM259.19,18.82c.24.02.36.13.36.28,0,.17-.11.3-.45.47-.04.69-.04,1.03-.04,2.29v3.94c0,3.72-.39,5.56-1.58,7.25-1.01,1.43-2.82,2.74-5.67,3.96-.36-.81-.56-1.03-1.11-1.65,2.59-.94,4.49-2.16,5.39-3.7.75-1.28,1.09-2.78,1.09-5.65v-4.15c0-1.73-.04-2.37-.17-3.25l2.18.21Z"/>
        <path class="cls-5" d="M278.61,23.78h-7.21c-.9,0-1.26,0-2.12.02v-1.77c.6.04,1.41.04,2.12.04h5.62c2.22,0,2.95-.02,3.7-.04-.13,1.05-.17,1.58-.32,3.42l-.49,6.37h1.8c1.37,0,1.97,0,3.4-.06v1.86c-.92-.02-2.2-.06-3.4-.06h-11.81c-1.37,0-2.22.02-3.4.06v-1.86c.9.04,2.31.06,3.4.06h8.11l.6-8.04Z"/>
        <path class="cls-5" d="M305.63,28.31c-.92-.02-2.42-.06-3.4-.06h-10.56c-1.37,0-2.22.02-3.4.06v-1.88c.9.04,2.31.06,3.4.06h10.56c1.35,0,1.97,0,3.4-.06v1.88Z"/>
        <path class="cls-5" d="M311.36,20.8c.81,0,1.6.02,2.25.02.81,0,2.16-.02,4.17-.08l3.94-.13.3-.36,1.52,1.22c.09.09.15.15.15.24,0,.13-.11.21-.41.3-.96,2.48-1.92,4.3-3.4,6.22,2.74,1.65,4.88,3.42,7.06,5.92l-1.54,1.43c-2.2-2.76-3.87-4.3-6.61-6.03-2.18,2.52-4.23,4.06-8.04,6.05-.39-.77-.66-1.01-1.3-1.56,3.81-1.75,6.31-3.61,8.43-6.22,1.39-1.69,2.4-3.44,3.25-5.52l-3.42.13c-2.84.11-4.49.21-6.12.32l-.21-1.95Z"/>
        <path class="cls-5" d="M348.29,22.54c.11.11.15.19.15.28,0,.13-.11.21-.47.3-2.03,3.04-4.53,5.71-7.25,8.17,1.15,1.18,1.73,1.8,2.63,3.08l-1.58,1.22c-2.03-2.8-4.34-5.03-7.21-6.91l1.2-1.3c1.63,1.01,2.67,1.78,3.72,2.67,2.31-2.14,4.43-4.38,6.16-6.91l-8.34.09c-3.14.04-4.43.06-6.05.13l-.15-1.88c1.3.04,3.04.06,6.2.04l9.24-.09.3-.28,1.45,1.39Z"/>
        <path class="cls-5" d="M369.79,28.31c-.92-.02-2.42-.06-3.4-.06h-10.56c-1.37,0-2.22.02-3.4.06v-1.88c.9.04,2.31.06,3.4.06h10.56c1.35,0,1.97,0,3.4-.06v1.88Z"/>
        <path class="cls-5" d="M388.57,22.75c1.2,0,1.73-.02,2.97-.06v1.86c-1.05-.04-1.8-.06-2.97-.06h-3.14c-.04,3.55-.66,5.77-2.12,7.89-1.22,1.75-2.76,2.91-6.18,4.62-.32-.66-.68-1.13-1.18-1.6,3.06-1.33,4.71-2.57,5.82-4.21,1.24-1.84,1.71-4.06,1.75-6.69h-5.75c-.98,1.58-1.75,2.57-3.38,4.21-.49-.71-.73-.94-1.33-1.37,2.22-2.18,3.55-4.09,4.58-6.59.34-.88.56-1.58.86-2.87l1.9.51c.19.06.28.15.28.28,0,.15-.06.21-.49.36-.56,1.71-.88,2.48-1.48,3.72h9.86Z"/>
        <path class="cls-5" d="M398.79,29.32c-.75-1.75-1.13-2.44-2.14-3.72l1.48-.83c1.07,1.22,1.71,2.27,2.35,3.74l-1.69.81ZM410.81,24.42c.17.06.28.19.28.32,0,.19-.11.28-.47.41-1.01,3.7-2.01,5.56-3.7,7.46-1.45,1.63-3.81,3.23-6.61,4.34-.3-.7-.56-1.07-1-1.54,3.02-1.09,4.92-2.42,6.31-4,1.33-1.5,2.1-2.89,2.8-5.2.21-.71.43-1.58.58-2.48l1.82.69ZM402.96,23.28c.92,1.26,1.45,2.4,1.93,3.98l-1.73.68c-.45-1.56-.94-2.72-1.73-3.98l1.54-.68Z"/>
        <path class="cls-5" d="M424.46,18.34c.21.02.34.08.34.21s-.11.24-.38.41c-.02.86-.02,1.58-.02,4.28v2.03l.73-1.18c3.29,1.46,4.85,2.35,7.29,4.21l-1.35,1.65c-2.2-1.92-3.83-2.97-6.67-4.23v5.84c0,2.22.02,4.04.06,5h-2.1c.09-1.11.13-2.87.13-5v-8.32c0-2.8-.02-3.85-.11-5.05l2.07.15Z"/>
      </g>
      <g>
        <path class="cls-5" d="M590.71,72.96c-1.78-1.73-5.71-3.83-7.59-4.05l.64-1.21c.22.1.37.15,1.31.27,2.52.4,5.04,1.11,7.27,2.08l-1.63,2.92ZM585.22,78.03c5.41-.2,10.75-2.49,13.54-5.86,1.71-1.88,3.04-4.2,3.34-5.86l1.01.44c-.27.4-.32.52-.59,1.56-1.16,3.88-2.97,6.9-5.16,8.62-2.27,1.85-6.01,3.41-9.81,4.1l-.22.05c-.67.12-.86.17-1.06.25l-1.04-3.31ZM593.15,67.48c-1.14-1.46-5.31-3.88-7.44-4.32l.72-1.11c.35.12.44.15,1.33.32,2.17.4,4.97,1.29,7.02,2.27l-1.63,2.84ZM600.84,61.94v3.04h-1.48v-3.04h1.48ZM603.73,61.94v3.04h-1.48v-3.04h1.48Z"/>
        <path class="cls-5" d="M619.84,62.98c0-.44-.02-.67-.12-1.23h3.51c-.1.47-.12.82-.12,1.23v3.51h3.76c.42,0,.82-.05,1.24-.12v1.24c-.49-.1-.79-.12-1.24-.12h-3.76v13.02c0,.4.05.84.12,1.23h-3.51c.07-.44.12-.82.12-1.23v-12.8c-1.63,5.91-5.39,10.08-11.17,12.4-.22.07-.52.25-.79.45l-.49-.94c.64-.02,2.3-1.14,3.66-2.47,2.74-2.64,4.57-5.96,5.44-9.66h-7.46c-.44,0-.74.02-1.24.12v-1.24c.4.08.82.12,1.24.12h10.82v-3.51Z"/>
        <path class="cls-5" d="M633.83,65.25c-.44,0-.86.05-1.24.15v-1.26c.4.07.84.12,1.24.12h18.85c-.77,5.58-3.53,8.97-9.29,11.32.99.96,1.58,1.63,2.5,2.67.59.69.74.87.96,1.19l-3.14,2.52c-1.43-3.41-5.29-8.35-7.83-10.06l1.21-1.36c.12.17.49.47.87.72,1.68,1.14,2.99,2.13,4.62,3.56,3.36-2.32,5.41-5.68,5.86-9.56h-14.6Z"/>
        <path class="cls-5" d="M676.96,72.3c-.57-.1-.82-.12-1.14-.12h-17.22c-.47,0-.89.05-1.11.12v-1.83c.2.07.72.12,1.11.12h17.22c.32,0,.77-.05,1.14-.12v1.83Z"/>
        <path class="cls-5" d="M680.94,73.33c2.92-1.56,5.26-6.55,5.54-11.79l3.53.69c-.15.47-.27.87-.32,1.09-.32,1.33-.74,2.54-1.26,3.63h13.1c.4,0,.84-.05,1.24-.12v1.24c-.44-.07-.84-.12-1.24-.12h-3.51c-.12,7.41-3.41,11.61-10.72,13.74-.57.15-.94.32-1.21.52l-.44-.99c1.98-.32,4.97-2.32,6.18-4.15,1.75-2.5,2.62-5.41,2.67-9.12h-6.5c-1.24,2.35-3.29,4.38-5.58,5.54-.42.22-.62.37-.87.64l-.59-.79Z"/>
        <path class="cls-5" d="M711.02,74.84c-.02-1.51-1.51-5.56-2.25-6.15l1.04-.72c1.71,2,2.97,4.08,3.51,5.83l-2.3,1.04ZM711.88,80.62c2.2.1,5.78-2.32,7.31-4.94,1.14-1.73,2.05-5.04,2.05-7.31l2.94.47c-.1.37-.15.59-.22,1.11-1.33,6.75-4.37,9.93-10.92,11.44-.49.12-.64.17-.82.27l-.35-1.04ZM715.59,74.08c-.05-1.78-1.16-5.19-2-6.15l1.14-.62c.07.17.12.22.4.59,1.28,1.7,2.57,4.08,2.82,5.14l-2.35,1.04Z"/>
        <path class="cls-5" d="M735.73,81.83c.07-.44.12-.82.12-1.24v-17.54c0-.44-.02-.74-.12-1.24h3.51c-.07.4-.12.84-.12,1.24v5.53c3.63.64,7.27,1.9,9.66,3.41.42.25.69.42,1.01.62.1.07.12.1.3.2l-2.15,3.14c-2.52-2.79-5.54-4.97-8.82-6.35v11c0,.4.05.84.12,1.24h-3.51Z"/>
      </g>
    </g>
    <path class="cls-2" d="M573.43,52.01c-3.2,0-5.82-2.58-5.82-5.79s2.62-5.82,5.82-5.82,5.82,2.61,5.82,5.82-2.61,5.79-5.82,5.79ZM573.43,41.03c-2.85,0-5.18,2.33-5.18,5.18s2.33,5.16,5.18,5.16,5.18-2.3,5.18-5.16-2.33-5.18-5.18-5.18ZM575.23,49.95l-1.83-3.33h-1.1v3.35h-1v-7.35h2.23c1.51,0,2.24.96,2.24,1.94,0,.78-.47,1.58-1.39,1.91l2.06,3.49h-1.21ZM573.43,45.78c.85,0,1.31-.62,1.31-1.22,0-.56-.4-1.1-1.22-1.1h-1.22v2.33h1.14Z"/>
  </g>
</svg>