<svg width="8" height="8" viewBox="0 0 8 8" fill="none" xmlns="http://www.w3.org/2000/svg">
<g clip-path="url(#clip0_332_329)">
<path d="M0.442494 8.00015C0.198392 8.00015 0 7.80153 0 7.55766V1.18273C0 0.938626 0.198392 0.740234 0.442494 0.740234H3.42921V1.62522H0.884988V7.11516H6.37493V4.57094H7.25992V7.55742C7.25992 7.6757 7.21397 7.78668 7.13033 7.87033C7.04668 7.95397 6.93571 7.99992 6.81742 7.99992H0.442494V8.00015Z" fill="#333333"/>
<path d="M3.33115 5.06724C3.22418 5.06724 3.12404 5.02601 3.04935 4.95132C2.89219 4.79416 2.89549 4.53521 3.05665 4.37405L6.69745 0.733485L4.79764 0.717462C4.61056 0.715813 4.45788 0.57397 4.44304 0.387359C4.43503 0.286278 4.46825 0.189674 4.53705 0.115218C4.60538 0.0409978 4.69892 0 4.80024 0L7.79803 0.0259182C7.89463 0.0268607 7.9738 0.106029 7.97451 0.202397L8.00066 3.19713C8.0016 3.29349 7.96461 3.38444 7.89675 3.45277C7.82889 3.52134 7.73865 3.55904 7.64252 3.55904C7.63262 3.55904 7.62273 3.55857 7.61283 3.55786C7.42622 3.54278 7.28438 3.39033 7.28296 3.20325L7.2667 1.30345L3.62638 4.94378C3.54697 5.02318 3.44212 5.067 3.33091 5.067L3.33115 5.06724Z" fill="#333333"/>
</g>
<defs>
<clipPath id="clip0_332_329">
<rect width="8" height="8" fill="white"/>
</clipPath>
</defs>
</svg>
